<?xml version="1.0" encoding="UTF-8"?>
<svg version="1.1" xmlns="http://www.w3.org/2000/svg" width="500" height="500">
<path d="M0 0 C0.06058594 1.04800781 0.12117188 2.09601563 0.18359375 3.17578125 C0.26801738 4.55470048 0.35266447 5.93360605 0.4375 7.3125 C0.47681641 8.00279297 0.51613281 8.69308594 0.55664062 9.40429688 C0.74927415 12.47161535 1.02322717 15.06968152 2 18 C2.09582087 20.55334435 2.13939278 23.07268016 2.125 25.625 C2.12886719 26.31851563 2.13273437 27.01203125 2.13671875 27.7265625 C2.12666646 32.87333354 2.12666646 32.87333354 1 34 C2.65 34 4.3 34 6 34 C6.33 23.11 6.66 12.22 7 1 C13.20239799 -1.067466 20.46058073 2.80460712 26.13671875 5.4765625 C41.9462848 14.19765645 53.16044189 27.07721574 58.34375 44.37890625 C58.5603125 45.24386719 58.776875 46.10882813 59 47 C59.18949219 47.7321875 59.37898438 48.464375 59.57421875 49.21875 C62.40934124 67.73808225 59.20723433 84.06654377 48.33984375 99.33203125 C43.67970545 105.56324123 38.50772088 111.66151941 32 116 C29.8125 115.625 29.8125 115.625 28 115 C26.98406552 108.11422188 27.16145265 101.90188971 28 95 C26.02 95 24.04 95 22 95 C20.52645334 101.38536888 21.49005525 107.14430942 22.625 113.5 C22.74875 114.325 22.8725 115.15 23 116 C22 117 22 117 18.875 117.1328125 C17.59625 117.13023437 16.3175 117.12765625 15 117.125 C13.72125 117.12757813 12.4425 117.13015625 11.125 117.1328125 C8 117 8 117 7 116 C6.91156207 113.55169574 6.88471248 111.13179401 6.90234375 108.68359375 C6.9037587 107.95253922 6.90517365 107.22148468 6.90663147 106.46827698 C6.91224592 104.12464368 6.92480078 101.78110461 6.9375 99.4375 C6.94251314 97.85221492 6.94707637 96.26692834 6.95117188 94.68164062 C6.96222003 90.7877239 6.97949428 86.89387795 7 83 C6.01 83 5.02 83 4 83 C3.505 84.98 3.505 84.98 3 87 C1 86 1 86 0 85 C0.11505742 87.83404585 0.24177725 90.66679619 0.375 93.5 C0.4059375 94.29148437 0.436875 95.08296875 0.46875 95.8984375 C0.72908285 101.19187208 1.61458666 105.88676764 3 111 C3.1875 113.9375 3.1875 113.9375 3 116 C2 117 2 117 -1.0625 117.0625 C-2.031875 117.041875 -3.00125 117.02125 -4 117 C-5.5565428 111.56664732 -7.09926424 106.12958655 -8.625 100.6875 C-8.85445312 99.87732422 -9.08390625 99.06714844 -9.3203125 98.23242188 C-9.536875 97.45833984 -9.7534375 96.68425781 -9.9765625 95.88671875 C-10.17330566 95.18764404 -10.37004883 94.48856934 -10.57275391 93.76831055 C-11 92 -11 92 -11 90 C-13.8509288 90.7018576 -13.8509288 90.7018576 -15 92 C-15.99 92.33 -16.98 92.66 -18 93 C-17.06360942 95.3546132 -16.12591643 97.70869425 -15.1875 100.0625 C-14.92646484 100.71927734 -14.66542969 101.37605469 -14.39648438 102.05273438 C-14.13544922 102.70693359 -13.87441406 103.36113281 -13.60546875 104.03515625 C-13.34427246 104.6914502 -13.08307617 105.34774414 -12.81396484 106.02392578 C-12.00148171 107.99640283 -11.12253503 109.92996293 -10.23828125 111.87109375 C-9.62533203 113.41990234 -9.62533203 113.41990234 -9 115 C-9.33 115.66 -9.66 116.32 -10 117 C-31.7292668 118.29714201 -31.7292668 118.29714201 -38 113.8125 C-39.36813799 112.57921432 -40.70728713 111.31213131 -42 110 C-43.03125 109.2575 -44.0625 108.515 -45.125 107.75 C-56.93490917 96.45356515 -63.91933406 80.9188338 -64.30175781 64.60449219 C-64.34119825 56.41880837 -63.6018641 48.80559229 -61 41 C-55.48393801 41.44128496 -52.45134575 42.77987754 -48 46 C-46.989375 46.495 -45.97875 46.99 -44.9375 47.5 C-42 49 -42 49 -39.3125 51.25 C-38.549375 51.8275 -37.78625 52.405 -37 53 C-35.515 52.505 -35.515 52.505 -34 52 C-39.57711431 44.23187649 -47.79931675 38.7485574 -56 34 C-55.02972378 24.70151956 -47.62582811 17.83309988 -40.75390625 11.953125 C-31.21997812 5.19147384 -20.43330709 0.46198667 -8.75 -0.6875 C-7.94046875 -0.77386719 -7.1309375 -0.86023438 -6.296875 -0.94921875 C-3.99248823 -1.00016608 -2.19511459 -0.66961064 0 0 Z M-17 19 C-16 21 -16 21 -16 21 Z M2 39 C2.33 39.66 2.66 40.32 3 41 C1.02 41.99 1.02 41.99 -1 43 C-0.85879984 45.58366245 -0.71221667 48.16682885 -0.5625 50.75 C-0.52318359 51.47960937 -0.48386719 52.20921875 -0.44335938 52.9609375 C-0.21913008 57.03959795 -0.21913008 57.03959795 0.51367188 61.04760742 C1.22343222 63.89698164 1.09249178 66.63330307 1.0625 69.5625 C1.05347656 70.69816406 1.04445313 71.83382812 1.03515625 73.00390625 C1.02355469 73.99261719 1.01195312 74.98132813 1 76 C1 76.99 1 77.98 1 79 C3.31 79 5.62 79 8 79 C7.83250244 78.34298096 7.66500488 77.68596191 7.49243164 77.0090332 C6.87895931 73.26037359 6.98300941 69.63394896 7.12109375 65.85546875 C7.14470474 65.08568192 7.16831573 64.31589508 7.19264221 63.52278137 C7.26887691 61.07748095 7.3530725 58.63252989 7.4375 56.1875 C7.49076101 54.52410532 7.5435011 52.86069387 7.59570312 51.19726562 C7.7244372 47.13129151 7.86030894 43.06561182 8 39 C6.02 39 4.04 39 2 39 Z M-31 56 C-31 56.66 -31 57.32 -31 58 C-31.99 58.495 -31.99 58.495 -33 59 C-32.34 59.66 -31.68 60.32 -31 61 C-31.99 61.495 -31.99 61.495 -33 62 C-31.18690997 65.77727089 -29.0926741 69.37269822 -27 73 C-26.34 73 -25.68 73 -25 73 C-24.71125 73.639375 -24.4225 74.27875 -24.125 74.9375 C-23.17176549 77.15206079 -23.17176549 77.15206079 -21 78 C-20.690625 79.155 -20.38125 80.31 -20.0625 81.5 C-19.711875 82.655 -19.36125 83.81 -19 85 C-18.01 85.33 -17.02 85.66 -16 86 C-15.3121764 83.64632287 -15.3121764 83.64632287 -15 81 C-15.66 80.01 -16.32 79.02 -17 78 C-17.34453848 76.66951808 -17.67737755 75.33596543 -18 74 C-19.29137309 71.21287938 -20.81401443 68.55549098 -22.3125 65.875 C-22.70373047 65.14667969 -23.09496094 64.41835937 -23.49804688 63.66796875 C-24.08102539 62.62189453 -24.08102539 62.62189453 -24.67578125 61.5546875 C-25.02552002 60.92030762 -25.37525879 60.28592773 -25.7355957 59.63232422 C-27.25618785 57.66926588 -28.73269468 56.95085359 -31 56 Z M25 66 C22.8337132 68.1662868 23.76838258 72.93884217 23.75 75.9375 C23.729375 76.77474609 23.70875 77.61199219 23.6875 78.47460938 C23.68234375 79.27576172 23.6771875 80.07691406 23.671875 80.90234375 C23.6625293 81.63960693 23.65318359 82.37687012 23.64355469 83.13647461 C23.76118164 83.75143799 23.87880859 84.36640137 24 85 C25.485 85.99 25.485 85.99 27 87 C27 86.01 27 85.02 27 84 C27.66 84.66 28.32 85.32 29 86 C30.96736592 77.54861417 30.96736592 77.54861417 31 69 C28.95959224 66.95959224 27.91674756 66 25 66 Z M-22 78 C-21 80 -21 80 -21 80 Z M24 87 C23.67 87.66 23.34 88.32 23 89 C23.99 89.33 24.98 89.66 26 90 C26 89.01 26 88.02 26 87 C25.34 87 24.68 87 24 87 Z " fill="#8CC241" transform="translate(246,157)"/>
<path d="M0 0 C0.44824219 1.80566406 0.44824219 1.80566406 0.546875 4.015625 C0.60790405 5.25953003 0.60790405 5.25953003 0.67016602 6.52856445 C0.69651123 7.42663818 0.72285645 8.32471191 0.75 9.25 C0.78601318 10.17063232 0.82202637 11.09126465 0.85913086 12.03979492 C1.18100343 22.37896993 0.65870734 32.68323902 0 43 C0.66 42.67 1.32 42.34 2 42 C6.08555854 41.48563112 10.21847627 41.07901268 13.95703125 43.01171875 C16.59384934 45.14811881 17.92211726 46.76635178 19 50 C19.27119383 53.5814804 19.44546294 57.16264729 19.62109375 60.75 C19.76709073 64.14313578 19.76709073 64.14313578 22 67 C23.7015625 66.7215625 23.7015625 66.7215625 25.4375 66.4375 C27.2009375 66.2209375 27.2009375 66.2209375 29 66 C30 67 30 67 30.09765625 69.28515625 C30.08605469 70.20167969 30.07445312 71.11820312 30.0625 72.0625 C30.05347656 72.98160156 30.04445313 73.90070313 30.03515625 74.84765625 C30.02355469 75.55792969 30.01195312 76.26820313 30 77 C27.23735711 77.59732819 24.83967231 78 22 78 C22 77.34 22 76.68 22 76 C21.34 76 20.68 76 20 76 C19.67 75.34 19.34 74.68 19 74 C18.649375 74.474375 18.29875 74.94875 17.9375 75.4375 C15.13343692 77.6988412 12.52551821 77.7388505 9 78 C7.28556781 76.28556781 7.76947033 73.99554759 7.68359375 71.65234375 C7.64169922 70.57275391 7.59980469 69.49316406 7.55664062 68.38085938 C7.51732422 67.24455078 7.47800781 66.10824219 7.4375 64.9375 C7.39431641 63.79732422 7.35113281 62.65714844 7.30664062 61.48242188 C7.20017161 58.65507805 7.09815793 55.82764262 7 53 C4.69 52.67 2.38 52.34 0 52 C0.16749756 52.72469482 0.33499512 53.44938965 0.50756836 54.19604492 C0.98054649 56.88922977 1.03685023 59.14313488 0.87890625 61.86328125 C0.83056641 62.74951172 0.78222656 63.63574219 0.73242188 64.54882812 C0.64831055 65.9168457 0.64831055 65.9168457 0.5625 67.3125 C0.51029297 68.24384766 0.45808594 69.17519531 0.40429688 70.13476562 C0.2751852 72.42356353 0.14024585 74.71186186 0 77 C-2.95664519 78.4783226 -5.74229737 78.06032783 -9 78 C-9.66 76.35 -10.32 74.7 -11 73 C-11.9075 73.639375 -12.815 74.27875 -13.75 74.9375 C-19.78541442 78.76766684 -25.99281168 78.53468505 -33 78 C-36.5625 76.6875 -36.5625 76.6875 -39 75 C-39.639375 74.5875 -40.27875 74.175 -40.9375 73.75 C-42 72 -42 72 -41.9375 68.5 C-41 65 -41 65 -38.9375 63.0625 C-38.298125 62.711875 -37.65875 62.36125 -37 62 C-37.639375 61.690625 -38.27875 61.38125 -38.9375 61.0625 C-41.72143847 58.27856153 -41.84638856 56.06409344 -42.08984375 52.21875 C-41.95703199 48.93887709 -41.25145452 47.39217042 -39 45 C-32.89025877 41.3840307 -26.54544258 40.88821954 -19.65234375 42.57421875 C-15.925002 43.85274432 -14.22191792 44.66712313 -12 48 C-11.625 51 -11.625 51 -12 54 C-14 55.875 -14 55.875 -16 57 C-14.68 57.66 -13.36 58.32 -12 59 C-11.04342567 55.91223433 -11.02578422 53.62229007 -11.5 50.4375 C-11.96304255 47.31722466 -12.02791572 46.08374717 -11 43 C-10.92899055 41.26825711 -10.91587613 39.53384448 -10.9375 37.80078125 C-10.94604004 36.76324707 -10.95458008 35.72571289 -10.96337891 34.65673828 C-10.97546387 33.55313965 -10.98754883 32.44954102 -11 31.3125 C-11.03807033 23.74085499 -11.05774967 16.186399 -10.625 8.625 C-10.55539062 7.40039062 -10.48578125 6.17578125 -10.4140625 4.9140625 C-10 2 -10 2 -8 -1 C-4.17406231 -2.27531256 -3.48011144 -2.32007429 0 0 Z M-31 53 C-27.49223216 54.60355101 -24.85645121 55.22036864 -21 55 C-21.66 53.68 -22.32 52.36 -23 51 C-27.49304582 50.57496554 -27.49304582 50.57496554 -31 53 Z M-12 61 C-11 63 -11 63 -11 63 Z M-32 63 C-32.33 63.66 -32.66 64.32 -33 65 C-31.37719693 67.12498069 -31.37719693 67.12498069 -29 69 C-25.832168 69.33448259 -25.832168 69.33448259 -23 69 C-23 67.68 -23 66.36 -23 65 C-27.455 64.01 -27.455 64.01 -32 63 Z M-11 65 C-11 66.65 -11 68.3 -11 70 C-10.67 70 -10.34 70 -10 70 C-10 68.35 -10 66.7 -10 65 C-10.33 65 -10.66 65 -11 65 Z M24 68 C23.34 68.66 22.68 69.32 22 70 C24.475 70.495 24.475 70.495 27 71 C27 70.01 27 69.02 27 68 C26.01 68 25.02 68 24 68 Z M21 71 C22 74 22 74 22 74 Z M22 74 C22.66 74.66 23.32 75.32 24 76 C24.99 75.67 25.98 75.34 27 75 C25.35 74.67 23.7 74.34 22 74 Z " fill="#8EC141" transform="translate(370,238)"/>
<path d="M0 0 C2.63819107 1.41680632 4.58155966 2.99989056 6.625 5.1875 C5 11.9375 5 11.9375 1.625 14.1875 C-0.8125 14.625 -0.8125 14.625 -3.375 14.1875 C-4.75368281 12.55814759 -6.08774093 10.89000393 -7.375 9.1875 C-9.50446603 8.31784494 -9.50446603 8.31784494 -11.375 8.1875 C-11.375 8.8475 -11.375 9.5075 -11.375 10.1875 C-12.035 10.1875 -12.695 10.1875 -13.375 10.1875 C-13.375 14.4775 -13.375 18.7675 -13.375 23.1875 C-10.735 23.1875 -8.095 23.1875 -5.375 23.1875 C-4.715 21.5375 -4.055 19.8875 -3.375 18.1875 C-1.395 18.1875 0.585 18.1875 2.625 18.1875 C2.955 17.5275 3.285 16.8675 3.625 16.1875 C4.615 16.1875 5.605 16.1875 6.625 16.1875 C8.81277466 14.2499994 8.81277466 14.2499994 10.625 12.1875 C10.13 11.81625 9.635 11.445 9.125 11.0625 C7.625 9.1875 7.625 9.1875 7.0625 6.25 C7.625 3.1875 7.625 3.1875 10.375 0.875 C16.09683228 -2.09595137 22.35701726 -3.00032629 28.66015625 -1.24609375 C31.83910736 0.04303504 34.54889481 1.41935975 36.625 4.1875 C38.19887765 8.90913296 37.89212719 13.67936363 37.9375 18.625 C37.96650391 19.67494141 37.99550781 20.72488281 38.02539062 21.80664062 C38.03376953 22.81791016 38.04214844 23.82917969 38.05078125 24.87109375 C38.06536377 25.79462646 38.07994629 26.71815918 38.0949707 27.66967773 C37.47300878 31.00177814 36.30207517 32.16127471 33.625 34.1875 C31.52197266 34.68920898 31.52197266 34.68920898 29.2890625 34.68359375 C28.06316406 34.68456055 28.06316406 34.68456055 26.8125 34.68554688 C25.5440625 34.65557617 25.5440625 34.65557617 24.25 34.625 C22.99316406 34.63563477 22.99316406 34.63563477 21.7109375 34.64648438 C16.63213648 34.59457839 13.00311114 34.02363489 8.625 31.1875 C7.25 29 7.25 29 6.625 27.1875 C5.965 27.1875 5.305 27.1875 4.625 27.1875 C4.315625 28.0846875 4.315625 28.0846875 4 29 C1.96831555 32.23222526 0.23710496 32.92009475 -3.375 34.1875 C-9.60128513 34.87211382 -15.10064211 34.91814339 -20.375 31.1875 C-24.82380145 26.25774705 -25.54723376 23.54763013 -25.625 16.9375 C-25.65078125 15.63296875 -25.6765625 14.3284375 -25.703125 12.984375 C-25.35400636 8.94457364 -24.520266 6.60087885 -22.375 3.1875 C-15.45797342 -2.14437466 -8.07117307 -3.90877513 0 0 Z M16.625 8.1875 C16.625 8.8475 16.625 9.5075 16.625 10.1875 C19.595 10.1875 22.565 10.1875 25.625 10.1875 C24.635 9.1975 23.645 8.2075 22.625 7.1875 C19.57229537 7.02938612 19.57229537 7.02938612 16.625 8.1875 Z M16.625 20.1875 C17.12256092 22.94391416 17.12256092 22.94391416 18.625 25.1875 C20.62458364 25.22830783 22.62545254 25.23004356 24.625 25.1875 C25.285 23.8675 25.945 22.5475 26.625 21.1875 C24.74124325 18.86266215 24.74124325 18.86266215 21.625 19 C18.70113397 18.98670391 18.70113397 18.98670391 16.625 20.1875 Z " fill="#8DC142" transform="translate(124.375,281.8125)"/>
<path d="M0 0 C1.92972656 -0.00386719 1.92972656 -0.00386719 3.8984375 -0.0078125 C7.625 0.125 7.625 0.125 10.83203125 0.6640625 C13.46474116 1.09855169 15.3327272 1.07008739 17.9375 0.625 C19.154375 0.46 20.37125 0.295 21.625 0.125 C23.30355968 1.80355968 22.83295564 3.91543568 22.90625 6.21875 C22.96232422 7.76369141 22.96232422 7.76369141 23.01953125 9.33984375 C23.08984375 11.52994792 23.16015625 13.72005208 23.23046875 15.91015625 C23.28654297 17.45509766 23.28654297 17.45509766 23.34375 19.03125 C23.37404297 19.98322266 23.40433594 20.93519531 23.43554688 21.91601562 C23.38385402 24.09855315 23.38385402 24.09855315 24.625 25.125 C27.08292029 25.45843551 27.08292029 25.45843551 29.625 25.125 C31.69440485 22.02089272 31.87084325 21.30436416 31.8984375 17.78125 C31.9190625 16.94722656 31.9396875 16.11320312 31.9609375 15.25390625 C31.9869777 13.50140074 32.00520795 11.74876176 32.015625 9.99609375 C32.19329761 3.60975057 32.19329761 3.60975057 34.46875 1.0546875 C37.37730525 -0.1993635 39.49551486 -0.28319371 42.625 0.125 C45.80668318 4.89752477 44.72985871 9.98181836 44.51342773 15.57666016 C44.43778154 17.61740465 44.38878916 19.65763749 44.34179688 21.69921875 C44.27508789 23.62701172 44.27508789 23.62701172 44.20703125 25.59375 C44.16811768 26.77388672 44.1292041 27.95402344 44.08911133 29.16992188 C43.625 32.125 43.625 32.125 42.3112793 33.98632812 C39.58788739 35.82531753 36.84280526 35.8909778 33.625 36.125 C32.635 35.63 32.635 35.63 31.625 35.125 C30.635 35.455 29.645 35.785 28.625 36.125 C24.3767325 36.53868897 20.72416203 36.57900171 16.75 34.9375 C13.00107718 31.73988936 11.73395015 29.10073056 11.18359375 24.171875 C11.12963639 22.74003097 11.08955459 21.30760489 11.0625 19.875 C11.000478 17.26548168 10.85987343 14.72941931 10.625 12.125 C7.81584526 10.72042263 5.73689466 10.87604843 2.625 11.125 C0.29177305 11.93302834 0.29177305 11.93302834 -1.375 14.125 C-2.04509543 18.13173581 -1.83255648 22.20415659 -1.77539062 26.25390625 C-1.8066175 28.63082264 -1.87143739 30.80093102 -2.375 33.125 C-5.30003802 35.74084776 -6.77657164 36.0911267 -10.6875 36.3125 C-11.574375 36.250625 -12.46125 36.18875 -13.375 36.125 C-13.705 34.475 -14.035 32.825 -14.375 31.125 C-14.705 31.125 -15.035 31.125 -15.375 31.125 C-15.29395774 27.06169343 -15.18112566 22.99986939 -15.0625 18.9375 C-15.03994141 17.78701172 -15.01738281 16.63652344 -14.99414062 15.45117188 C-14.95869141 14.33935547 -14.92324219 13.22753906 -14.88671875 12.08203125 C-14.86053467 11.06085205 -14.83435059 10.03967285 -14.80737305 8.98754883 C-14.31429855 5.72312282 -13.30015405 3.78561956 -11.375 1.125 C-7.89502987 -0.49688653 -3.77160713 -0.00752816 0 0 Z " fill="#8DC045" transform="translate(281.375,279.875)"/>
<path d="M0 0 C0.44824219 1.80566406 0.44824219 1.80566406 0.546875 4.015625 C0.58756104 4.84489502 0.62824707 5.67416504 0.67016602 6.52856445 C0.69651123 7.42663818 0.72285645 8.32471191 0.75 9.25 C0.78601318 10.17063232 0.82202637 11.09126465 0.85913086 12.03979492 C1.18100343 22.37896993 0.65870734 32.68323902 0 43 C0.99 42.505 0.99 42.505 2 42 C6.08555854 41.48563112 10.21847627 41.07901268 13.95703125 43.01171875 C16.59384934 45.14811881 17.92211726 46.76635178 19 50 C19.27119383 53.5814804 19.44546294 57.16264729 19.62109375 60.75 C19.76709073 64.14313578 19.76709073 64.14313578 22 67 C23.134375 66.814375 24.26875 66.62875 25.4375 66.4375 C27.2009375 66.2209375 27.2009375 66.2209375 29 66 C30 67 30 67 30.09765625 69.28515625 C30.08605469 70.20167969 30.07445312 71.11820312 30.0625 72.0625 C30.05347656 72.98160156 30.04445313 73.90070313 30.03515625 74.84765625 C30.02355469 75.55792969 30.01195312 76.26820313 30 77 C27.23735711 77.59732819 24.83967231 78 22 78 C22 77.34 22 76.68 22 76 C21.34 76 20.68 76 20 76 C19.505 75.01 19.505 75.01 19 74 C18.649375 74.474375 18.29875 74.94875 17.9375 75.4375 C15.13343692 77.6988412 12.52551821 77.7388505 9 78 C7.28556781 76.28556781 7.76947033 73.99554759 7.68359375 71.65234375 C7.64169922 70.57275391 7.59980469 69.49316406 7.55664062 68.38085938 C7.51732422 67.24455078 7.47800781 66.10824219 7.4375 64.9375 C7.39431641 63.79732422 7.35113281 62.65714844 7.30664062 61.48242188 C7.20017161 58.65507805 7.09815793 55.82764262 7 53 C3.535 52.505 3.535 52.505 0 52 C-0.33 52.66 -0.66 53.32 -1 54 C-2.65 53.34 -4.3 52.68 -6 52 C-6.66 53.32 -7.32 54.64 -8 56 C-8.99 55.67 -9.98 55.34 -11 55 C-11.19573608 53.56359829 -11.38127816 52.12580496 -11.5625 50.6875 C-11.66691406 49.88699219 -11.77132813 49.08648437 -11.87890625 48.26171875 C-12 46 -12 46 -11 43 C-10.92899055 41.26825711 -10.91587613 39.53384448 -10.9375 37.80078125 C-10.94604004 36.76324707 -10.95458008 35.72571289 -10.96337891 34.65673828 C-10.97546387 33.55313965 -10.98754883 32.44954102 -11 31.3125 C-11.03807033 23.74085499 -11.05774967 16.186399 -10.625 8.625 C-10.55539062 7.40039062 -10.48578125 6.17578125 -10.4140625 4.9140625 C-10 2 -10 2 -8 -1 C-4.17406231 -2.27531256 -3.48011144 -2.32007429 0 0 Z M24 68 C23.34 68.66 22.68 69.32 22 70 C24.475 70.495 24.475 70.495 27 71 C27 70.01 27 69.02 27 68 C26.01 68 25.02 68 24 68 Z M21 71 C22 74 22 74 22 74 Z M22 74 C22.66 74.66 23.32 75.32 24 76 C24.99 75.67 25.98 75.34 27 75 C25.35 74.67 23.7 74.34 22 74 Z " fill="#91BD48" transform="translate(370,238)"/>
<path d="M0 0 C3.08497736 2.17689934 4.63554212 4.03049679 5.5 7.8125 C6.16 7.8125 6.82 7.8125 7.5 7.8125 C7.7610462 13.55551634 6.62687408 16.12218888 3.5 20.8125 C3.83 21.1425 4.16 21.4725 4.5 21.8125 C4.9375 25.125 4.9375 25.125 4.5 28.8125 C-0.63264055 33.24523502 -5.53658721 34.17366978 -12.1171875 34.09765625 C-16.86140826 33.52990524 -20.70627381 31.46537933 -24.19140625 28.25390625 C-26.23289988 24.44514947 -26.0527146 20.75664868 -26.0625 16.5 C-26.09923828 15.67048828 -26.13597656 14.84097656 -26.17382812 13.98632812 C-26.21462436 8.24312501 -25.00133648 5.28343688 -21.01245117 1.14355469 C-15.26454873 -3.91497059 -6.42737039 -3.72295771 0 0 Z M-11.6875 7.75 C-12.285625 8.100625 -12.88375 8.45125 -13.5 8.8125 C-11.74755753 10.4608633 -11.74755753 10.4608633 -9.5 11.8125 C-7.29199472 11.59532648 -7.29199472 11.59532648 -5.5 10.8125 C-5.83 9.8225 -6.16 8.8325 -6.5 7.8125 C-9.39186786 6.47945302 -9.39186786 6.47945302 -11.6875 7.75 Z M-14.5 19.8125 C-14.17 21.1325 -13.84 22.4525 -13.5 23.8125 C-10.53 24.3075 -10.53 24.3075 -7.5 24.8125 C-6.51 23.1625 -5.52 21.5125 -4.5 19.8125 C-7.8 19.8125 -11.1 19.8125 -14.5 19.8125 Z " fill="#8EBF45" transform="translate(226.5,282.1875)"/>
<path d="M0 0 C1.97373663 0.09469611 1.97373663 0.09469611 3.6875 -0.5 C8.63923193 -1.57064474 13.62312626 -1.72075935 18 1 C22.53207438 7.10119037 22.5527583 12.31221846 22.375 19.75 C22.37371094 20.79027344 22.37242187 21.83054687 22.37109375 22.90234375 C22.28173346 30.57739981 22.28173346 30.57739981 20 34 C17.8359375 34.51171875 17.8359375 34.51171875 15.375 34.6875 C14.55773437 34.75324219 13.74046875 34.81898438 12.8984375 34.88671875 C12.27195313 34.92410156 11.64546875 34.96148437 11 35 C9.56020277 29.4975191 9.98067219 23.96411046 10.12695312 18.33007812 C10.15647917 16.21983432 10.08534815 14.10872387 10 12 C9.34 11.34 8.68 10.68 8 10 C4.69316534 10.28983269 4.69316534 10.28983269 2 12 C1.79588517 15.52287081 1.65359392 19.03884316 1.5703125 22.56640625 C1.3801443 27.15421413 0.94233968 30.26047469 -2 34 C-4.73247348 35.36623674 -6.98198902 35.128426 -10 35 C-12.62185143 32.37814857 -11.27393883 25.08238397 -11.29516602 21.3269043 C-11.31234844 19.20620623 -11.35621292 17.08707988 -11.40039062 14.96679688 C-11.4105202 13.61719898 -11.41903548 12.2675878 -11.42578125 10.91796875 C-11.44036377 9.68844482 -11.45494629 8.4589209 -11.4699707 7.19213867 C-10.91429759 3.41789144 -9.96749563 2.30529009 -7 0 C-4.32147752 -1.33926124 -2.86420842 -0.64444689 0 0 Z " fill="#8CC141" transform="translate(176,281)"/>
<path d="M0 0 C1.75155539 3.17469414 0.62618182 6.34003721 0 9.8125 C-0.66 9.8125 -1.32 9.8125 -2 9.8125 C-2.33 10.4725 -2.66 11.1325 -3 11.8125 C-4.875 12.5625 -4.875 12.5625 -7 12.8125 C-10.0109362 10.8052092 -10.63016497 9.97365776 -12 6.8125 C-13.98 6.8125 -15.96 6.8125 -18 6.8125 C-18.02685938 8.95826637 -18.04633088 11.10412645 -18.0625 13.25 C-18.07410156 14.44496094 -18.08570313 15.63992188 -18.09765625 16.87109375 C-18.33901792 19.70123341 -18.33901792 19.70123341 -17 20.8125 C-14.62778044 21.31385199 -14.62778044 21.31385199 -12 20.8125 C-9.66369252 18.41390956 -9.66369252 18.41390956 -8 15.8125 C-2.25 16.6875 -2.25 16.6875 0 17.8125 C0 20.7825 0 23.7525 0 26.8125 C-0.66 26.8125 -1.32 26.8125 -2 26.8125 C-2.33 27.8025 -2.66 28.7925 -3 29.8125 C-8.6242023 32.55249599 -15.34961924 32.9513203 -21.31640625 31.08984375 C-25.70801475 29.09218758 -27.99409153 27.34681405 -30 22.8125 C-30.44986199 19.63693855 -30.464478 16.51552492 -30.4375 13.3125 C-30.45748047 12.47074219 -30.47746094 11.62898438 -30.49804688 10.76171875 C-30.4948185 6.66168409 -30.35501189 4.39005665 -28.16796875 0.83203125 C-19.82002064 -6.94434564 -9.11366563 -5.41123896 0 0 Z " fill="#8DBE47" transform="translate(265,284.1875)"/>
<path d="M0 0 C0.12375 0.928125 0.12375 0.928125 0.25 1.875 C0.80581505 4.14785979 0.80581505 4.14785979 2.875 5.1875 C4.56752155 5.83464059 6.28096593 6.42698864 8 7 C8.04898437 7.97582031 8.09796875 8.95164062 8.1484375 9.95703125 C8.22320312 11.22933594 8.29796875 12.50164062 8.375 13.8125 C8.44460938 15.07707031 8.51421875 16.34164063 8.5859375 17.64453125 C8.76102939 21.12755234 8.76102939 21.12755234 11 24 C12.134375 23.814375 13.26875 23.62875 14.4375 23.4375 C16.2009375 23.2209375 16.2009375 23.2209375 18 23 C19 24 19 24 19.09765625 26.28515625 C19.08605469 27.20167969 19.07445312 28.11820312 19.0625 29.0625 C19.05347656 29.98160156 19.04445313 30.90070313 19.03515625 31.84765625 C19.02355469 32.55792969 19.01195312 33.26820313 19 34 C16.23735711 34.59732819 13.83967231 35 11 35 C11 34.34 11 33.68 11 33 C10.34 33 9.68 33 9 33 C8.67 32.34 8.34 31.68 8 31 C7.62875 31.495 7.2575 31.99 6.875 32.5 C4.26211822 34.59030542 2.25915149 34.10598867 -1 34 C-1.79645684 25.31008699 -2.12852505 16.72542301 -2 8 C-4.00032373 6.99983813 -5.83125748 6.50603992 -8 6 C-8.33 4.68 -8.66 3.36 -9 2 C-5.5647952 -0.29013653 -4.014669 -0.17842973 0 0 Z M13 25 C12.34 25.66 11.68 26.32 11 27 C13.475 27.495 13.475 27.495 16 28 C16 27.01 16 26.02 16 25 C15.01 25 14.02 25 13 25 Z M10 28 C11 31 11 31 11 31 Z M11 31 C11.66 31.66 12.32 32.32 13 33 C13.99 32.67 14.98 32.34 16 32 C14.35 31.67 12.7 31.34 11 31 Z " fill="#8CC23F" transform="translate(381,281)"/>
<path d="M0 0 C0.66 0 1.32 0 2 0 C2 0.66 2 1.32 2 2 C3.97746603 2.73080266 5.98072489 3.39421747 8 4 C8.66 3.67 9.32 3.34 10 3 C11.99960012 2.960008 14.00047242 2.95653201 16 3 C16 3.66 16 4.32 16 5 C16.99 4.34 17.98 3.68 19 3 C21.04296875 2.8046875 21.04296875 2.8046875 23.1875 2.875 C25.0746875 2.936875 25.0746875 2.936875 27 3 C27.33 2.01 27.66 1.02 28 0 C28.99 0.33 29.98 0.66 31 1 C30.67 1.66 30.34 2.32 30 3 C30.66 3 31.32 3 32 3 C32.33 2.01 32.66 1.02 33 0 C33.495 1.485 33.495 1.485 34 3 C34.66 3 35.32 3 36 3 C36.33 2.01 36.66 1.02 37 0 C37.99 0 38.98 0 40 0 C40 0.99 40 1.98 40 3 C41.32 3 42.64 3 44 3 C45.10844919 6.32534757 44.84454356 8.62182575 44 12 C43.34 12 42.68 12 42 12 C41.505 9.03 41.505 9.03 41 6 C38.64214682 6.89335797 38.64214682 6.89335797 37.875 10.0625 C37.58625 11.031875 37.2975 12.00125 37 13 C34.69 12.34 32.38 11.68 30 11 C30 10.01 30 9.02 30 8 C29.67 9.32 29.34 10.64 29 12 C27.20866022 12.05391993 25.41686101 12.09275571 23.625 12.125 C22.62726563 12.14820313 21.62953125 12.17140625 20.6015625 12.1953125 C18 12 18 12 16 10 C15.34 10.66 14.68 11.32 14 12 C11 12.125 11 12.125 8 12 C7.34 12 6.68 12 6 12 C5.01 12 4.02 12 3 12 C3 10.02 3 8.04 3 6 C0.8614515 8.1385485 0.57344937 9.13275314 0 12 C-0.66 12 -1.32 12 -2 12 C-1.85962479 10.18706911 -1.71255111 8.3746557 -1.5625 6.5625 C-1.48128906 5.55316406 -1.40007812 4.54382813 -1.31640625 3.50390625 C-1 1 -1 1 0 0 Z M11 5 C10.67 5.66 10.34 6.32 10 7 C11.32 7 12.64 7 14 7 C13.67 6.34 13.34 5.68 13 5 C12.34 5 11.68 5 11 5 Z M20 5 C19.67 6.32 19.34 7.64 19 9 C19.99 9.33 20.98 9.66 22 10 C22 9.34 22 8.68 22 8 C22.66 8 23.32 8 24 8 C24 7.01 24 6.02 24 5 C22.68 5 21.36 5 20 5 Z M34 5 C33.67 6.32 33.34 7.64 33 9 C33.99 9.33 34.98 9.66 36 10 C36 8.35 36 6.7 36 5 C35.34 5 34.68 5 34 5 Z M16 6 C17 8 17 8 17 8 Z M9 8 C9.33 8.66 9.66 9.32 10 10 C11.32 9.67 12.64 9.34 14 9 C14 8.67 14 8.34 14 8 C12.35 8 10.7 8 9 8 Z " fill="#0B0B09" transform="translate(254,325)"/>
<path d="M0 0 C3 2 3 2 3.46411133 4.09130859 C3.5030249 4.93516113 3.54193848 5.77901367 3.58203125 6.6484375 C3.62650391 7.57140625 3.67097656 8.494375 3.71679688 9.4453125 C3.74837891 10.41210938 3.77996094 11.37890625 3.8125 12.375 C3.86341797 13.3340625 3.91433594 14.293125 3.96679688 15.28125 C4.15905841 19.96070027 4.17496462 22.81953477 2 27 C1.9222654 29.33203812 1.91032272 31.66839059 2 34 C-0.31 34.99 -2.62 35.98 -5 37 C-6 36 -6 36 -6.09765625 33.49609375 C-6.08605469 32.48675781 -6.07445312 31.47742188 -6.0625 30.4375 C-6.05347656 29.42558594 -6.04445313 28.41367187 -6.03515625 27.37109375 C-6.02355469 26.58863281 -6.01195312 25.80617188 -6 25 C-3.69 25 -1.38 25 1 25 C1 24.34 1 23.68 1 23 C-1.31 23 -3.62 23 -6 23 C-6.08076963 20.54101345 -6.14037143 18.08466258 -6.1875 15.625 C-6.21263672 14.92632812 -6.23777344 14.22765625 -6.26367188 13.5078125 C-6.29296875 11.4765625 -6.29296875 11.4765625 -6 8 C-5.01 7.34 -4.02 6.68 -3 6 C-2.27617533 3.94074861 -2.27617533 3.94074861 -2 2 C-1.34 2 -0.68 2 0 2 C0 1.34 0 0.68 0 0 Z " fill="#8BC041" transform="translate(367,236)"/>
<path d="M0 0 C-0.99 2.31 -1.98 4.62 -3 7 C-5 6 -5 6 -6 5 C-5.88494258 7.83404585 -5.75822275 10.66679619 -5.625 13.5 C-5.5940625 14.29148438 -5.563125 15.08296875 -5.53125 15.8984375 C-5.27091715 21.19187208 -4.38541334 25.88676764 -3 31 C-2.8125 33.9375 -2.8125 33.9375 -3 36 C-4 37 -4 37 -7.0625 37.0625 C-8.031875 37.041875 -9.00125 37.02125 -10 37 C-11.63272457 31.37701865 -13.14319613 25.72695374 -14.625 20.0625 C-14.85445312 19.18787109 -15.08390625 18.31324219 -15.3203125 17.41210938 C-15.88088764 15.27491664 -16.44076799 13.13754451 -17 11 C-16.01 11.33 -15.02 11.66 -14 12 C-14 12.99 -14 13.98 -14 15 C-10.13630558 11.32029103 -7.693986 8.41309081 -7 3 C-7 2.01 -7 1.02 -7 0 C-3.86650268 -1.04449911 -3.01031744 -0.93423645 0 0 Z " fill="#8DBB4C" transform="translate(252,237)"/>
<path d="M0 0 C0.33 0.66 0.66 1.32 1 2 C1.99 2.33 2.98 2.66 4 3 C4 3.66 4 4.32 4 5 C4.99 5 5.98 5 7 5 C9.1875 7.5 9.1875 7.5 11 10 C8.75 10.3125 8.75 10.3125 6 10 C4.62131719 8.37064759 3.28725907 6.70250393 2 5 C-0.12946603 4.13034494 -0.12946603 4.13034494 -2 4 C-2 4.66 -2 5.32 -2 6 C-2.66 6 -3.32 6 -4 6 C-4 10.29 -4 14.58 -4 19 C1.57836298 19.31622777 1.57836298 19.31622777 5 18 C4.67 19.65 4.34 21.3 4 23 C2.68 23.33 1.36 23.66 0 24 C-0.33 25.32 -0.66 26.64 -1 28 C4.445 27.01 4.445 27.01 10 26 C10 25.01 10 24.02 10 23 C10.66 23 11.32 23 12 23 C12.33 23.99 12.66 24.98 13 26 C7.30477217 30.51690483 2.06603082 30.55677893 -5 30 C-9.77800128 28.34941774 -12.11259538 26.10899888 -15 22 C-14.67 21.34 -14.34 20.68 -14 20 C-13.01 20.33 -12.02 20.66 -11 21 C-8.7296929 20.71471331 -8.7296929 20.71471331 -7 19 C-6.55038162 15.55667259 -6.4933592 12.31429134 -6.51171875 8.85351562 C-6.40220872 3.42281367 -6.40220872 3.42281367 -4.09375 0.99609375 C-2 0 -2 0 0 0 Z " fill="#8EBD49" transform="translate(115,286)"/>
<path d="M0 0 C2.00720923 0.28674418 4.0085944 0.61866701 6 1 C6 1.33 6 1.66 6 2 C4.35 2 2.7 2 1 2 C0.97534608 6.53897705 0.95716211 11.07791543 0.94506836 15.61694336 C0.9400286 17.16219766 0.9331968 18.70744716 0.92456055 20.25268555 C0.91247924 22.46925029 0.90676827 24.68575218 0.90234375 26.90234375 C0.89718246 27.5971434 0.89202118 28.29194305 0.88670349 29.00779724 C0.88650723 30.6722933 0.93810871 32.33665499 1 34 C1.33 34.33 1.66 34.66 2 35 C2.1004423 37.17391244 2.13081661 39.35111307 2.1328125 41.52734375 C2.13376923 42.19028946 2.13472595 42.85323517 2.13571167 43.53627014 C2.13639414 44.94776504 2.13453525 46.35926304 2.13037109 47.77075195 C2.12509947 49.8973735 2.13027371 52.02377637 2.13671875 54.15039062 C2.1399514 61.4817154 1.96164904 68.71972528 1 76 C-0.485 76.495 -0.485 76.495 -2 77 C-1.67 64.79 -1.34 52.58 -1 40 C-4.23570226 41 -4.23570226 41 -8 43 C-8 46.63 -8 50.26 -8 54 C-8.33 54 -8.66 54 -9 54 C-9.16808419 51.89594609 -9.33441948 49.79175242 -9.5 47.6875 C-9.5928125 46.51574219 -9.685625 45.34398437 -9.78125 44.13671875 C-9.92364989 42.094806 -10 40.0468721 -10 38 C-10.33 36.68 -10.66 35.36 -11 34 C-8.03 34 -5.06 34 -2 34 C-1.97494385 33.00556885 -1.9498877 32.0111377 -1.92407227 30.98657227 C-1.83015118 27.30951253 -1.72989381 23.6326485 -1.62768555 19.95581055 C-1.58427854 18.362107 -1.54260781 16.7683552 -1.50268555 15.17456055 C-1.44512193 12.88836092 -1.38138851 10.60240551 -1.31640625 8.31640625 C-1.29969376 7.59973282 -1.28298126 6.88305939 -1.26576233 6.14466858 C-1.11387171 1.11387171 -1.11387171 1.11387171 0 0 Z " fill="#97B861" transform="translate(254,157)"/>
<path d="M0 0 C1.2421875 1.65234375 1.2421875 1.65234375 1.31640625 3.6953125 C0.95833333 5.68098958 0.60026042 7.66666667 0.2421875 9.65234375 C-0.4178125 9.65234375 -1.0778125 9.65234375 -1.7578125 9.65234375 C-2.0878125 10.31234375 -2.4178125 10.97234375 -2.7578125 11.65234375 C-4.6328125 12.40234375 -4.6328125 12.40234375 -6.7578125 12.65234375 C-7.7478125 11.99234375 -8.7378125 11.33234375 -9.7578125 10.65234375 C-10.0878125 9.00234375 -10.4178125 7.35234375 -10.7578125 5.65234375 C-14.0578125 4.99234375 -17.3578125 4.33234375 -20.7578125 3.65234375 C-19.7578125 -1.34765625 -19.7578125 -1.34765625 -18.0703125 -2.59765625 C-11.21806542 -4.82000665 -5.83345637 -4.47231655 0 0 Z " fill="#8CC341" transform="translate(264.7578125,284.34765625)"/>
<path d="M0 0 C-3.75 3 -3.75 3 -6 3 C-6.33 4.65 -6.66 6.3 -7 8 C-4.525 8.99 -4.525 8.99 -2 10 C-1.42651383 13.51260277 -0.99649575 16.81077028 -1.0625 20.375 C-0.98654982 24.78011029 -0.08025885 28.74648078 1 33 C3.31 33 5.62 33 8 33 C7.67 33.66 7.34 34.32 7 35 C4.93359375 35.4140625 4.93359375 35.4140625 2.4375 35.625 C1.61121094 35.69976562 0.78492188 35.77453125 -0.06640625 35.8515625 C-0.70449219 35.90054688 -1.34257812 35.94953125 -2 36 C-3.43979723 30.4975191 -3.01932781 24.96411046 -2.87304688 19.33007812 C-2.84352083 17.21983432 -2.91465185 15.10872387 -3 13 C-3.66 12.34 -4.32 11.68 -5 11 C-8.30683466 11.28983269 -8.30683466 11.28983269 -11 13 C-11.23780046 16.55190842 -11.39593331 20.09692784 -11.51757812 23.65429688 C-11.84043115 30.73878874 -11.84043115 30.73878874 -14 34 C-15.19535402 29.82757068 -14.95650226 25.91429624 -14.6875 21.625 C-14.63432617 20.51125 -14.63432617 20.51125 -14.58007812 19.375 C-14.31630425 14.91840266 -13.52831499 11.2293778 -12 7 C-12 6.01 -12 5.02 -12 4 C-11.67 3.01 -11.34 2.02 -11 1 C-7.50970582 -0.47666292 -3.72563614 -0.07164685 0 0 Z " fill="#8EB053" transform="translate(189,280)"/>
<path d="M0 0 C0.80566406 0.01160156 1.61132812 0.02320313 2.44140625 0.03515625 C3.24449219 0.04417969 4.04757813 0.05320312 4.875 0.0625 C5.57753906 0.07410156 6.28007812 0.08570313 7.00390625 0.09765625 C8.67109367 0.09765625 10.33816416 0.04206217 12.00390625 -0.02734375 C15.00390625 0.09765625 15.00390625 0.09765625 17.00390625 2.09765625 C16.67419146 5.39480418 16.38122235 6.72034015 14.00390625 9.09765625 C11.22087706 9.30638344 9.5167242 9.35406523 7.00390625 8.09765625 C6.72546875 9.05671875 6.72546875 9.05671875 6.44140625 10.03515625 C5.00390625 12.09765625 5.00390625 12.09765625 1.37890625 12.84765625 C0.26515625 12.93015625 -0.84859375 13.01265625 -1.99609375 13.09765625 C-2.97857571 9.04491817 -3.15627257 5.26230551 -2.99609375 1.09765625 C-1.99609375 0.09765625 -1.99609375 0.09765625 0 0 Z M1.00390625 2.09765625 C0.34390625 3.41765625 -0.31609375 4.73765625 -0.99609375 6.09765625 C-0.00609375 6.42765625 0.98390625 6.75765625 2.00390625 7.09765625 C2.66390625 6.76765625 3.32390625 6.43765625 4.00390625 6.09765625 C3.67390625 4.77765625 3.34390625 3.45765625 3.00390625 2.09765625 C2.34390625 2.09765625 1.68390625 2.09765625 1.00390625 2.09765625 Z M13.00390625 2.09765625 C13.00390625 2.75765625 13.00390625 3.41765625 13.00390625 4.09765625 C11.68390625 4.09765625 10.36390625 4.09765625 9.00390625 4.09765625 C9.33390625 5.08765625 9.66390625 6.07765625 10.00390625 7.09765625 C10.99390625 7.09765625 11.98390625 7.09765625 13.00390625 7.09765625 C13.33390625 5.44765625 13.66390625 3.79765625 14.00390625 2.09765625 C13.67390625 2.09765625 13.34390625 2.09765625 13.00390625 2.09765625 Z M1.00390625 9.09765625 C0.67390625 9.75765625 0.34390625 10.41765625 0.00390625 11.09765625 C0.66390625 11.09765625 1.32390625 11.09765625 2.00390625 11.09765625 C1.67390625 10.43765625 1.34390625 9.77765625 1.00390625 9.09765625 Z " fill="#0B0B09" transform="translate(206.99609375,327.90234375)"/>
<path d="M0 0 C0.66 0.33 1.32 0.66 2 1 C2 1.66 2 2.32 2 3 C4.31 3.33 6.62 3.66 9 4 C9.33 3.01 9.66 2.02 10 1 C9.50873071 7.36559573 9.00344253 13.69264693 8 20 C9.32 20.33 10.64 20.66 12 21 C12 21.99 12 22.98 12 24 C16.26290179 23.52634425 18.21548958 21.07761678 21 18 C21.66 17.01 22.32 16.02 23 15 C23.66 15 24.32 15 25 15 C23.47925254 18.60047236 21.33755655 20.90006763 18.5625 23.625 C17.78003906 24.40101563 16.99757813 25.17703125 16.19140625 25.9765625 C14 28 14 28 11 30 C8.8125 29.625 8.8125 29.625 7 29 C5.98406552 22.11422188 6.16145265 15.90188971 7 9 C5.02 9 3.04 9 1 9 C-1.125 3.375 -1.125 3.375 0 0 Z " fill="#91BC4E" transform="translate(267,243)"/>
<path d="M0 0 C1.65 0 3.3 0 5 0 C5.66 1.32 6.32 2.64 7 4 C6.01 4.33 5.02 4.66 4 5 C4.66 5.33 5.32 5.66 6 6 C6 6.66 6 7.32 6 8 C8.31 8 10.62 8 13 8 C8.99965529 12.33370676 6.98216311 13.78402161 1.1953125 14.203125 C-9.43269231 14.36538462 -9.43269231 14.36538462 -14 11 C-15.375 8.8125 -15.375 8.8125 -16 7 C-12.9168649 8.19899698 -9.93720508 9.47700477 -7 11 C-3.87525373 9.36526484 -3.87525373 9.36526484 -3.3125 6.875 C-3.209375 6.25625 -3.10625 5.6375 -3 5 C-1.35 4.67 0.3 4.34 2 4 C2 3.34 2 2.68 2 2 C1.34 1.34 0.68 0.68 0 0 Z " fill="#8DBD4A" transform="translate(345,302)"/>
<path d="M0 0 C0.99 0 1.98 0 3 0 C3 0.99 3 1.98 3 3 C5.64 3 8.28 3 11 3 C11 5.64 11 8.28 11 11 C4.25 12.125 4.25 12.125 2 11 C2.33 9.02 2.66 7.04 3 5 C2.34 5 1.68 5 1 5 C0.67 7.31 0.34 9.62 0 12 C-1.98 12 -3.96 12 -6 12 C-5.67 9.03 -5.34 6.06 -5 3 C-4.34 3 -3.68 3 -3 3 C-3 5.31 -3 7.62 -3 10 C-2.86722656 9.36191406 -2.73445313 8.72382813 -2.59765625 8.06640625 C-2.42105469 7.24011719 -2.24445313 6.41382813 -2.0625 5.5625 C-1.88847656 4.73878906 -1.71445312 3.91507812 -1.53515625 3.06640625 C-1 1 -1 1 0 0 Z M6 5 C6 5.66 6 6.32 6 7 C6.66 6.67 7.32 6.34 8 6 C7.34 5.67 6.68 5.34 6 5 Z M6 8 C6.66 8.66 7.32 9.32 8 10 C8.33 9.34 8.66 8.68 9 8 C8.01 8 7.02 8 6 8 Z " fill="#080908" transform="translate(321,325)"/>
<path d="M0 0 C0.06058594 1.04800781 0.12117187 2.09601563 0.18359375 3.17578125 C0.26801738 4.55470048 0.35266447 5.93360605 0.4375 7.3125 C0.47681641 8.00279297 0.51613281 8.69308594 0.55664062 9.40429688 C0.74927415 12.47161535 1.02322717 15.06968152 2 18 C2.07029121 20.57265818 2.09370832 23.11641431 2.0625 25.6875 C2.05798828 26.38939453 2.05347656 27.09128906 2.04882812 27.81445312 C2.03706927 29.54300538 2.01913454 31.27151365 2 33 C0.68 33 -0.64 33 -2 33 C-2 30.36 -2 27.72 -2 25 C-2.66 25 -3.32 25 -4 25 C-4.125 22.125 -4.125 22.125 -4 19 C-3.34 18.34 -2.68 17.68 -2 17 C-1.85492305 14.25514407 -1.81347577 11.61519457 -1.875 8.875 C-1.88853516 7.74384766 -1.88853516 7.74384766 -1.90234375 6.58984375 C-1.9259313 4.72642746 -1.96180281 2.86317407 -2 1 C-5.63 1 -9.26 1 -13 1 C-13 0.67 -13 0.34 -13 0 C-11.58456585 -0.19658808 -10.16755969 -0.38187546 -8.75 -0.5625 C-7.96109375 -0.66691406 -7.1721875 -0.77132812 -6.359375 -0.87890625 C-3.99467126 -1.00027349 -2.2488963 -0.69633257 0 0 Z " fill="#95BC51" transform="translate(246,157)"/>
<path d="M0 0 C0 0.66 0 1.32 0 2 C0.33 1.34 0.66 0.68 1 0 C3.33294775 -0.04241723 5.66702567 -0.04092937 8 0 C8.33 0.33 8.66 0.66 9 1 C8.82364548 3.69082872 8.38164079 6.32851446 8 9 C6.68 8.34 5.36 7.68 4 7 C4.66 5.68 5.32 4.36 6 3 C5.34 3 4.68 3 4 3 C3.34 4.98 2.68 6.96 2 9 C1.360625 8.814375 0.72125 8.62875 0.0625 8.4375 C-0.9584375 8.2209375 -0.9584375 8.2209375 -2 8 C-2.33 8.33 -2.66 8.66 -3 9 C-5.4375 9.1875 -5.4375 9.1875 -8 9 C-8.66 8.34 -9.32 7.68 -10 7 C-9.75 3.9375 -9.75 3.9375 -9 1 C-6.04335481 -0.4783226 -3.25770263 -0.06032783 0 0 Z M-6 2 C-6.33 2.99 -6.66 3.98 -7 5 C-6.67 5.66 -6.34 6.32 -6 7 C-5.34 7 -4.68 7 -4 7 C-3.34 5.68 -2.68 4.36 -2 3 C-3.32 2.67 -4.64 2.34 -6 2 Z M-1 5 C0 7 0 7 0 7 Z " fill="#090908" transform="translate(238,328)"/>
<path d="M0 0 C0.33 1.65 0.66 3.3 1 5 C-0.98 5.99 -0.98 5.99 -3 7 C-3 6.01 -3 5.02 -3 4 C-4.98 4 -6.96 4 -9 4 C-9 13.24 -9 22.48 -9 32 C-8.01 32.33 -7.02 32.66 -6 33 C-6 33.66 -6 34.32 -6 35 C-7.65 34.67 -9.3 34.34 -11 34 C-11.09907258 29.80084693 -11.17156173 25.60231748 -11.21972656 21.40234375 C-11.23980982 19.97448879 -11.26708252 18.54671575 -11.30175781 17.11914062 C-11.35042669 15.06359632 -11.37299967 13.00914145 -11.390625 10.953125 C-11.41157227 9.71723633 -11.43251953 8.48134766 -11.45410156 7.20800781 C-10.91713917 3.41462835 -9.98212544 2.31111256 -7 0 C-4.3333581 -1.33332095 -2.83319697 -0.67102033 0 0 Z " fill="#93B85C" transform="translate(176,281)"/>
<path d="M0 0 C0.66 0.66 1.32 1.32 2 2 C1.625 4.625 1.625 4.625 1 7 C2.32 7.33 3.64 7.66 5 8 C5.19412181 9.47831221 5.38012131 10.95769316 5.5625 12.4375 C5.66691406 13.26121094 5.77132812 14.08492188 5.87890625 14.93359375 C5.91886719 15.61550781 5.95882812 16.29742187 6 17 C5 18 5 18 1.9375 18.0625 C0.968125 18.041875 -0.00125 18.02125 -1 18 C-2.02886361 14.59240374 -2.16568934 11.4257762 -2.1875 7.875 C-2.20167969 6.82054687 -2.21585938 5.76609375 -2.23046875 4.6796875 C-2 2 -2 2 0 0 Z " fill="#8CC241" transform="translate(243,256)"/>
<path d="M0 0 C5.4389165 -0.21755666 9.87080814 -0.10428384 15 2 C15 5.3 15 8.6 15 12 C13.35 12.33 11.7 12.66 10 13 C9.34 12.01 8.68 11.02 8 10 C4.93443402 9.26656572 4.93443402 9.26656572 2 9 C2 8.01 2 7.02 2 6 C5.05847848 5.45627049 7.88772805 5 11 5 C10.01 4.34 9.02 3.68 8 3 C8 2.34 8 1.68 8 1 C5.36 1.33 2.72 1.66 0 2 C0 1.34 0 0.68 0 0 Z " fill="#8ABD47" transform="translate(339,280)"/>
<path d="M0 0 C0.99 1.485 0.99 1.485 2 3 C3.134375 2.814375 4.26875 2.62875 5.4375 2.4375 C7.2009375 2.2209375 7.2009375 2.2209375 9 2 C10 3 10 3 10.09765625 5.28515625 C10.08605469 6.20167969 10.07445312 7.11820312 10.0625 8.0625 C10.05347656 8.98160156 10.04445313 9.90070313 10.03515625 10.84765625 C10.02355469 11.55792969 10.01195312 12.26820313 10 13 C7.23735711 13.59732819 4.83967231 14 2 14 C2 13.34 2 12.68 2 12 C1.34 12 0.68 12 0 12 C0 8.04 0 4.08 0 0 Z M4 4 C3.34 4.66 2.68 5.32 2 6 C4.475 6.495 4.475 6.495 7 7 C7 6.01 7 5.02 7 4 C6.01 4 5.02 4 4 4 Z M1 7 C2 10 2 10 2 10 Z M2 10 C2.66 10.66 3.32 11.32 4 12 C4.99 11.67 5.98 11.34 7 11 C5.35 10.67 3.7 10.34 2 10 Z " fill="#1E301B" transform="translate(390,302)"/>
<path d="M0 0 C2.625 -0.1875 2.625 -0.1875 5 0 C4.01 0.495 4.01 0.495 3 1 C2.34786708 3.02463255 2.34786708 3.02463255 2 5 C2.66 5.33 3.32 5.66 4 6 C2.35 6.33 0.7 6.66 -1 7 C-1 11.95 -1 16.9 -1 22 C1.31 22 3.62 22 6 22 C6 22.66 6 23.32 6 24 C3.69 24 1.38 24 -1 24 C-1 29.94 -1 35.88 -1 42 C-1.33 42 -1.66 42 -2 42 C-4.07981135 6.11971703 -4.07981135 6.11971703 0 0 Z " fill="#98BF58" transform="translate(362,237)"/>
<path d="M0 0 C0.33 1.32 0.66 2.64 1 4 C1.99 3.67 2.98 3.34 4 3 C6.1875 3.4375 6.1875 3.4375 8 4 C7 7 7 7 5 8 C1.92307667 8.26428545 -1.16298056 8.23154248 -4.25 8.25 C-5.09691406 8.270625 -5.94382813 8.29125 -6.81640625 8.3125 C-11.93517225 8.34434302 -15.62812818 7.97955595 -20 5 C-20.33 4.01 -20.66 3.02 -21 2 C-20.14728516 2.30744141 -20.14728516 2.30744141 -19.27734375 2.62109375 C-10.76351939 5.78614909 -10.76351939 5.78614909 -2 5 C-0.78130071 2.49552484 -0.78130071 2.49552484 0 0 Z " fill="#8EAD52" transform="translate(153,308)"/>
<path d="M0 0 C2.64 0 5.28 0 8 0 C7.67 0.66 7.34 1.32 7 2 C6.34 2 5.68 2 5 2 C5.66 2.66 6.32 3.32 7 4 C7.33 4.66 7.66 5.32 8 6 C7.67 6.66 7.34 7.32 7 8 C7.99 8 8.98 8 10 8 C10.625 10.875 10.625 10.875 11 14 C9 16 9 16 7.0546875 16.1953125 C5.03645833 16.13020833 3.01822917 16.06510417 1 16 C1.33 15.34 1.66 14.68 2 14 C3.98 14 5.96 14 8 14 C8 12.68 8 11.36 8 10 C5.03 10 2.06 10 -1 10 C-0.04065919 6.16263678 0.23609263 5.40339772 3 3 C2.01 2.01 1.02 1.02 0 0 Z " fill="#8CB74F" transform="translate(141,292)"/>
<path d="M0 0 C0.33 0.66 0.66 1.32 1 2 C1.99 2.33 2.98 2.66 4 3 C4 3.66 4 4.32 4 5 C4.99 5 5.98 5 7 5 C9.1875 7.5 9.1875 7.5 11 10 C8.75 10.3125 8.75 10.3125 6 10 C4.62131719 8.37064759 3.28725907 6.70250393 2 5 C-0.12946603 4.13034494 -0.12946603 4.13034494 -2 4 C-2 4.66 -2 5.32 -2 6 C-2.66 6 -3.32 6 -4 6 C-4 10.29 -4 14.58 -4 19 C-4.66 18.67 -5.32 18.34 -6 18 C-6.1079859 15.56131832 -6.18726589 13.12740867 -6.25 10.6875 C-6.28351563 9.99720703 -6.31703125 9.30691406 -6.3515625 8.59570312 C-6.45057158 3.47198304 -6.45057158 3.47198304 -4.109375 1.01953125 C-2 0 -2 0 0 0 Z " fill="#8CBA55" transform="translate(115,286)"/>
<path d="M0 0 C0.99 0.33 1.98 0.66 3 1 C3.33 4.63 3.66 8.26 4 12 C5.65 12.33 7.3 12.66 9 13 C9.33 10.03 9.66 7.06 10 4 C10.33 4 10.66 4 11 4 C11 7.63 11 11.26 11 15 C8.04335481 16.4783226 5.25770263 16.06032783 2 16 C0.00214565 11.8794254 -0.17835515 8.54805635 0 4 C-0.66 4 -1.32 4 -2 4 C-1.34 2.68 -0.68 1.36 0 0 Z " fill="#95B343" transform="translate(359,300)"/>
<path d="M0 0 C0.33 0 0.66 0 1 0 C1.89073531 23.93337265 1.89073531 23.93337265 -3 35 C-3.99 35.495 -3.99 35.495 -5 36 C-5.495 34.515 -5.495 34.515 -6 33 C-6.66 32.67 -7.32 32.34 -8 32 C-7.8125 29.625 -7.8125 29.625 -7 27 C-5.33333333 26.33333333 -3.66666667 25.66666667 -2 25 C-1.08041971 21.736848 -0.83606749 18.51292297 -0.68359375 15.13671875 C-0.64169922 14.25048828 -0.59980469 13.36425781 -0.55664062 12.45117188 C-0.51732422 11.53916016 -0.47800781 10.62714844 -0.4375 9.6875 C-0.39431641 8.75615234 -0.35113281 7.82480469 -0.30664062 6.86523438 C-0.20102775 4.57695546 -0.09892248 2.28857628 0 0 Z " fill="#91B951" transform="translate(305,209)"/>
<path d="M0 0 C0.33 0 0.66 0 1 0 C1.33 2.97 1.66 5.94 2 9 C1.34 9 0.68 9 0 9 C0.7763932 12.0745356 0.7763932 12.0745356 3 14 C2.34 14.66 1.68 15.32 1 16 C0.46375 15.54625 -0.0725 15.0925 -0.625 14.625 C-3.31698302 12.78311688 -5.88520388 11.92028067 -9 11 C-8.67 10.34 -8.34 9.68 -8 9 C-7.34 9 -6.68 9 -6 9 C-6 8.34 -6 7.68 -6 7 C-6.66 7 -7.32 7 -8 7 C-8 6.34 -8 5.68 -8 5 C-4.535 4.505 -4.535 4.505 -1 4 C-0.67 2.68 -0.34 1.36 0 0 Z " fill="#8DC249" transform="translate(243,182)"/>
<path d="M0 0 C0.33 0 0.66 0 1 0 C1.22346404 2.85369619 1.42913552 5.70688498 1.625 8.5625 C1.68945312 9.36236328 1.75390625 10.16222656 1.8203125 10.98632812 C2.15628755 16.13094615 1.95919441 20.19049372 0 25 C-0.99 25.33 -1.98 25.66 -3 26 C-3 25.34 -3 24.68 -3 24 C-2.34 24 -1.68 24 -1 24 C-1.37125 23.0925 -1.7425 22.185 -2.125 21.25 C-3 18 -3 18 -2.125 15.625 C-1.75375 15.08875 -1.3825 14.5525 -1 14 C-1.66 13.67 -2.32 13.34 -3 13 C-2.69240822 11.02006459 -2.3787932 9.04106401 -2.0625 7.0625 C-1.88847656 5.96035156 -1.71445312 4.85820312 -1.53515625 3.72265625 C-1 1 -1 1 0 0 Z " fill="#8FB654" transform="translate(388,289)"/>
<path d="M0 0 C2.38022734 0.57702481 3.75956679 0.24022853 6.0625 -0.5 C6.0625 0.82 6.0625 2.14 6.0625 3.5 C5.4025 3.5 4.7425 3.5 4.0625 3.5 C4.0625 4.49 4.0625 5.48 4.0625 6.5 C2.7425 6.17 1.4225 5.84 0.0625 5.5 C0.3925 4.84 0.7225 4.18 1.0625 3.5 C0.4025 3.17 -0.2575 2.84 -0.9375 2.5 C-0.9375 4.15 -0.9375 5.8 -0.9375 7.5 C-2.2575 7.5 -3.5775 7.5 -4.9375 7.5 C-6.0625 2.75 -6.0625 2.75 -4.9375 0.5 C-1.9375 -0.5 -1.9375 -0.5 0 0 Z " fill="#8BC13D" transform="translate(286.9375,281.5)"/>
<path d="M0 0 C2.04348237 3.39863383 2.29835885 6.14420103 2.4140625 10.078125 C2.45273437 11.23828125 2.49140625 12.3984375 2.53125 13.59375 C2.5621875 14.8003125 2.593125 16.006875 2.625 17.25 C2.66367187 18.47203125 2.70234375 19.6940625 2.7421875 20.953125 C2.83642108 23.9685994 2.92203455 26.98406828 3 30 C1.07686508 28.39014893 0.09759583 27.47362011 -0.41650391 24.97875977 C-0.43632324 24.22393311 -0.45614258 23.46910645 -0.4765625 22.69140625 C-0.5075 21.86189453 -0.5384375 21.03238281 -0.5703125 20.17773438 C-0.58835937 19.31470703 -0.60640625 18.45167969 -0.625 17.5625 C-0.67622696 15.8553614 -0.73079705 14.14831912 -0.7890625 12.44140625 C-0.81540771 11.30747437 -0.81540771 11.30747437 -0.84228516 10.15063477 C-1.00023289 7.99682431 -1.41366304 6.07452719 -2 4 C-1.34 4 -0.68 4 0 4 C0 2.68 0 1.36 0 0 Z " fill="#91B456" transform="translate(293,281)"/>
<path d="M0 0 C0.94875 0.04125 1.8975 0.0825 2.875 0.125 C3.79554342 3.13768757 4.15361489 4.55229162 2.75 7.4375 C0.875 9.125 0.875 9.125 -1.6875 9.5 C-4.125 9.125 -4.125 9.125 -6.125 7.125 C-5.66604657 2.53546569 -4.9886353 0.19954541 0 0 Z M-2.125 2.125 C-2.125 2.785 -2.125 3.445 -2.125 4.125 C-1.135 4.125 -0.145 4.125 0.875 4.125 C0.875 3.465 0.875 2.805 0.875 2.125 C-0.115 2.125 -1.105 2.125 -2.125 2.125 Z M-4.125 5.125 C-3.795 5.785 -3.465 6.445 -3.125 7.125 C-1.805 6.795 -0.485 6.465 0.875 6.125 C0.875 5.795 0.875 5.465 0.875 5.125 C-0.775 5.125 -2.425 5.125 -4.125 5.125 Z " fill="#060606" transform="translate(180.125,327.875)"/>
<path d="M0 0 C0 2.97 0 5.94 0 9 C-1.65 9 -3.3 9 -5 9 C-5 8.01 -5 7.02 -5 6 C-6.32 6 -7.64 6 -9 6 C-8.375 4.125 -8.375 4.125 -7 2 C-2.1 0 -2.1 0 0 0 Z " fill="#8CC140" transform="translate(265,302)"/>
<path d="M0 0 C0.99 0 1.98 0 3 0 C3 1.32 3 2.64 3 4 C3.66 4 4.32 4 5 4 C5 3.01 5 2.02 5 1 C6.32 0.67 7.64 0.34 9 0 C7.39516194 4.66861981 5.02509806 9.09258167 2 13 C1.34 13 0.68 13 0 13 C0.185625 11.783125 0.37125 10.56625 0.5625 9.3125 C0.98993182 5.97022061 0.92258883 3.28031583 0 0 Z " fill="#0E0E0E" transform="translate(299,328)"/>
<path d="M0 0 C0.99 0.99 1.98 1.98 3 3 C3.66 2.01 4.32 1.02 5 0 C5.33 1.98 5.66 3.96 6 6 C7.65 6.33 9.3 6.66 11 7 C10.67 8.65 10.34 10.3 10 12 C9.01 12.33 8.02 12.66 7 13 C6.67 12.34 6.34 11.68 6 11 C6.66 11 7.32 11 8 11 C7.67 10.34 7.34 9.68 7 9 C6.34 9 5.68 9 5 9 C4.67 9.99 4.34 10.98 4 12 C3.34 12 2.68 12 2 12 C1.34 8.04 0.68 4.08 0 0 Z " fill="#A5C742" transform="translate(221,235)"/>
<path d="M0 0 C0.33 0 0.66 0 1 0 C1.33848652 1.89492006 1.67056911 3.79098466 2 5.6875 C2.185625 6.74324219 2.37125 7.79898438 2.5625 8.88671875 C2.95068074 11.64904062 3.08259976 14.21742043 3 17 C2.01 17.33 1.02 17.66 0 18 C0 16.35 0 14.7 0 13 C-0.66 13 -1.32 13 -2 13 C-2.16682272 8.07872966 -2.24828052 4.49656104 0 0 Z " fill="#8EBE4E" transform="translate(244,204)"/>
<path d="M0 0 C2.475 0.99 2.475 0.99 5 2 C5 1.34 5 0.68 5 0 C5.99 0.33 6.98 0.66 8 1 C7.34 2.32 6.68 3.64 6 5 C4.35 5 2.7 5 1 5 C1.33 7.31 1.66 9.62 2 12 C0.68 11.67 -0.64 11.34 -2 11 C-2.25 3.375 -2.25 3.375 0 0 Z " fill="#090906" transform="translate(186,325)"/>
<path d="M0 0 C0.928125 0.20625 1.85625 0.4125 2.8125 0.625 C2.1525 3.595 1.4925 6.565 0.8125 9.625 C-0.1775 9.295 -1.1675 8.965 -2.1875 8.625 C-1.8575 7.635 -1.5275 6.645 -1.1875 5.625 C-2.5075 5.625 -3.8275 5.625 -5.1875 5.625 C-5.5175 4.305 -5.8475 2.985 -6.1875 1.625 C-3.1875 -0.375 -3.1875 -0.375 0 0 Z " fill="#8EC43A" transform="translate(273.1875,284.375)"/>
<path d="M0 0 C0 3.63 0 7.26 0 11 C-0.99 11.33 -1.98 11.66 -3 12 C-3.33 12.66 -3.66 13.32 -4 14 C-4 9.71 -4 5.42 -4 1 C-2 0 -2 0 0 0 Z " fill="#9AC161" transform="translate(248,222)"/>
<path d="M0 0 C1.98 0 3.96 0 6 0 C6 3.27427197 5.84181413 5.84319701 5 9 C3.35 9 1.7 9 0 9 C-0.33 8.01 -0.66 7.02 -1 6 C-0.01 6 0.98 6 2 6 C1.34 5.67 0.68 5.34 0 5 C0 3.35 0 1.7 0 0 Z " fill="#0B0B09" transform="translate(193,328)"/>
<path d="M0 0 C0.33 1.65 0.66 3.3 1 5 C-0.98 5.99 -0.98 5.99 -3 7 C-3 6.01 -3 5.02 -3 4 C-4.98 4 -6.96 4 -9 4 C-9.33 5.32 -9.66 6.64 -10 8 C-10.3125 5.1875 -10.3125 5.1875 -10 2 C-6.55956398 -1.04724333 -4.32846371 -1.36037431 0 0 Z " fill="#91BB4D" transform="translate(176,281)"/>
<path d="M0 0 C4.37163047 0.49961491 7.04136665 1.69329214 10 5 C9.8125 8.75 9.8125 8.75 9 12 C8.34 11.67 7.68 11.34 7 11 C6.375 8.4375 6.375 8.4375 6 6 C4.02 5.34 2.04 4.68 0 4 C0 2.68 0 1.36 0 0 Z " fill="#90BB49" transform="translate(256,281)"/>
<path d="M0 0 C0.33 0 0.66 0 1 0 C1.6888091 9.13466832 2.30192693 17.88651147 1 27 C0.01 27.33 -0.98 27.66 -2 28 C-1.84660156 27.24460938 -1.69320312 26.48921875 -1.53515625 25.7109375 C-0.8112152 20.6909083 -0.63680847 15.68939556 -0.4375 10.625 C-0.39431641 9.60277344 -0.35113281 8.58054688 -0.30664062 7.52734375 C-0.20112208 5.01834712 -0.09900787 2.50926057 0 0 Z " fill="#97C052" transform="translate(254,206)"/>
<path d="M0 0 C0.99 1.485 0.99 1.485 2 3 C3.65 2.67 5.3 2.34 7 2 C7 2.66 7 3.32 7 4 C6.01 4.33 5.02 4.66 4 5 C4.66 6.32 5.32 7.64 6 9 C4.02 9.99 2.04 10.98 0 12 C0 8.04 0 4.08 0 0 Z M1 7 C2 10 2 10 2 10 Z " fill="#406D32" transform="translate(390,302)"/>
<path d="M0 0 C7.81636537 1.91722169 7.81636537 1.91722169 10 5 C10 5.66 10 6.32 10 7 C7.69 7 5.38 7 3 7 C3.33 6.34 3.66 5.68 4 5 C2.35 5 0.7 5 -1 5 C-0.34 4.67 0.32 4.34 1 4 C0.67 2.68 0.34 1.36 0 0 Z " fill="#88C13D" transform="translate(209,294)"/>
<path d="M0 0 C-0.99 2.31 -1.98 4.62 -3 7 C-5 6 -5 6 -6 5 C-6.33 6.32 -6.66 7.64 -7 9 C-7.8252404 5.69903842 -8.37001429 3.1967 -7 0 C-3.86650268 -1.04449911 -3.01031744 -0.93423645 0 0 Z " fill="#95B052" transform="translate(252,237)"/>
<path d="M0 0 C0.33 1.32 0.66 2.64 1 4 C1.99 3.67 2.98 3.34 4 3 C6.1875 3.4375 6.1875 3.4375 8 4 C7 7 7 7 5 8 C3.00039988 8.039992 0.99952758 8.04346799 -1 8 C-2.2077558 4.37673261 -1.54311128 3.35853631 0 0 Z " fill="#96BE51" transform="translate(153,308)"/>
<path d="M0 0 C0.66 1.32 1.32 2.64 2 4 C3.65 3.67 5.3 3.34 7 3 C6.67 3.66 6.34 4.32 6 5 C2.9375 5.625 2.9375 5.625 0 6 C0 6.66 0 7.32 0 8 C-1.32 7.67 -2.64 7.34 -4 7 C-3.6875 4.625 -3.6875 4.625 -3 2 C-2.01 1.34 -1.02 0.68 0 0 Z " fill="#92C63E" transform="translate(271,305)"/>
<path d="M0 0 C2.33944736 0.28730055 4.6739143 0.61936779 7 1 C6.34 2.65 5.68 4.3 5 6 C3.35 6 1.7 6 0 6 C-0.38218767 4.34385343 -0.71395102 2.67542976 -1 1 C-0.67 0.67 -0.34 0.34 0 0 Z " fill="#8FBD45" transform="translate(121,300)"/>
<path d="M0 0 C0.99 0 1.98 0 3 0 C3.33 2.31 3.66 4.62 4 7 C2.35 7.33 0.7 7.66 -1 8 C-1.625 5.125 -1.625 5.125 -2 2 C-1.34 1.34 -0.68 0.68 0 0 Z " fill="#A3C458" transform="translate(245,266)"/>
<path d="M0 0 C0.66 0.33 1.32 0.66 2 1 C1.67 3.64 1.34 6.28 1 9 C1.99 9.33 2.98 9.66 4 10 C4 10.66 4 11.32 4 12 C2.02 12 0.04 12 -2 12 C-1.85904936 10.3745692 -1.71207913 8.74965949 -1.5625 7.125 C-1.48128906 6.22007812 -1.40007812 5.31515625 -1.31640625 4.3828125 C-1 2 -1 2 0 0 Z " fill="#070707" transform="translate(170,325)"/>
<path d="M0 0 C1.65 1.65 3.3 3.3 5 5 C2.63707344 7.52588702 1.33537489 8.88820837 -2 10 C-2 7.36 -2 4.72 -2 2 C-1.34 2 -0.68 2 0 2 C0 1.34 0 0.68 0 0 Z " fill="#95C639" transform="translate(140,290)"/>
<path d="M0 0 C0.66 0 1.32 0 2 0 C4 3 4 3 4 7 C3.0925 6.690625 2.185 6.38125 1.25 6.0625 C-1.16563338 5.2727737 -3.52780285 4.57050703 -6 4 C-5.34 3.34 -4.68 2.68 -4 2 C-2.68 2 -1.36 2 0 2 C0 1.34 0 0.68 0 0 Z " fill="#8AB94D" transform="translate(219,285)"/>
<path d="M0 0 C3.51180785 2.34120524 4.14690815 4.29381631 6 8 C6.99 8.66 7.98 9.32 9 10 C10.1875 13.625 10.1875 13.625 11 17 C5.8821104 12.32078665 1.42142283 6.93716141 0 0 Z " fill="#94B659" transform="translate(187,243)"/>
<path d="M0 0 C0.66 0.33 1.32 0.66 2 1 C2 1.66 2 2.32 2 3 C3.32 3 4.64 3 6 3 C5.67 4.65 5.34 6.3 5 8 C3.68 8.33 2.36 8.66 1 9 C-1.125 3.375 -1.125 3.375 0 0 Z " fill="#90AF4F" transform="translate(267,243)"/>
<path d="M0 0 C2.00720923 0.28674418 4.0085944 0.61866701 6 1 C6 1.33 6 1.66 6 2 C4.35 2 2.7 2 1 2 C1 7.94 1 13.88 1 20 C0.67 20 0.34 20 0 20 C-0.19594676 16.85463232 -0.3803401 13.70869386 -0.5625 10.5625 C-0.61857422 9.66466797 -0.67464844 8.76683594 -0.73242188 7.84179688 C-0.78076172 6.98779297 -0.82910156 6.13378906 -0.87890625 5.25390625 C-0.9260376 4.46314697 -0.97316895 3.6723877 -1.02172852 2.85766602 C-1 1 -1 1 0 0 Z " fill="#92B656" transform="translate(254,157)"/>
<path d="M0 0 C1.98 0 3.96 0 6 0 C6 0.66 6 1.32 6 2 C4.68 2 3.36 2 2 2 C1.67 5.3 1.34 8.6 1 12 C0.34 12 -0.32 12 -1 12 C-1.08159574 7.83861737 -0.98248524 4.0527516 0 0 Z " fill="#0B0B09" transform="translate(313,325)"/>
<path d="M0 0 C0.66 0.66 1.32 1.32 2 2 C1.67 2.66 1.34 3.32 1 4 C2.423125 4.4640625 2.423125 4.4640625 3.875 4.9375 C7 6 7 6 9 7 C10.53668865 7.22467831 12.07968054 7.40796805 13.625 7.5625 C14.85089844 7.68818359 14.85089844 7.68818359 16.1015625 7.81640625 C16.72804687 7.87699219 17.35453125 7.93757813 18 8 C18 8.33 18 8.66 18 9 C11.28912553 9.49506451 5.49908699 9.29302091 0 5 C-0.33 4.01 -0.66 3.02 -1 2 C-0.67 1.34 -0.34 0.68 0 0 Z " fill="#92B75B" transform="translate(238,307)"/>
<path d="M0 0 C1.953125 0.55338542 3.90625 1.10677083 5.859375 1.66015625 C8.21958796 2.03486159 9.74419051 1.72653324 12 1 C10 4 10 4 6.6875 4.75 C3.45451235 4.9691856 1.09658215 4.8445224 -2 4 C-1.34 2.68 -0.68 1.36 0 0 Z " fill="#8DB751" transform="translate(312,311)"/>
<path d="M0 0 C0.66 0.66 1.32 1.32 2 2 C1.67 2.66 1.34 3.32 1 4 C3.98241547 4.77321882 6.97580475 5.41196203 10 6 C9.01 6.99 8.02 7.98 7 9 C5.68127338 8.60348083 4.37002899 8.18201309 3.0625 7.75 C1.96615234 7.40195312 1.96615234 7.40195312 0.84765625 7.046875 C-1 6 -1 6 -1.87890625 4.015625 C-1.91886719 3.35046875 -1.95882813 2.6853125 -2 2 C-1.34 1.34 -0.68 0.68 0 0 Z " fill="#A1C43E" transform="translate(350,291)"/>
<path d="M0 0 C1.32 0 2.64 0 4 0 C4 0.66 4 1.32 4 2 C4.99 2 5.98 2 7 2 C7.33 3.65 7.66 5.3 8 7 C5.5625 6.625 5.5625 6.625 3 6 C2.67 5.34 2.34 4.68 2 4 C1.01 3.67 0.02 3.34 -1 3 C-0.67 2.01 -0.34 1.02 0 0 Z " fill="#8AB551" transform="translate(213,292)"/>
<path d="M0 0 C0.33 0.66 0.66 1.32 1 2 C3.01669827 3.13350534 3.01669827 3.13350534 5 4 C4.01 4.33 3.02 4.66 2 5 C2.66 5.66 3.32 6.32 4 7 C2.68 7.33 1.36 7.66 0 8 C0 7.34 0 6.68 0 6 C-0.99 5.67 -1.98 5.34 -3 5 C-1.125 1.125 -1.125 1.125 0 0 Z " fill="#95B555" transform="translate(212,211)"/>
<path d="M0 0 C0 4.29 0 8.58 0 13 C-0.33 13 -0.66 13 -1 13 C-1.33 9.04 -1.66 5.08 -2 1 C-5.63 1 -9.26 1 -13 1 C-13 0.67 -13 0.34 -13 0 C-11.58456585 -0.19658808 -10.16755969 -0.38187546 -8.75 -0.5625 C-7.96109375 -0.66691406 -7.1721875 -0.77132812 -6.359375 -0.87890625 C-4 -1 -4 -1 0 0 Z " fill="#94B563" transform="translate(246,157)"/>
<path d="M0 0 C0.66 0.33 1.32 0.66 2 1 C1.8125 3.375 1.8125 3.375 1 6 C-1.5625 7.3125 -1.5625 7.3125 -4 8 C-4.33 6.68 -4.66 5.36 -5 4 C-4.360625 3.71125 -3.72125 3.4225 -3.0625 3.125 C-0.84793921 2.17176549 -0.84793921 2.17176549 0 0 Z " fill="#8DC43D" transform="translate(340,306)"/>
<path d="M0 0 C2.375 0.125 2.375 0.125 5 1 C8 5.03448276 8 5.03448276 8 8 C7.34 8 6.68 8 6 8 C6 7.01 6 6.02 6 5 C4.35 5.33 2.7 5.66 1 6 C1 4.68 1 3.36 1 2 C0.34 1.67 -0.32 1.34 -1 1 C-0.67 0.67 -0.34 0.34 0 0 Z " fill="#93BB4D" transform="translate(189,281)"/>
<path d="M0 0 C5.4389165 -0.21755666 9.87080814 -0.10428384 15 2 C15 2.99 15 3.98 15 5 C10.25 4.125 10.25 4.125 8 3 C8 2.34 8 1.68 8 1 C5.36 1.33 2.72 1.66 0 2 C0 1.34 0 0.68 0 0 Z " fill="#8FB858" transform="translate(339,280)"/>
<path d="M0 0 C0.33 0 0.66 0 1 0 C2.47075246 4.41225737 3.36884358 7.48281619 2 12 C0.35 12 -1.3 12 -3 12 C-2.34 11.67 -1.68 11.34 -1 11 C-0.5316735 8.41394668 -0.5316735 8.41394668 -0.375 5.4375 C-0.30023438 4.42558594 -0.22546875 3.41367187 -0.1484375 2.37109375 C-0.09945313 1.58863281 -0.05046875 0.80617188 0 0 Z " fill="#94B55F" transform="translate(266,262)"/>
<path d="M0 0 C-1 3 -1 3 -3.3125 4.1875 C-8.5503146 5.34159474 -13.65884952 5.15556749 -19 5 C-19 4.67 -19 4.34 -19 4 C-17.89591797 3.94392578 -17.89591797 3.94392578 -16.76953125 3.88671875 C-10.73415835 3.48010842 -5.42701205 0 0 0 Z " fill="#8DAE58" transform="translate(356,311)"/>
<path d="M0 0 C0.33 0.99 0.66 1.98 1 3 C-2.83325617 5.70582788 -5.32538149 6.32613618 -10 6 C-10.33 5.01 -10.66 4.02 -11 3 C-8.03 3.33 -5.06 3.66 -2 4 C-2 3.01 -2 2.02 -2 1 C-1.34 0.67 -0.68 0.34 0 0 Z " fill="#94B25B" transform="translate(278,310)"/>
<path d="M0 0 C0.185625 0.8353125 0.185625 0.8353125 0.375 1.6875 C1.05976855 4.22114364 1.99133763 6.57921032 3 9 C1.68 9 0.36 9 -1 9 C-1.66 6.69 -2.32 4.38 -3 2 C-2.01 2 -1.02 2 0 2 C0 1.34 0 0.68 0 0 Z " fill="#8DB652" transform="translate(337,299)"/>
<path d="M0 0 C0.99 0.495 0.99 0.495 2 1 C2.59355614 3.64860427 2.74209269 6.29197322 3 9 C3.99 9.33 4.98 9.66 6 10 C5.01 11.485 5.01 11.485 4 13 C4 12.34 4 11.68 4 11 C3.34 11 2.68 11 2 11 C2 11.66 2 12.32 2 13 C1.34 13 0.68 13 0 13 C0 8.71 0 4.42 0 0 Z " fill="#A4C43F" transform="translate(127,298)"/>
<path d="M0 0 C1.175625 0.5259375 1.175625 0.5259375 2.375 1.0625 C3.674375 1.5265625 3.674375 1.5265625 5 2 C5.66 1.67 6.32 1.34 7 1 C6 3 5 5 4 7 C1.525 6.01 1.525 6.01 -1 5 C-0.67 3.35 -0.34 1.7 0 0 Z " fill="#9CCA38" transform="translate(268,295)"/>
<path d="M0 0 C0.33 0 0.66 0 1 0 C2.2063366 5.22745859 1.75612577 9.76528314 1 15 C0.34 15 -0.32 15 -1 15 C-1.02693575 12.87506859 -1.04636628 10.75004088 -1.0625 8.625 C-1.07410156 7.44164062 -1.08570312 6.25828125 -1.09765625 5.0390625 C-1 2 -1 2 0 0 Z " fill="#97B35E" transform="translate(100,289)"/>
<path d="M0 0 C0.70576172 0.52400391 0.70576172 0.52400391 1.42578125 1.05859375 C2.35970703 1.74115234 2.35970703 1.74115234 3.3125 2.4375 C4.23482422 3.11619141 4.23482422 3.11619141 5.17578125 3.80859375 C7.09677101 5.17336308 7.09677101 5.17336308 10 6 C8.68 6.99 7.36 7.98 6 9 C5.34 8.67 4.68 8.34 4 8 C4 7.34 4 6.68 4 6 C3.34 6 2.68 6 2 6 C0 3 0 3 0 0 Z " fill="#8FAE50" transform="translate(202,205)"/>
<path d="M0 0 C0 3 0 3 -2.375 5.625 C-5 8 -5 8 -7 9 C-7.66 9.99 -8.32 10.98 -9 12 C-9 8 -9 8 -7.03125 5.859375 C-6.1959375 5.16328125 -5.360625 4.4671875 -4.5 3.75 C-3.6646875 3.04359375 -2.829375 2.3371875 -1.96875 1.609375 C-0.99421875 0.81273437 -0.99421875 0.81273437 0 0 Z " fill="#91B656" transform="translate(207,168)"/>
<path d="M0 0 C1.52519276 0.08937803 3.04681929 0.24537146 4.5625 0.4375 C5.80193359 0.59025391 5.80193359 0.59025391 7.06640625 0.74609375 C7.70449219 0.82988281 8.34257812 0.91367187 9 1 C9.33 1.99 9.66 2.98 10 4 C7.36 4 4.72 4 2 4 C2 3.34 2 2.68 2 2 C1.01 1.67 0.02 1.34 -1 1 C-0.67 0.67 -0.34 0.34 0 0 Z " fill="#8DC637" transform="translate(349,306)"/>
<path d="M0 0 C1.58294782 -0.05437607 3.16644256 -0.09296271 4.75 -0.125 C5.63171875 -0.14820313 6.5134375 -0.17140625 7.421875 -0.1953125 C10.1135858 0.00860498 11.69904974 0.63448279 14 2 C13.67 2.66 13.34 3.32 13 4 C12.34 4 11.68 4 11 4 C11 3.34 11 2.68 11 2 C10.2265625 2.2784375 10.2265625 2.2784375 9.4375 2.5625 C6.14091261 3.15419517 3.27754265 2.567267 0 2 C0 1.34 0 0.68 0 0 Z " fill="#9CBC4C" transform="translate(212,280)"/>
<path d="M0 0 C2.625 -0.1875 2.625 -0.1875 5 0 C5 1.32 5 2.64 5 4 C3.1875 4.625 3.1875 4.625 1 5 C0.01 4.34 -0.98 3.68 -2 3 C-1.34 2.01 -0.68 1.02 0 0 Z " fill="#8AC23C" transform="translate(345,310)"/>
<path d="M0 0 C0.66 0.66 1.32 1.32 2 2 C4.06874034 2.6425235 4.06874034 2.6425235 6 3 C6 3.66 6 4.32 6 5 C3.69 5.66 1.38 6.32 -1 7 C-2 5 -2 5 -3 2 C-2.01 1.34 -1.02 0.68 0 0 Z " fill="#94C845" transform="translate(149,292)"/>
<path d="M0 0 C0.66 0.33 1.32 0.66 2 1 C2 1.66 2 2.32 2 3 C1.34 3.433125 0.68 3.86625 0 4.3125 C-2.30342071 5.85583656 -2.30342071 5.85583656 -2.25 8.6875 C-2.1675 9.450625 -2.085 10.21375 -2 11 C-2.99 10.67 -3.98 10.34 -5 10 C-4.67 8.02 -4.34 6.04 -4 4 C-3.34 4 -2.68 4 -2 4 C-1.34 2.68 -0.68 1.36 0 0 Z " fill="#9FBF44" transform="translate(246,263)"/>
<path d="M0 0 C0.99 0.33 1.98 0.66 3 1 C3 3.64 3 6.28 3 9 C2.01 9.33 1.02 9.66 0 10 C0 8.02 0 6.04 0 4 C-0.66 4 -1.32 4 -2 4 C-1.34 2.68 -0.68 1.36 0 0 Z " fill="#85B04B" transform="translate(359,300)"/>
<path d="M0 0 C1.670625 0.061875 1.670625 0.061875 3.375 0.125 C2.715 1.775 2.055 3.425 1.375 5.125 C1.045 4.465 0.715 3.805 0.375 3.125 C-0.24375 3.33125 -0.8625 3.5375 -1.5 3.75 C-2.20125 3.87375 -2.9025 3.9975 -3.625 4.125 C-4.285 3.465 -4.945 2.805 -5.625 2.125 C-3.625 0.125 -3.625 0.125 0 0 Z " fill="#92C74B" transform="translate(203.625,217.875)"/>
<path d="M0 0 C0.99 0 1.98 0 3 0 C3 1.32 3 2.64 3 4 C2.34 4 1.68 4 1 4 C1 4.99 1 5.98 1 7 C-0.32 6.67 -1.64 6.34 -3 6 C-2.01 4.02 -1.02 2.04 0 0 Z " fill="#9BC63A" transform="translate(290,281)"/>
<path d="M0 0 C0 0.99 0 1.98 0 3 C-2.31 2.67 -4.62 2.34 -7 2 C-7 2.66 -7 3.32 -7 4 C-7.99 4 -8.98 4 -10 4 C-10 3.34 -10 2.68 -10 2 C-10.99 1.67 -11.98 1.34 -13 1 C-8.61414671 0.29826347 -4.44209357 -0.10834375 0 0 Z " fill="#93B857" transform="translate(289,280)"/>
<path d="M0 0 C0.99 0 1.98 0 3 0 C2.67 0.99 2.34 1.98 2 3 C2.99 3.66 3.98 4.32 5 5 C4.01 5.33 3.02 5.66 2 6 C2 6.66 2 7.32 2 8 C1.34 8 0.68 8 0 8 C-0.38063221 5.6739143 -0.71269945 3.33944736 -1 1 C-0.67 0.67 -0.34 0.34 0 0 Z " fill="#8FB855" transform="translate(226,244)"/>
<path d="M0 0 C2 1 4 2 6 3 C6 3.99 6 4.98 6 6 C3.625 6.625 3.625 6.625 1 7 C0.34 6.34 -0.32 5.68 -1 5 C-0.01 4.67 0.98 4.34 2 4 C2 3.34 2 2.68 2 2 C1.34 2 0.68 2 0 2 C0 1.34 0 0.68 0 0 Z " fill="#9ACD58" transform="translate(235,187)"/>
<path d="M0 0 C0.6875 1.8125 0.6875 1.8125 1 4 C-0.375 5.5 -0.375 5.5 -2 7 C-2.71447643 9.10332891 -2.71447643 9.10332891 -3 11 C-3.66 11 -4.32 11 -5 11 C-4.54663921 6.12637153 -3.2910841 3.60957611 0 0 Z " fill="#95B652" transform="translate(195,180)"/>
<path d="M0 0 C0 0.66 0 1.32 0 2 C0.66 2.33 1.32 2.66 2 3 C-2.95 4.485 -2.95 4.485 -8 6 C-6.72879117 2.18637351 -4.19078006 0 0 0 Z " fill="#8DB74C" transform="translate(217,163)"/>
<path d="M0 0 C0.99 0.33 1.98 0.66 3 1 C1.8125 3 1.8125 3 0 5 C-2.5625 5.4375 -2.5625 5.4375 -5 5 C-5.66 4.01 -6.32 3.02 -7 2 C-4.03 2.495 -4.03 2.495 -1 3 C-0.67 2.01 -0.34 1.02 0 0 Z " fill="#0E0E0D" transform="translate(221,332)"/>
<path d="M0 0 C1.65 0 3.3 0 5 0 C4.125 3.875 4.125 3.875 3 5 C1.33382885 5.04063832 -0.33388095 5.042721 -2 5 C-2.33 4.01 -2.66 3.02 -3 2 C-1.35 2 0.3 2 2 2 C1.34 1.34 0.68 0.68 0 0 Z " fill="#0C0D0A" transform="translate(178,332)"/>
<path d="M0 0 C2 1 2 1 2 1 Z M-2 1 C-0.68 1.66 0.64 2.32 2 3 C2 3.66 2 4.32 2 5 C0.35 5.66 -1.3 6.32 -3 7 C-3.625 5.125 -3.625 5.125 -4 3 C-3.34 2.34 -2.68 1.68 -2 1 Z " fill="#85B840" transform="translate(226,298)"/>
<path d="M0 0 C0.66 0.33 1.32 0.66 2 1 C1.67 3.97 1.34 6.94 1 10 C0.34 9.67 -0.32 9.34 -1 9 C-1.40729228 6.67843403 -1.74438677 4.3431213 -2 2 C-1.34 2 -0.68 2 0 2 C0 1.34 0 0.68 0 0 Z " fill="#8AAD4B" transform="translate(269,232)"/>
<path d="M0 0 C2.31 0 4.62 0 7 0 C6.71788123 1.6266848 6.42397625 3.25132896 6.125 4.875 C5.96257812 5.77992188 5.80015625 6.68484375 5.6328125 7.6171875 C5 10 5 10 3 12 C3.03480469 11.38511719 3.06960938 10.77023438 3.10546875 10.13671875 C3.13253906 9.32847656 3.15960938 8.52023438 3.1875 7.6875 C3.22230469 6.88699219 3.25710938 6.08648437 3.29296875 5.26171875 C2.93801608 2.52148416 2.10633718 1.70828921 0 0 Z " fill="#91BC57" transform="translate(273,223)"/>
<path d="M0 0 C1.4540625 0.0309375 1.4540625 0.0309375 2.9375 0.0625 C2.2775 3.3625 1.6175 6.6625 0.9375 10.0625 C0.6075 10.0625 0.2775 10.0625 -0.0625 10.0625 C-0.0625 7.7525 -0.0625 5.4425 -0.0625 3.0625 C-1.3825 2.4025 -2.7025 1.7425 -4.0625 1.0625 C-3.0625 0.0625 -3.0625 0.0625 0 0 Z " fill="#8EB74D" transform="translate(269.0625,220.9375)"/>
<path d="M0 0 C-1.2065625 0.4021875 -1.2065625 0.4021875 -2.4375 0.8125 C-3.283125 1.204375 -4.12875 1.59625 -5 2 C-5.33 2.99 -5.66 3.98 -6 5 C-6.66 5 -7.32 5 -8 5 C-8.33 6.65 -8.66 8.3 -9 10 C-9.6875 8.3125 -9.6875 8.3125 -10 6 C-8.69760517 3.12102195 -7.61336142 1.42168598 -5 -0.375 C-3 -1 -3 -1 0 0 Z " fill="#9AB858" transform="translate(338,282)"/>
<path d="M0 0 C0.33 0 0.66 0 1 0 C1.103125 0.763125 1.20625 1.52625 1.3125 2.3125 C2.04364039 5.17059424 2.76951913 6.15742885 5 8 C2 9 2 9 -1 9 C-1.33 7.02 -1.66 5.04 -2 3 C-1.34 3 -0.68 3 0 3 C0 2.01 0 1.02 0 0 Z " fill="#9DC342" transform="translate(267,236)"/>
<path d="M0 0 C0.66 0 1.32 0 2 0 C2 0.66 2 1.32 2 2 C2.66 2 3.32 2 4 2 C5.37310707 3.29233607 6.71034824 4.62437146 8 6 C7.67 6.99 7.34 7.98 7 9 C6.34 8.67 5.68 8.34 5 8 C5 7.34 5 6.68 5 6 C3.68 5.67 2.36 5.34 1 5 C0.67 3.35 0.34 1.7 0 0 Z " fill="#92C14C" transform="translate(204,211)"/>
<path d="M0 0 C0.33 0.99 0.66 1.98 1 3 C2.31647119 3.69937532 3.65022151 4.36729133 5 5 C5.33 5.66 5.66 6.32 6 7 C5.01 7 4.02 7 3 7 C3 6.34 3 5.68 3 5 C2.01 5.33 1.02 5.66 0 6 C-0.99 5.01 -1.98 4.02 -3 3 C-2.34 3 -1.68 3 -1 3 C-0.67 2.01 -0.34 1.02 0 0 Z " fill="#070705" transform="translate(287,325)"/>
<path d="M0 0 C0.33 0.66 0.66 1.32 1 2 C1.99 2 2.98 2 4 2 C6.1875 4.5 6.1875 4.5 8 7 C5.75 7.375 5.75 7.375 3 7 C0.6875 4 0.6875 4 -1 1 C-0.67 0.67 -0.34 0.34 0 0 Z " fill="#8BB058" transform="translate(118,289)"/>
<path d="M0 0 C-0.99 0.495 -0.99 0.495 -2 1 C-2.33 1.66 -2.66 2.32 -3 3 C-4.875 3.8125 -4.875 3.8125 -7 4 C-8.75 2.5625 -8.75 2.5625 -10 1 C-3.71428571 -1.42857143 -3.71428571 -1.42857143 0 0 Z " fill="#A1C445" transform="translate(265,293)"/>
<path d="M0 0 C0.33 0.66 0.66 1.32 1 2 C2.32 2 3.64 2 5 2 C3.63016497 5.16115776 3.0109362 5.9927092 0 8 C0 5.36 0 2.72 0 0 Z " fill="#88A84A" transform="translate(267,288)"/>
<path d="M0 0 C1.65 0.33 3.3 0.66 5 1 C5.33 1.99 5.66 2.98 6 4 C5.05125 3.979375 4.1025 3.95875 3.125 3.9375 C0.09333717 3.77448174 0.09333717 3.77448174 -2 5 C-1.34 3.35 -0.68 1.7 0 0 Z " fill="#8DB453" transform="translate(270,281)"/>
<path d="M0 0 C0.99 0.66 1.98 1.32 3 2 C1.515 4.475 1.515 4.475 0 7 C-0.99 6.67 -1.98 6.34 -3 6 C-2.67 4.68 -2.34 3.36 -2 2 C-1.34 2 -0.68 2 0 2 C0 1.34 0 0.68 0 0 Z " fill="#8BB64D" transform="translate(367,236)"/>
<path d="M0 0 C0.99 0.33 1.98 0.66 3 1 C2.67 3.31 2.34 5.62 2 8 C1.01 8.33 0.02 8.66 -1 9 C-1 8.34 -1 7.68 -1 7 C-0.34 7 0.32 7 1 7 C0.34 5.02 -0.32 3.04 -1 1 C-0.67 0.67 -0.34 0.34 0 0 Z " fill="#83AF57" transform="translate(386,306)"/>
<path d="M0 0 C1.2065625 0.0309375 1.2065625 0.0309375 2.4375 0.0625 C3.0975 1.3825 3.7575 2.7025 4.4375 4.0625 C2.1275 4.0625 -0.1825 4.0625 -2.5625 4.0625 C-2.8925 3.0725 -3.2225 2.0825 -3.5625 1.0625 C-2.5625 0.0625 -2.5625 0.0625 0 0 Z " fill="#9DC744" transform="translate(374.5625,285.9375)"/>
<path d="M0 0 C1.32 0.66 2.64 1.32 4 2 C3.67 3.65 3.34 5.3 3 7 C1.68 6.67 0.36 6.34 -1 6 C-1.042721 4.33388095 -1.04063832 2.66617115 -1 1 C-0.67 0.67 -0.34 0.34 0 0 Z " fill="#A6C241" transform="translate(273,240)"/>
<path d="M0 0 C0.66 0 1.32 0 2 0 C2 2.31 2 4.62 2 7 C0.68 7 -0.64 7 -2 7 C-1.125 1.125 -1.125 1.125 0 0 Z " fill="#90C737" transform="translate(230,226)"/>
<path d="M0 0 C0 3 0 3 -1.5 4.6875 C-1.995 5.120625 -2.49 5.55375 -3 6 C-3.99 5.67 -4.98 5.34 -6 5 C-6 4.01 -6 3.02 -6 2 C-4.02 1.34 -2.04 0.68 0 0 Z " fill="#86B740" transform="translate(140,288)"/>
<path d="M0 0 C0.66 0 1.32 0 2 0 C2 0.66 2 1.32 2 2 C2.66 2.33 3.32 2.66 4 3 C3.34 3.66 2.68 4.32 2 5 C0.65737935 4.70630173 -0.67696283 4.3721042 -2 4 C-2.99 4.495 -2.99 4.495 -4 5 C-3.67 4.01 -3.34 3.02 -3 2 C-2.01 2 -1.02 2 0 2 C0 1.34 0 0.68 0 0 Z " fill="#96C752" transform="translate(284,244)"/>
<path d="M0 0 C-1.43429001 0.67354499 -2.87257057 1.33859701 -4.3125 2 C-5.51326172 2.556875 -5.51326172 2.556875 -6.73828125 3.125 C-9 4 -9 4 -12 4 C-12 3.34 -12 2.68 -12 2 C-10.75579353 1.4654744 -9.50429064 0.94791389 -8.25 0.4375 C-7.55390625 0.14746094 -6.8578125 -0.14257812 -6.140625 -0.44140625 C-3.69987216 -1.07831803 -2.3596345 -0.80248831 0 0 Z " fill="#8CB15C" transform="translate(231,159)"/>
<path d="M0 0 C0.33 0.99 0.66 1.98 1 3 C1.99 2.34 2.98 1.68 4 1 C6.1875 1.375 6.1875 1.375 8 2 C6.25 3.5625 6.25 3.5625 4 5 C1.75 4.6875 1.75 4.6875 0 4 C0 2.68 0 1.36 0 0 Z " fill="#88B054" transform="translate(274,268)"/>
<path d="M0 0 C0.99 0.33 1.98 0.66 3 1 C3.69289369 4.72430357 4.11144596 8.21083746 4 12 C1.78600697 8.20458337 0.99019802 4.24370579 0 0 Z " fill="#95B356" transform="translate(235,248)"/>
<path d="M0 0 C1.0625 1.875 1.0625 1.875 2 4 C1.67 4.66 1.34 5.32 1 6 C-1.0625 6.625 -1.0625 6.625 -3 7 C-3.33 6.01 -3.66 5.02 -4 4 C-2.68 2.68 -1.36 1.36 0 0 Z " fill="#90B645" transform="translate(254,233)"/>
<path d="M0 0 C2.02910711 0.25327449 4.04962145 0.57730068 6.0625 0.9375 C7.16722656 1.13214844 8.27195312 1.32679688 9.41015625 1.52734375 C10.69212891 1.76130859 10.69212891 1.76130859 12 2 C12 2.33 12 2.66 12 3 C10.39620659 3.05416188 8.79188594 3.09286638 7.1875 3.125 C6.29417969 3.14820313 5.40085937 3.17140625 4.48046875 3.1953125 C2 3 2 3 -1 1 C-0.67 0.67 -0.34 0.34 0 0 Z " fill="#8AAA57" transform="translate(108,313)"/>
<path d="M0 0 C0.66 0.33 1.32 0.66 2 1 C1.1875 4.4375 1.1875 4.4375 0 8 C-0.99 8.33 -1.98 8.66 -3 9 C-2 6 -1 3 0 0 Z " fill="#93B056" transform="translate(129,286)"/>
<path d="M0 0 C1.61949011 2.57213134 2.04408751 3.67669159 1.625 6.75 C1.41875 7.4925 1.2125 8.235 1 9 C0.34 8.67 -0.32 8.34 -1 8 C-1.625 5.9375 -1.625 5.9375 -2 4 C-1.34 4 -0.68 4 0 4 C0 2.68 0 1.36 0 0 Z " fill="#82AF4B" transform="translate(293,281)"/>
<path d="M0 0 C2.01136276 2.55991624 3.62845496 5.04590299 5 8 C1.125 7.125 1.125 7.125 0 6 C-0.04080783 4.00041636 -0.04254356 1.99954746 0 0 Z " fill="#A3BE47" transform="translate(231,261)"/>
<path d="M0 0 C0.99 0 1.98 0 3 0 C3 0.99 3 1.98 3 3 C3.66 3 4.32 3 5 3 C5 3.66 5 4.32 5 5 C3.35 5.33 1.7 5.66 0 6 C-0.33 5.34 -0.66 4.68 -1 4 C-0.34 4 0.32 4 1 4 C0.67 2.68 0.34 1.36 0 0 Z " fill="#8FB255" transform="translate(231,240)"/>
<path d="M0 0 C1.98 0.99 3.96 1.98 6 3 C5.34 4.32 4.68 5.64 4 7 C2.66666667 5.66666667 1.33333333 4.33333333 0 3 C0 2.01 0 1.02 0 0 Z " fill="#9CC638" transform="translate(192,200)"/>
<path d="M0 0 C-0.75 2.4375 -0.75 2.4375 -2 5 C-4.125 5.8125 -4.125 5.8125 -6 6 C-6 5.34 -6 4.68 -6 4 C-5.34 4 -4.68 4 -4 4 C-4 3.01 -4 2.02 -4 1 C-2 0 -2 0 0 0 Z " fill="#070708" transform="translate(308,328)"/>
<path d="M0 0 C0.99 0.33 1.98 0.66 3 1 C2.67 1.99 2.34 2.98 2 4 C1.34 4 0.68 4 0 4 C0 4.66 0 5.32 0 6 C-0.66 6 -1.32 6 -2 6 C-1.125 1.125 -1.125 1.125 0 0 Z " fill="#91BA4C" transform="translate(330,302)"/>
<path d="M0 0 C0.66 0 1.32 0 2 0 C1.67 1.98 1.34 3.96 1 6 C1.66 6 2.32 6 3 6 C3 6.66 3 7.32 3 8 C2.01 8 1.02 8 0 8 C-0.38063221 5.6739143 -0.71269945 3.33944736 -1 1 C-0.67 0.67 -0.34 0.34 0 0 Z " fill="#91BB53" transform="translate(369,282)"/>
<path d="M0 0 C0.99 0 1.98 0 3 0 C3.33 1.98 3.66 3.96 4 6 C3.01 6.33 2.02 6.66 1 7 C0.67 4.69 0.34 2.38 0 0 Z " fill="#91B256" transform="translate(245,266)"/>
<path d="M0 0 C2.31 0 4.62 0 7 0 C7 0.66 7 1.32 7 2 C1.25 3.125 1.25 3.125 -1 2 C-0.67 1.34 -0.34 0.68 0 0 Z " fill="#92C14B" transform="translate(230,189)"/>
<path d="M0 0 C0.99 0.99 1.98 1.98 3 3 C1.68 3 0.36 3 -1 3 C-0.67 2.01 -0.34 1.02 0 0 Z " fill="#9DAF4E" transform="translate(208,206)"/>
<path d="M0 0 C0.99 0.33 1.98 0.66 3 1 C2.34 1.66 1.68 2.32 1 3 C0.67 2.01 0.34 1.02 0 0 Z " fill="#9BD02E" transform="translate(204,203)"/>
<path d="M0 0 C0.33 0.99 0.66 1.98 1 3 C0.01 3.495 0.01 3.495 -1 4 C-0.67 2.68 -0.34 1.36 0 0 Z " fill="#000000" transform="translate(242,331)"/>
<path d="M0 0 C0.66 0 1.32 0 2 0 C2 0.66 2 1.32 2 2 C1.01 1.67 0.02 1.34 -1 1 C-0.67 0.67 -0.34 0.34 0 0 Z " fill="#BAC776" transform="translate(330,299)"/>
<path d="M0 0 C0.33 0.99 0.66 1.98 1 3 C0.01 3.495 0.01 3.495 -1 4 C-0.67 2.68 -0.34 1.36 0 0 Z " fill="#BABA43" transform="translate(272,237)"/>
<path d="M0 0 C1 4 1 4 1 4 Z " fill="#B0C04E" transform="translate(326,307)"/>
<path d="M0 0 C1 4 1 4 1 4 Z " fill="#FFFF00" transform="translate(237,268)"/>
<path d="M0 0 C0.66 0 1.32 0 2 0 C2 0.66 2 1.32 2 2 C1.34 2 0.68 2 0 2 C0 1.34 0 0.68 0 0 Z " fill="#B4BF3F" transform="translate(227,239)"/>
<path d="M0 0 C3 1 3 1 3 1 Z " fill="#D4E92A" transform="translate(340,304)"/>
<path d="" fill="#FFFF00" transform="translate(0,0)"/>
<path d="" fill="#000000" transform="translate(0,0)"/>
<path d="M0 0 C2 1 2 1 2 1 Z " fill="#000000" transform="translate(207,333)"/>
<path d="" fill="#94946A" transform="translate(0,0)"/>
<path d="M0 0 C2 1 2 1 2 1 Z " fill="#FFFF7F" transform="translate(146,305)"/>
<path d="M0 0 C2 1 2 1 2 1 Z " fill="#BFBF3F" transform="translate(145,290)"/>
<path d="M0 0 C2 1 2 1 2 1 Z " fill="#BFBF3F" transform="translate(265,284)"/>
<path d="M0 0 C2 1 2 1 2 1 Z " fill="#AAAA55" transform="translate(249,234)"/>
<path d="" fill="#7F7F7F" transform="translate(0,0)"/>
<path d="" fill="#FFFF00" transform="translate(0,0)"/>
<path d="" fill="#000000" transform="translate(0,0)"/>
<path d="" fill="#000000" transform="translate(0,0)"/>
<path d="" fill="#000000" transform="translate(0,0)"/>
<path d="" fill="#000000" transform="translate(0,0)"/>
<path d="" fill="#000000" transform="translate(0,0)"/>
<path d="" fill="#FFFFFF" transform="translate(0,0)"/>
<path d="" fill="#FFFFFF" transform="translate(0,0)"/>
<path d="" fill="#7F7F7F" transform="translate(0,0)"/>
<path d="" fill="#FFFF00" transform="translate(0,0)"/>
<path d="" fill="#999966" transform="translate(0,0)"/>
<path d="" fill="#FFFFFF" transform="translate(0,0)"/>
<path d="" fill="#7F7F7F" transform="translate(0,0)"/>
<path d="" fill="#AAAA55" transform="translate(0,0)"/>
<path d="" fill="#7F7F7F" transform="translate(0,0)"/>
<path d="" fill="#FFFFFF" transform="translate(0,0)"/>
</svg>
