<?xml version="1.0" encoding="UTF-8"?>
<svg version="1.1" xmlns="http://www.w3.org/2000/svg" width="593" height="421">
<path d="M0 0 C1.21579243 2.43158486 1.17218019 4.11564588 1.24609375 6.83203125 C1.27896484 7.79560547 1.31183594 8.75917969 1.34570312 9.75195312 C1.40654645 11.78049554 1.46387993 13.80914649 1.51757812 15.83789062 C1.55173828 16.80533203 1.58589844 17.77277344 1.62109375 18.76953125 C1.6461499 19.65229736 1.67120605 20.53506348 1.69702148 21.44458008 C2.02932918 24.24737193 2.94447926 26.39408607 4 29 C4.38861917 32.20360374 4.32471601 35.3999728 4.3125 38.625 C4.32861328 39.48351562 4.34472656 40.34203125 4.36132812 41.2265625 C4.36197266 42.0515625 4.36261719 42.8765625 4.36328125 43.7265625 C4.36626221 44.47502441 4.36924316 45.22348633 4.37231445 45.99462891 C3.90175476 48.52917139 2.8620588 49.28231202 1 51 C0.67 51.99 0.34 52.98 0 54 C1.2684375 53.7525 1.2684375 53.7525 2.5625 53.5 C6.09138856 52.98670712 9.43932689 52.92878654 13 53 C12.34 52.01 11.68 51.02 11 50 C11.02563477 47.71923828 11.02563477 47.71923828 11.37890625 44.9453125 C11.91915294 39.67929561 12.07655474 34.52726466 12.02734375 29.2421875 C12.02167389 28.48053284 12.01600403 27.71887817 12.01016235 26.93414307 C11.98313922 23.77107105 11.94759329 20.60820023 11.90405273 17.4453125 C11.87401675 15.10676316 11.85615982 12.76836683 11.83984375 10.4296875 C11.81965431 9.35326492 11.81965431 9.35326492 11.79905701 8.25509644 C11.79010805 6.50214033 11.88631595 4.74928875 12 3 C12.66 2.34 13.32 1.68 14 1 C34.01148861 1.61966358 53.60449115 15.83677714 67 29.69140625 C86.24573175 51.90669427 91.61546722 77.2910852 90 106 C88.85040699 115.61187488 85.35457316 124.41144186 81 133 C80.63261719 133.81597656 80.26523437 134.63195312 79.88671875 135.47265625 C72.81973881 150.7965887 60.91080058 163.69146429 47 173 C45.68 172.34 44.36 171.68 43 171 C42.97522627 166.94320623 42.95710507 162.88644194 42.94506836 158.82958984 C42.94004882 157.45035027 42.93323181 156.07111598 42.92456055 154.69189453 C42.9123908 152.70607817 42.90728367 150.72022251 42.90234375 148.734375 C42.89710693 147.54038086 42.89187012 146.34638672 42.88647461 145.11621094 C42.98058054 142.53305383 43.23373845 140.44991581 44 138 C41.36 138 38.72 138 36 138 C36 138.99 36 139.98 36 141 C35.01 141.33 34.02 141.66 33 142 C32.94183377 145.41659491 32.90634805 148.83306205 32.875 152.25 C32.84986328 153.70212891 32.84986328 153.70212891 32.82421875 155.18359375 C32.81777344 156.11816406 32.81132812 157.05273438 32.8046875 158.015625 C32.79421387 158.87446289 32.78374023 159.73330078 32.77294922 160.61816406 C33.01889844 163.19825071 33.78320095 164.73997559 35 167 C35.1875 169.6875 35.1875 169.6875 35 172 C32.69990227 174.30009773 27.15209334 173.18537365 24.0625 173.1875 C23.12986328 173.19974609 22.19722656 173.21199219 21.23632812 173.22460938 C20.34494141 173.22654297 19.45355469 173.22847656 18.53515625 173.23046875 C17.714104 173.23457764 16.89305176 173.23868652 16.04711914 173.24291992 C14 173 14 173 12 171 C11.75708008 167.99755859 11.75708008 167.99755859 11.76953125 164.1484375 C11.76998947 163.45674469 11.77044769 162.76505188 11.7709198 162.05239868 C11.7739474 160.57788391 11.78184881 159.10337249 11.79418945 157.62890625 C11.81203557 155.43216854 11.81470174 153.23586389 11.81445312 151.0390625 C11.83950862 141.32821047 12.28890512 131.68365567 13 122 C10.36 122 7.72 122 5 122 C5.33 123.32 5.66 124.64 6 126 C4.35 126.33 2.7 126.66 1 127 C1.08199866 131.10491639 1.19473401 135.20846632 1.3125 139.3125 C1.33505859 140.46041016 1.35761719 141.60832031 1.38085938 142.79101562 C1.58789685 149.43503637 2.32733388 155.28773999 4.3984375 161.6171875 C5.33582448 165.33021383 4.77126991 168.28388134 4 172 C1.00112135 172.96392528 -1.08814875 173.35886391 -4 172 C-8.24923464 164.25139565 -9.84783538 154.11711602 -12.1875 145.625 C-12.46013672 144.65433594 -12.73277344 143.68367187 -13.01367188 142.68359375 C-13.39942383 141.28173828 -13.39942383 141.28173828 -13.79296875 139.8515625 C-14.0252417 139.01447754 -14.25751465 138.17739258 -14.49682617 137.31494141 C-15 135 -15 135 -15 131 C-18.465 131.99 -18.465 131.99 -22 133 C-21.938125 133.78375 -21.87625 134.5675 -21.8125 135.375 C-21.874375 136.24125 -21.93625 137.1075 -22 138 C-22.99 138.66 -23.98 139.32 -25 140 C-23.74302987 143.60915312 -22.46707783 147.21130636 -21.1875 150.8125 C-20.83107422 151.83666016 -20.47464844 152.86082031 -20.10742188 153.91601562 C-19.58051758 155.39038086 -19.58051758 155.39038086 -19.04296875 156.89453125 C-18.72352295 157.80050049 -18.40407715 158.70646973 -18.07495117 159.63989258 C-17.15478709 162.0340416 -17.15478709 162.0340416 -15.4152832 163.55737305 C-12.86546277 166.15645687 -13.28732779 169.49460094 -13 173 C-17.498114 173.17503138 -21.99434798 173.30097509 -26.49487305 173.38452148 C-28.02061547 173.41939835 -29.54612971 173.46692132 -31.07104492 173.52807617 C-41.67087135 173.94205036 -48.54643702 173.11243035 -57 166 C-57.91712769 165.26825562 -57.91712769 165.26825562 -58.8527832 164.52172852 C-62.41493484 161.56060506 -65.69982458 158.24794243 -69 155 C-69.98806641 154.04867187 -69.98806641 154.04867187 -70.99609375 153.078125 C-80.038088 143.63936888 -86.05663031 130.27857073 -90 118 C-90.31839844 117.05898437 -90.63679687 116.11796875 -90.96484375 115.1484375 C-94.98611498 101.10178501 -94.2846431 84.81534694 -91.25 70.625 C-91.09329834 69.87645752 -90.93659668 69.12791504 -90.77514648 68.35668945 C-90.06515069 65.47554216 -89.42557074 63.41119335 -87.265625 61.32421875 C-83.67087669 60.80979787 -81.59348983 62.41016238 -78.5 64.1875 C-77.3759375 64.82042969 -76.251875 65.45335937 -75.09375 66.10546875 C-72 68 -72 68 -69.8046875 69.65625 C-67.86541921 71.22452581 -67.86541921 71.22452581 -64.625 72.3125 C-60.50502735 74.2304183 -57.63695401 76.28510195 -55 80 C-54.125 83.375 -54.125 83.375 -54 86 C-51.36 83.69 -48.72 81.38 -46 79 C-46.515625 78.505 -47.03125 78.01 -47.5625 77.5 C-50 75 -50 75 -51.45288086 73.24316406 C-55.77883124 68.01718374 -60.44825144 64.11573096 -66 60.25 C-66.76828125 59.69957031 -67.5365625 59.14914063 -68.328125 58.58203125 C-72.75569413 55.44207151 -77.24000177 52.60787137 -82 50 C-80.5107054 38.47865148 -67.85514286 27.04746446 -59.3125 19.875 C-41.75416719 6.45599681 -22.14584872 -0.63374448 0 0 Z M-30 22 C-28.46712115 25.23943363 -26.67413138 28.20535045 -24.6875 31.1875 C-24.11386719 32.06792969 -23.54023438 32.94835937 -22.94921875 33.85546875 C-20.66448534 36.36913336 -19.32597866 36.70804662 -16 37 C-19.39606807 30.7738752 -23.56018898 25.21990551 -30 22 Z M-29 44 C-26.61426621 45.89213369 -24.92824652 47.02391783 -22 48 C-22 47.34 -22 46.68 -22 46 C-24.64738916 44.5393715 -25.89448334 44 -29 44 Z M6 58 C5.67 58.66 5.34 59.32 5 60 C5.33 60.66 5.66 61.32 6 62 C4.02 62.33 2.04 62.66 0 63 C0.11009463 67.22969262 0.24067537 71.45851298 0.375 75.6875 C0.4059375 76.88568359 0.436875 78.08386719 0.46875 79.31835938 C0.50742187 80.47529297 0.54609375 81.63222656 0.5859375 82.82421875 C0.6173584 83.88729248 0.6487793 84.95036621 0.68115234 86.0456543 C1.00589997 89.05466737 1.85079038 91.22234311 3 94 C3.38842946 97.2244824 3.32472962 100.44175997 3.3125 103.6875 C3.32861328 104.55439453 3.34472656 105.42128906 3.36132812 106.31445312 C3.36197266 107.14267578 3.36261719 107.97089844 3.36328125 108.82421875 C3.36626221 109.57791748 3.36924316 110.33161621 3.37231445 111.1081543 C3.24945068 111.73246338 3.12658691 112.35677246 3 113 C2.01 113.66 1.02 114.32 0 115 C0 115.66 0 116.32 0 117 C4.29 117 8.58 117 13 117 C12.67 115.02 12.34 113.04 12 111 C12.11889648 108.77026367 12.11889648 108.77026367 12.43359375 106.48046875 C13.42080855 97.12965894 13.10420656 87.70277118 13.0625 78.3125 C13.05747557 76.33919384 13.05291433 74.36588645 13.04882812 72.39257812 C13.03789588 67.59502115 13.0206831 62.79752444 13 58 C10.69 58 8.38 58 6 58 Z M-45.0625 83.9375 C-47.6054606 86.64452258 -48.21051621 88.57895599 -48.5 92.2578125 C-47.39780892 98.30264168 -42.74183974 103.2876015 -39 108 C-38.27296875 108.92425781 -37.5459375 109.84851563 -36.796875 110.80078125 C-35.12444265 112.95355647 -35.12444265 112.95355647 -33.4375 114.4375 C-30.14563339 118.01561588 -28.8125 121.58101241 -28.8125 126.375 C-28.9053125 128.169375 -28.9053125 128.169375 -29 130 C-26.03 129.34 -23.06 128.68 -20 128 C-20 120.6679257 -22.31606689 114.7113163 -25.625 108.3125 C-26.14743286 107.28527832 -26.14743286 107.28527832 -26.68041992 106.23730469 C-30.78383367 98.29355192 -35.19659135 89.82753959 -41 83 C-43.07413969 82.86206569 -43.07413969 82.86206569 -45.0625 83.9375 Z M-84 92 C-81.2780754 93.3609623 -79.8168043 92.70366248 -76.875 92.0625 C-75.50988281 91.77052734 -75.50988281 91.77052734 -74.1171875 91.47265625 C-73.41851562 91.31667969 -72.71984375 91.16070312 -72 91 C-72 90.67 -72 90.34 -72 90 C-76.54805635 89.82164485 -79.8794254 90.00214565 -84 92 Z M38 97 C36.01688424 104.87934388 35.83099582 112.46764043 35.98632812 120.53637695 C35.99986328 121.32874756 36.01339844 122.12111816 36.02734375 122.9375 C36.04531006 123.64777344 36.06327637 124.35804688 36.08178711 125.08984375 C36 127 36 127 35 130 C34.01 130.66 33.02 131.32 32 132 C32 132.66 32 133.32 32 134 C35.63 134 39.26 134 43 134 C44.99884151 128.72479655 45.8289709 123.48939686 46.625 117.9375 C46.7590625 117.05255859 46.893125 116.16761719 47.03125 115.25585938 C47.94472033 109.15539907 47.94472033 109.15539907 48 103 C46.35532943 101.10713129 46.35532943 101.10713129 44.125 99.6875 C43.40570313 99.17574219 42.68640625 98.66398437 41.9453125 98.13671875 C40.0877129 96.83182744 40.0877129 96.83182744 38 97 Z M69.51953125 121.21484375 C68.17955078 122.06755859 68.17955078 122.06755859 66.8125 122.9375 C65.91144531 123.50339844 65.01039063 124.06929688 64.08203125 124.65234375 C63.05142578 125.31943359 63.05142578 125.31943359 62 126 C64.96338183 127.37738771 64.96338183 127.37738771 67.48046875 125.78515625 C68.37378906 125.21667969 69.26710938 124.64820313 70.1875 124.0625 C71.53908203 123.21365234 71.53908203 123.21365234 72.91796875 122.34765625 C73.60503906 121.90292969 74.29210937 121.45820313 75 121 C72.03661817 119.62261229 72.03661817 119.62261229 69.51953125 121.21484375 Z " fill="#FEFEFC" transform="translate(289,74)"/>
<path d="M0 0 C4.0750167 2.54466109 7.68211176 5.48417937 8.8515625 10.36328125 C9.12521114 14.18716086 8.47060134 16.2359435 6.3125 19.375 C2.6881706 21.84262853 0.677317 21.94323055 -3.625 21.375 C-5.625 19.375 -5.625 19.375 -5.875 17.375 C-6.48651075 15.05440285 -6.48651075 15.05440285 -9.375 14 C-12.99962867 13.30295603 -14.4578242 13.56518526 -17.625 15.375 C-19.10399501 18.33299003 -18.75678874 21.0233576 -18.75 24.3125 C-18.75257812 25.55902344 -18.75515625 26.80554688 -18.7578125 28.08984375 C-18.77699431 31.38176297 -18.77699431 31.38176297 -17.625 34.375 C-14.63905576 35.86797212 -11.91646376 35.49255228 -8.625 35.375 C-6.36947332 34.52818223 -6.36947332 34.52818223 -5.6875 31.9375 C-4.625 29.375 -4.625 29.375 -1.625 27.375 C2.62830603 27.64648762 5.18436889 28.55251864 8.375 31.375 C8.70371094 30.59576172 8.70371094 30.59576172 9.0390625 29.80078125 C11.39683544 24.61559768 13.76981569 21.72422495 18.375 18.375 C17.570625 17.92125 16.76625 17.4675 15.9375 17 C13.375 15.375 13.375 15.375 12.375 13.375 C11.96703488 9.70331394 12.06883369 7.88135197 14 4.6875 C20.21610744 -1.36502567 27.20663884 -1.9549219 35.51098633 -2.0144043 C43.12292885 -1.85680142 48.6570532 0.59076182 53.9375 6 C57.54954725 11.96773024 56.67358994 19.08881104 56.72509766 25.85302734 C56.74166356 27.44757679 56.76896257 29.04205178 56.80712891 30.63623047 C56.86201247 32.9427719 56.88378412 35.24758036 56.8984375 37.5546875 C56.92110687 38.26317841 56.94377625 38.97166931 56.96713257 39.70162964 C56.95042603 43.63286008 56.49403475 45.22889482 53.9777832 48.31738281 C50.22337722 51.2854096 48.08708113 51.22050554 43.375 51.375 C42.715 51.045 42.055 50.715 41.375 50.375 C41.375 49.715 41.375 49.055 41.375 48.375 C40.42625 48.87 39.4775 49.365 38.5 49.875 C32.18829005 52.53457133 25.88397002 52.26386246 19.5625 49.75 C15.34004639 47.64625981 12.96632197 45.30377847 10.375 41.375 C10.375 40.385 10.375 39.395 10.375 38.375 C9.715 38.375 9.055 38.375 8.375 38.375 C8.33375 39.096875 8.2925 39.81875 8.25 40.5625 C6.8410588 45.09123958 3.57344905 47.17017312 -0.4140625 49.35546875 C-8.06703853 52.70955084 -16.79781311 52.4252225 -24.55078125 49.48828125 C-30.10441616 46.50751675 -33.59837705 42.28102161 -35.625 36.375 C-36.02952151 32.56962122 -35.94949006 28.76232765 -35.9375 24.9375 C-35.95361328 23.91333984 -35.96972656 22.88917969 -35.98632812 21.83398438 C-35.99067957 15.11100317 -35.45352755 10.47572894 -30.7578125 5.328125 C-30.09523438 4.76609375 -29.43265625 4.2040625 -28.75 3.625 C-28.09257813 3.05265625 -27.43515625 2.4803125 -26.7578125 1.890625 C-19.63205762 -3.17309825 -7.9487507 -3.64761026 0 0 Z M21.375 15.375 C21.045 16.035 20.715 16.695 20.375 17.375 C21.66083984 17.24931641 21.66083984 17.24931641 22.97265625 17.12109375 C28.97431736 16.58656024 34.45921487 16.13681241 40.375 17.375 C39.15492056 14.6844472 39.15492056 14.6844472 37.375 12.375 C28.79011039 11.61092756 28.79011039 11.61092756 21.375 15.375 Z M25.375 31.375 C25.71727572 34.34565509 25.71727572 34.34565509 26.375 37.375 C28.7146669 38.54483345 30.20891527 38.5411241 32.8125 38.5625 C33.98619141 38.58376953 33.98619141 38.58376953 35.18359375 38.60546875 C37.66705987 38.51586064 37.66705987 38.51586064 40.375 36.375 C40.6252157 33.29134129 40.6252157 33.29134129 40.375 30.375 C35.2929295 27.12247488 29.7802301 27.14597911 25.375 31.375 Z " fill="#FCFEF9" transform="translate(109.625,258.625)"/>
<path d="M0 0 C0.33 0.99 0.66 1.98 1 3 C1.969375 2.505 2.93875 2.01 3.9375 1.5 C8.29834653 -0.34124631 12.32437713 -0.78064002 17 0 C19.60601185 1.10456649 21.64209797 2.39461989 24 4 C24.825 3.34 25.65 2.68 26.5 2 C30.3691267 -0.6132765 33.42724721 -0.38752142 38 0 C40.03123075 2.03123075 39.25669618 6.17768866 39.31640625 8.97265625 C39.33718735 9.77029892 39.35796844 10.56794159 39.37937927 11.38975525 C39.44496158 13.94724611 39.50379967 16.5048428 39.5625 19.0625 C39.60567699 20.79232882 39.64929101 22.52214679 39.69335938 24.25195312 C39.80065172 28.5011926 39.90189426 32.7505389 40 37 C41.6026782 37.10824843 43.20745748 37.18570645 44.8125 37.25 C45.70582031 37.29640625 46.59914063 37.3428125 47.51953125 37.390625 C50.09281849 37.21936019 50.09281849 37.21936019 51.79882812 35.35327148 C53.28897407 32.4338575 53.38386226 30.37059174 53.40625 27.09765625 C53.43912109 25.39125977 53.43912109 25.39125977 53.47265625 23.65039062 C53.48167969 22.46638672 53.49070312 21.28238281 53.5 20.0625 C53.51791165 17.71991212 53.54868176 15.37737905 53.59375 13.03515625 C53.60083984 11.9975415 53.60792969 10.95992676 53.61523438 9.89086914 C54.05634848 6.57663558 55.0535771 4.69378485 57 2 C59.92453087 -0.018168 62.24531176 -0.22807907 65.75 -0.125 C66.54921875 -0.10695313 67.3484375 -0.08890625 68.171875 -0.0703125 C68.77515625 -0.04710937 69.3784375 -0.02390625 70 0 C70.80186258 2.81905975 71.12095479 5.30290232 71.10107422 8.23022461 C71.09711639 9.05465561 71.09315857 9.87908661 71.08908081 10.72850037 C71.07773102 11.61086868 71.06638123 12.493237 71.0546875 13.40234375 C71.04293488 14.31705948 71.03118225 15.23177521 71.01907349 16.17420959 C70.9903785 18.10667137 70.958222 20.03908442 70.92285156 21.97143555 C70.89098172 23.94687773 70.86980157 25.92252163 70.859375 27.89819336 C70.84413183 30.75462061 70.79674683 33.60892849 70.7421875 36.46484375 C70.74298309 37.34518784 70.74377869 38.22553192 70.74459839 39.1325531 C70.62140674 43.59026266 70.45790829 45.43003854 67.57861328 49.01391602 C63.5136278 52.14482464 61.18707795 53.288171 56 53 C55.505 51.02 55.505 51.02 55 49 C54.443125 49.28875 53.88625 49.5775 53.3125 49.875 C46.44904814 53.21397658 41.79048883 54.22066589 34.3125 51.8125 C28.6534325 48.7160291 25.28833902 45.01748408 23 39 C22.63918231 34.86756752 22.7173193 30.76902138 22.8125 26.625 C22.82603516 25.50738281 22.83957031 24.38976562 22.85351562 23.23828125 C22.88872836 20.49168789 22.93797904 17.74609711 23 15 C20.95863605 14.94548286 18.91684144 14.90697515 16.875 14.875 C15.73804688 14.85179687 14.60109375 14.82859375 13.4296875 14.8046875 C9.89025774 15.00624956 7.23277739 15.5514855 4 17 C2.92134103 20.23597692 2.85918595 22.65520299 2.82421875 26.05859375 C2.80037109 27.24904297 2.77652344 28.43949219 2.75195312 29.66601562 C2.70905407 32.17626025 2.67776573 34.68673068 2.65820312 37.19726562 C2.63048828 38.38900391 2.60277344 39.58074219 2.57421875 40.80859375 C2.55963623 41.89970459 2.54505371 42.99081543 2.5300293 44.11499023 C1.88187214 47.64298338 0.76345821 48.78776436 -2 51 C-5.74021534 52.96853439 -8.79807205 53.28649509 -13 53 C-17.67756572 48.32243428 -15.18066517 28.62230702 -15.25 22.375 C-15.2713501 21.35656006 -15.2927002 20.33812012 -15.31469727 19.28881836 C-15.34148599 13.39773386 -14.91638671 9.16715105 -12 4 C-7.98398287 0.51945182 -5.29038037 -0.50384575 0 0 Z " fill="#FDFEFA" transform="translate(337,257)"/>
<path d="M0 0 C0.82816476 3.67263915 1.18218353 7.16548026 1.31640625 10.92578125 C1.35838135 12.10060059 1.40035645 13.27541992 1.44360352 14.48583984 C1.50245728 16.38003662 1.50245728 16.38003662 1.5625 18.3125 C1.6049585 19.61654785 1.64741699 20.9205957 1.69116211 22.26416016 C2.1463194 37.17399944 2.09615898 52.08500257 2 67 C2.433125 66.525625 2.86625 66.05125 3.3125 65.5625 C6.36767917 62.7336304 9.77680239 62.64886457 13.8125 62.73046875 C18.4252783 63.29882893 22.19435908 65.13262515 25.43530273 68.484375 C30.05125356 75.01333185 29.81239754 81.72946992 29.875 89.5 C29.90851563 90.78003906 29.94203125 92.06007813 29.9765625 93.37890625 C30.23798727 106.01879405 30.23798727 106.01879405 29 112 C25.04386218 115.67355655 21.35940271 116.79386913 16 117 C13.10431779 114.10431779 13.66471321 111.10153436 13.62109375 107.21875 C13.60409927 106.44946167 13.5871048 105.68017334 13.56959534 104.88757324 C13.51638232 102.42513266 13.47613732 99.9627091 13.4375 97.5 C13.3935846 95.03737811 13.34687621 92.57488765 13.29469299 90.11242676 C13.26272312 88.57891678 13.23583691 87.04529093 13.21446228 85.51159668 C13.20972759 81.62768788 13.20972759 81.62768788 12 78 C8.44307323 77.14943055 6.50729422 76.83090193 3 78 C2.16541608 82.3884716 1.85405765 86.57887504 1.7890625 91.04296875 C1.76102749 92.3769661 1.73236334 93.71095035 1.703125 95.04492188 C1.66171082 97.12524505 1.62477616 99.205314 1.59863281 101.28588867 C1.57107427 103.3093035 1.52409364 105.33242455 1.4765625 107.35546875 C1.45674316 108.55840576 1.43692383 109.76134277 1.41650391 111.00073242 C1 114 1 114 -0.40869141 115.89038086 C-2.3958425 117.27602089 -3.59118009 117.40237295 -6 117.375 C-7.0209375 117.38660156 -7.0209375 117.38660156 -8.0625 117.3984375 C-10.63739876 116.86892203 -11.40460256 116.08177867 -13 114 C-13.32470703 111.47900391 -13.32470703 111.47900391 -13.2578125 108.4765625 C-13.24363281 107.37183594 -13.22945313 106.26710938 -13.21484375 105.12890625 C-13.17037109 103.39447266 -13.17037109 103.39447266 -13.125 101.625 C-12.99645513 95.06921169 -12.88190964 88.59759045 -13.484375 82.0625 C-14.25150804 73.19026505 -14.14905009 64.30805601 -14.13037109 55.40966797 C-14.12504773 52.40196606 -14.13032463 49.39441592 -14.13671875 46.38671875 C-14.14110455 37.09740781 -14.04591055 27.81947284 -13.6171875 18.5390625 C-13.58682404 17.78998627 -13.55646057 17.04091003 -13.525177 16.26913452 C-13.25805173 11.28917127 -12.50761416 6.76623575 -11 2 C-7.11855371 -0.84639395 -4.58840577 -1.48448422 0 0 Z " fill="#FCFDF9" transform="translate(472,193)"/>
<path d="M0 0 C5.13809235 3.5398131 8.28037315 6.82957423 10 13 C10.9186583 23.43121686 10.9186583 23.43121686 8 28 C7.01 28.495 7.01 28.495 6 29 C6.309375 29.5775 6.61875 30.155 6.9375 30.75 C8.77675547 34.64489394 9.22985993 36.09697883 8.125 40.4375 C5.93673564 45.1702578 1.62882447 47.05862128 -3 49 C-10.56579201 51.34391203 -18.9751405 50.60701942 -26 47 C-30.29994862 43.93600907 -33.9479697 40.94738308 -36 36 C-36.4727869 32.09564664 -36.41629448 28.18009053 -36.4375 24.25 C-36.47037109 23.19039063 -36.50324219 22.13078125 -36.53710938 21.0390625 C-36.5849639 14.02620001 -35.58446183 9.40619693 -31 4 C-22.63592662 -4.14396619 -10.20723697 -6.00425704 0 0 Z M-20 13 C-20 14.32 -20 15.64 -20 17 C-15.05 17 -10.1 17 -5 17 C-6.40177533 12.14123888 -6.40177533 12.14123888 -8.9375 10.6875 C-13.43664192 9.18778603 -16.0199564 10.87731008 -20 13 Z M-20 29 C-20.33 29.66 -20.66 30.32 -21 31 C-18.26057998 34.32050912 -16.80649943 35.85598224 -12.5 36.625 C-8.16224093 35.85040017 -6.68817477 34.42131335 -4 31 C-4 30.34 -4 29.68 -4 29 C-9.28 29 -14.56 29 -20 29 Z " fill="#FCFEF9" transform="translate(260,260)"/>
<path d="M0 0 C0.33 1.32 0.66 2.64 1 4 C2.60875 3.01 2.60875 3.01 4.25 2 C9.69867992 -0.7146448 15.0341605 -0.83185649 21 0 C26.14867106 2.48239498 29.54507237 6.06725309 32.08618164 11.18945312 C33.21400542 14.65819675 33.34263535 17.9208541 33.37109375 21.53125 C33.38463646 22.60155457 33.38463646 22.60155457 33.39845276 23.69348145 C33.4129048 25.19616531 33.4218294 26.69891137 33.42553711 28.20166016 C33.43746664 30.49359034 33.48671998 32.78285332 33.53710938 35.07421875 C33.54657146 36.53904945 33.55380753 38.00389656 33.55859375 39.46875 C33.57812607 40.14909302 33.59765839 40.82943604 33.61778259 41.53039551 C33.58158452 45.36697139 33.07710285 46.90485856 30.63012695 49.92431641 C27.7655959 52.18499059 26.34349993 52.69209731 22.75 52.875 C21.87859375 52.93429687 21.0071875 52.99359375 20.109375 53.0546875 C18 53 18 53 17 52 C16.88946851 49.60045839 16.83841618 47.22482112 16.82421875 44.82421875 C16.80101479 43.34178276 16.77689722 41.85936085 16.75195312 40.37695312 C16.7168617 38.03318967 16.687514 35.68994119 16.67407227 33.34594727 C16.65857956 31.0880643 16.61835817 28.83169981 16.57421875 26.57421875 C16.57612717 25.87616623 16.57803558 25.17811371 16.58000183 24.45890808 C16.49527509 21.08259269 16.1947825 19.26160926 14.15551758 16.52270508 C12.02278483 14.69646514 12.02278483 14.69646514 8.9375 15.0625 C5.87796315 16.03894793 4.86635798 16.46730426 3 19 C2.55838139 21.8213887 2.55838139 21.8213887 2.62890625 25.0234375 C2.61150391 26.209375 2.59410156 27.3953125 2.57617188 28.6171875 C2.56708576 31.11457224 2.56185305 33.61197408 2.56054688 36.109375 C2.54185547 37.29789062 2.52316406 38.48640625 2.50390625 39.7109375 C2.50205322 40.79681152 2.5002002 41.88268555 2.49829102 43.00146484 C1.88319611 46.70288356 0.60799759 48.34732769 -2 51 C-5.70336478 52.6546949 -8.94762725 53.45026364 -13 53 C-15.66197665 50.33802335 -15.2602864 48.32369789 -15.30354309 44.70185852 C-15.30263168 43.83731552 -15.30172028 42.97277252 -15.30078125 42.08203125 C-15.30506638 41.19142502 -15.3093515 40.30081879 -15.31376648 39.38322449 C-15.31951762 37.49434255 -15.3200043 35.60543846 -15.31567383 33.71655273 C-15.31253141 30.84124246 -15.33590152 27.96697851 -15.36132812 25.09179688 C-15.36360295 23.25520963 -15.36430376 21.41861962 -15.36328125 19.58203125 C-15.372491 18.72760941 -15.38170074 17.87318756 -15.39118958 16.99287415 C-15.34980895 11.58599538 -14.60983799 7.77140519 -12 3 C-7.95402032 0.21276956 -4.8609593 -0.34721138 0 0 Z " fill="#FCFEF8" transform="translate(186,257)"/>
<path d="M0 0 C0.71196533 0.00491455 1.42393066 0.0098291 2.1574707 0.01489258 C9.21277624 0.17246726 13.71152157 1.15260392 19.125 5.875 C21.42311856 8.5909583 22.09272706 9.68970638 22.625 13.1875 C22.1875 16.3125 22.1875 16.3125 19.5 18.75 C16.1875 20.3125 16.1875 20.3125 13.625 20.375 C11.1875 19.3125 11.1875 19.3125 9.125 16.75 C4.58309311 12.98118365 -0.13286109 13.90487041 -5.8125 14.3125 C-5.4825 14.9725 -5.1525 15.6325 -4.8125 16.3125 C-2.1503538 17.13253611 0.49353942 17.86479989 3.1875 18.5625 C11.14335236 20.76499571 17.63565246 23.33012549 23.25 29.625 C24.63495858 33.59521458 24.8405241 37.1595602 24.1875 41.3125 C21.26702418 47.26577763 17.12919569 50.13582172 11.0625 52.5625 C1.07653725 54.49526698 -9.16481687 54.07762209 -17.8125 48.3125 C-20.35446716 45.77053284 -21.70342359 44.02928782 -22.25 40.4375 C-21.65939495 36.21889249 -20.13053498 34.89319387 -16.8125 32.3125 C-14.1875 31.375 -14.1875 31.375 -11.8125 31.3125 C-8.8125 33.3125 -8.8125 33.3125 -7.9375 35.3125 C-6.9365062 37.50065874 -6.9365062 37.50065874 -4.5625 38.5625 C-0.14639471 39.76689235 3.81996857 39.65635582 8.1875 38.3125 C8.1875 37.3225 8.1875 36.3325 8.1875 35.3125 C7.50945312 35.13074219 6.83140625 34.94898438 6.1328125 34.76171875 C4.17774878 34.23368908 2.22474361 33.6980008 0.2734375 33.15625 C-1.65182923 32.62984796 -3.58353413 32.12585197 -5.5234375 31.65625 C-11.47301472 30.11851312 -15.73308381 27.99847662 -19.8125 23.3125 C-21.92001267 19.64726058 -22.32574557 16.50400546 -21.8125 12.3125 C-16.86441482 3.14937929 -10.1111312 -0.08153185 0 0 Z " fill="#FCFDF9" transform="translate(433.8125,256.6875)"/>
<path d="M0 0 C4.49983994 2.6624053 6.53000454 5.0144173 8.3125 9.9375 C8.38547107 14.2427932 8.02477043 16.12048392 5.1875 19.375 C1.67419288 21.28440605 -0.74609564 21.24662975 -4.6875 20.9375 C-5.22375 19.803125 -5.76 18.66875 -6.3125 17.5 C-7.98999249 14.56141386 -8.34707325 14.05806781 -11.6875 12.875 C-14.73996494 12.93859302 -16.24809118 13.1305305 -18.6875 14.9375 C-19.80800151 18.29900452 -19.82046652 20.90036726 -19.8125 24.4375 C-19.81507813 25.5821875 -19.81765625 26.726875 -19.8203125 27.90625 C-19.82434408 30.98429859 -19.82434408 30.98429859 -18.6875 33.9375 C-15.70155576 35.43047212 -12.97896376 35.05505228 -9.6875 34.9375 C-7.34873576 34.03486138 -7.34873576 34.03486138 -6.375 30.9375 C-4.6875 27.9375 -4.6875 27.9375 -2.375 26.875 C1.19551863 26.95803532 3.29979892 28.06293044 6.3125 29.9375 C8.81089132 33.68508698 8.51568743 35.40943658 7.9140625 39.71875 C6.96379145 43.22364581 5.16332267 44.78354509 2.3125 46.9375 C-5.2140759 51.23840052 -12.87938816 52.25905588 -21.3828125 50.32421875 C-27.79372561 48.09902414 -31.9117621 44.56069375 -35.6875 38.9375 C-37.19111194 34.42666419 -36.95375703 29.97603195 -37 25.25 C-37.02900391 24.28126953 -37.05800781 23.31253906 -37.08789062 22.31445312 C-37.15312365 14.89294198 -35.83908255 9.58966948 -30.94140625 3.9140625 C-30.38324219 3.46804688 -29.82507813 3.02203125 -29.25 2.5625 C-28.69441406 2.10101563 -28.13882812 1.63953125 -27.56640625 1.1640625 C-19.74268285 -3.94331618 -8.37509274 -3.78873243 0 0 Z " fill="#FCFDF9" transform="translate(310.6875,259.0625)"/>
<path d="M0 0 C0.99 0.33 1.98 0.66 3 1 C3 1.99 3 2.98 3 4 C3.763125 4.103125 4.52625 4.20625 5.3125 4.3125 C8.17059424 5.04364039 9.15742885 5.76951913 11 8 C11.515625 7.505 12.03125 7.01 12.5625 6.5 C15.88796936 4.45355731 18.16306413 4.58142518 22 5 C23.9375 6.5 23.9375 6.5 25 8 C25.391875 7.525625 25.78375 7.05125 26.1875 6.5625 C28.50287041 4.56649103 29.96587735 4.28224397 33 4 C36.3125 4.4375 36.3125 4.4375 39 5 C39 7.31 39 9.62 39 12 C39.66 8.37 40.32 4.74 41 1 C41.99 0.67 42.98 0.34 44 0 C44.66 0.99 45.32 1.98 46 3 C47.32 2.34 48.64 1.68 50 1 C50.99 2.65 51.98 4.3 53 6 C53.66 4.02 54.32 2.04 55 0 C56.32 0.33 57.64 0.66 59 1 C58.67 2.32 58.34 3.64 58 5 C58.598125 4.79375 59.19625 4.5875 59.8125 4.375 C62 4 62 4 65 6 C66.06652893 10.62162537 66.01346337 14.38311132 65 19 C63.35 19 61.7 19 60 19 C60.33 16.03 60.66 13.06 61 10 C60.01 10 59.02 10 58 10 C57.01 12.97 56.02 15.94 55 19 C48.375 20.125 48.375 20.125 45 19 C44.25486277 16.90006779 44 15.22568901 44 13 C43.71125 13.969375 43.4225 14.93875 43.125 15.9375 C42 19 42 19 40 20 C39.01 19.67 38.02 19.34 37 19 C35.53547409 19.15906836 34.07631762 19.37238158 32.625 19.625 C29.18751925 20.0792185 28.19873095 20.09328188 24.9375 18.5625 C24.298125 18.046875 23.65875 17.53125 23 17 C22.29875 17.515625 21.5975 18.03125 20.875 18.5625 C17.34522437 20.32738782 15.72617026 20.15925297 12 19 C11.34 18.01 10.68 17.02 10 16 C9.67 16.99 9.34 17.98 9 19 C7.35 18.67 5.7 18.34 4 18 C4.33 15.36 4.66 12.72 5 10 C4.01 10 3.02 10 2 10 C1.34 12.97 0.68 15.94 0 19 C-1.32 19 -2.64 19 -4 19 C-4.08963211 14.87692285 -3.98607307 10.80183687 -3.6875 6.6875 C-3.62949219 5.84574219 -3.57148438 5.00398438 -3.51171875 4.13671875 C-3 2 -3 2 0 0 Z M17 9 C16.34 9.66 15.68 10.32 15 11 C16.65 11 18.3 11 20 11 C19.67 10.34 19.34 9.68 19 9 C18.34 9 17.68 9 17 9 Z M30 9 C29.34 9.66 28.68 10.32 28 11 C28.32041397 13.60280568 28.32041397 13.60280568 29 16 C30.65 15.34 32.3 14.68 34 14 C33.67 12.35 33.34 10.7 33 9 C32.01 9 31.02 9 30 9 Z M49 10 C48.7497843 13.08365871 48.7497843 13.08365871 49 16 C49.99 16.33 50.98 16.66 52 17 C52.33 14.03 52.66 11.06 53 8 C51.53774984 7.90754997 51.53774984 7.90754997 49 10 Z " fill="#F9FEEE" transform="translate(303,322)"/>
<path d="M0 0 C2.01822917 0.06510417 4.03645833 0.13020833 6.0546875 0.1953125 C6.0546875 1.8453125 6.0546875 3.4953125 6.0546875 5.1953125 C6.6425 3.9578125 6.6425 3.9578125 7.2421875 2.6953125 C7.8403125 1.8703125 8.4384375 1.0453125 9.0546875 0.1953125 C11.7421875 -0.1171875 11.7421875 -0.1171875 14.0546875 0.1953125 C14.0546875 4.1953125 14.0546875 4.1953125 13.0546875 7.1953125 C13.7765625 6.6796875 14.4984375 6.1640625 15.2421875 5.6328125 C18.0546875 4.1953125 18.0546875 4.1953125 20.6796875 4.3203125 C23.29041408 5.28215913 24.35455837 6.01717605 26.0546875 8.1953125 C26.4600894 12.26407335 25.92602246 16.05587448 23.4296875 19.3203125 C20.00887153 20.58061312 17.55273979 20.0374362 14.0546875 19.1953125 C12.0546875 17.1953125 12.0546875 17.1953125 11.859375 15.25 C11.92447917 13.23177083 11.98958333 11.21354167 12.0546875 9.1953125 C11.3946875 9.1953125 10.7346875 9.1953125 10.0546875 9.1953125 C10.0753125 10.2884375 10.0959375 11.3815625 10.1171875 12.5078125 C10.0546875 16.1953125 10.0546875 16.1953125 9.0546875 19.1953125 C8.0646875 19.5253125 7.0746875 19.8553125 6.0546875 20.1953125 C5.0546875 19.1953125 5.0546875 19.1953125 4.95703125 17.34765625 C5.00585938 14.27148438 5.00585938 14.27148438 5.0546875 11.1953125 C4.9721875 12.3090625 4.8896875 13.4228125 4.8046875 14.5703125 C4.0546875 18.1953125 4.0546875 18.1953125 1.9921875 19.6328125 C1.3528125 19.8184375 0.7134375 20.0040625 0.0546875 20.1953125 C-0.2753125 18.5453125 -0.6053125 16.8953125 -0.9453125 15.1953125 C-1.9353125 17.6703125 -1.9353125 17.6703125 -2.9453125 20.1953125 C-3.9353125 19.8653125 -4.9253125 19.5353125 -5.9453125 19.1953125 C-5.66420761 16.40220645 -5.37095198 13.61132375 -5.0703125 10.8203125 C-4.99167969 10.02625 -4.91304688 9.2321875 -4.83203125 8.4140625 C-3.948736 0.39645944 -3.948736 0.39645944 0 0 Z M1.0546875 4.1953125 C2.0546875 6.1953125 2.0546875 6.1953125 2.0546875 6.1953125 Z M0.0546875 7.1953125 C1.0546875 10.1953125 1.0546875 10.1953125 1.0546875 10.1953125 Z M17.0546875 10.1953125 C17.0546875 10.5253125 17.0546875 10.8553125 17.0546875 11.1953125 C18.7046875 11.1953125 20.3546875 11.1953125 22.0546875 11.1953125 C22.0546875 10.8653125 22.0546875 10.5353125 22.0546875 10.1953125 C20.4046875 10.1953125 18.7546875 10.1953125 17.0546875 10.1953125 Z M17.0546875 14.1953125 C17.7146875 14.8553125 18.3746875 15.5153125 19.0546875 16.1953125 C19.0546875 15.5353125 19.0546875 14.8753125 19.0546875 14.1953125 C18.3946875 14.1953125 17.7346875 14.1953125 17.0546875 14.1953125 Z " fill="#F9FEEF" transform="translate(392.9453125,321.8046875)"/>
<path d="M0 0 C1.18142578 0.13148438 1.18142578 0.13148438 2.38671875 0.265625 C3.33998047 0.50539063 3.33998047 0.50539063 4.3125 0.75 C4.6425 1.41 4.9725 2.07 5.3125 2.75 C5.9725 2.09 6.6325 1.43 7.3125 0.75 C9.625 -0.0625 9.625 -0.0625 12.3125 -0.25 C14.5956838 0.8915919 16.50262683 1.94012683 18.3125 3.75 C18.73230966 7.44432504 18.56538902 9.31230746 16.6875 12.5625 C13.80669818 15.21587009 12.1997673 15.66901526 8.3125 15.75 C5.56295672 14.78394425 4.62242243 14.36984486 3.3125 11.75 C2.85875 12.86375 2.405 13.9775 1.9375 15.125 C0.3125 18.75 0.3125 18.75 -1.6875 20.75 C-8.92194976 21.32416268 -8.92194976 21.32416268 -11.6875 19.25 C-12.0175 18.755 -12.3475 18.26 -12.6875 17.75 C-12.336875 17.234375 -11.98625 16.71875 -11.625 16.1875 C-10.4088097 13.63770799 -10.4088097 13.63770799 -11.25 10.3125 C-11.6875 6.75 -11.6875 6.75 -10.5 3.9375 C-7.41115303 0.20958125 -4.7476892 -0.59640393 0 0 Z M-4.6875 4.75 C-6.45940909 6.10444301 -6.45940909 6.10444301 -7.6875 7.75 C-7.0275 9.07 -6.3675 10.39 -5.6875 11.75 C-4.3675 11.42 -3.0475 11.09 -1.6875 10.75 C-1.3575 9.1 -1.0275 7.45 -0.6875 5.75 C-2.52450789 4.97757731 -2.52450789 4.97757731 -4.6875 4.75 Z M3.3125 4.75 C4.3125 7.75 4.3125 7.75 4.3125 7.75 Z M8.3125 5.75 C7.66036708 7.77463255 7.66036708 7.77463255 7.3125 9.75 C9.2925 10.74 9.2925 10.74 11.3125 11.75 C12.87499809 10.43798827 12.87499809 10.43798827 14.3125 8.75 C14.3125 7.76 14.3125 6.77 14.3125 5.75 C11.26336772 4.73888907 11.26336772 4.73888907 8.3125 5.75 Z M-7.6875 15.75 C-7.3575 16.41 -7.0275 17.07 -6.6875 17.75 C-5.3675 17.09 -4.0475 16.43 -2.6875 15.75 C-4.3375 15.75 -5.9875 15.75 -7.6875 15.75 Z " fill="#F9FEEE" transform="translate(239.6875,326.25)"/>
<path d="M0 0 C2.375 1.3125 2.375 1.3125 3.1875 3.4375 C3.249375 4.05625 3.31125 4.675 3.375 5.3125 C4.035 5.3125 4.695 5.3125 5.375 5.3125 C5.045 3.6625 4.715 2.0125 4.375 0.3125 C5.78933206 0.0888663 7.20667618 -0.11576476 8.625 -0.3125 C9.80835938 -0.48652344 9.80835938 -0.48652344 11.015625 -0.6640625 C13.69652459 -0.69069395 15.10194089 -0.05342084 17.375 1.3125 C17.40196365 3.10408489 17.42137917 4.89578473 17.4375 6.6875 C17.44910156 7.68523437 17.46070313 8.68296875 17.47265625 9.7109375 C17.375 12.3125 17.375 12.3125 16.375 14.3125 C15.055 14.3125 13.735 14.3125 12.375 14.3125 C11.715 12.6625 11.055 11.0125 10.375 9.3125 C11.035 8.9825 11.695 8.6525 12.375 8.3125 C12.375 7.3225 12.375 6.3325 12.375 5.3125 C11.715 5.3125 11.055 5.3125 10.375 5.3125 C9.385 8.2825 8.395 11.2525 7.375 14.3125 C6.055 14.3125 4.735 14.3125 3.375 14.3125 C3.045 13.6525 2.715 12.9925 2.375 12.3125 C1.859375 12.828125 1.34375 13.34375 0.8125 13.875 C-1.625 15.3125 -1.625 15.3125 -5.25 15.1875 C-8.625 14.3125 -8.625 14.3125 -10.625 11.3125 C-10.48179006 7.37422672 -10.21629356 5.06147184 -7.75 1.9375 C-4.93590911 -0.21445186 -3.47838601 -0.91100586 0 0 Z M-3.625 4.3125 C-5.18749809 5.62451173 -5.18749809 5.62451173 -6.625 7.3125 C-6.625 8.3025 -6.625 9.2925 -6.625 10.3125 C-3.625 11.64583333 -3.625 11.64583333 -0.625 10.3125 C-0.625 8.6625 -0.625 7.0125 -0.625 5.3125 C-1.615 4.9825 -2.605 4.6525 -3.625 4.3125 Z " fill="#FAFEEE" transform="translate(274.625,326.6875)"/>
<path d="M0 0 C0.66 0.66 1.32 1.32 2 2 C3.2375 2.2475 3.2375 2.2475 4.5 2.5 C7 3 7 3 9 5 C9.265625 7.05859375 9.265625 7.05859375 9.25 9.4375 C9.25515625 10.21996094 9.2603125 11.00242187 9.265625 11.80859375 C9 14 9 14 7 17 C3.5625 17.8125 3.5625 17.8125 0 18 C-0.99 17.34 -1.98 16.68 -3 16 C-2.814375 15.2575 -2.62875 14.515 -2.4375 13.75 C-2.00796892 11.05009037 -2.14877026 9.55368923 -3 7 C-4.98 7 -6.96 7 -9 7 C-9.33 9.31 -9.66 11.62 -10 14 C-9.01 14.33 -8.02 14.66 -7 15 C-7 15.66 -7 16.32 -7 17 C-7.99 17.33 -8.98 17.66 -10 18 C-11.32 17.34 -12.64 16.68 -14 16 C-14 11.71 -14 7.42 -14 3 C-13.34 3 -12.68 3 -12 3 C-12 2.01 -12 1.02 -12 0 C-3.1409396 -1.32885906 -3.1409396 -1.32885906 0 0 Z M-8 1 C-8 1.66 -8 2.32 -8 3 C-7.01 3.33 -6.02 3.66 -5 4 C-5 3.01 -5 2.02 -5 1 C-5.99 1 -6.98 1 -8 1 Z M1 12 C1 12.66 1 13.32 1 14 C1.66 14 2.32 14 3 14 C3 13.34 3 12.68 3 12 C2.34 12 1.68 12 1 12 Z " fill="#FAFDF3" transform="translate(213,324)"/>
<path d="M0 0 C2.5 2.0625 2.5 2.0625 4 5 C4.21769984 8.60258128 3.73034062 11.80839163 1.8125 14.9375 C-1.67915575 16.98433268 -4.77845801 17.28407953 -8.6875 16.375 C-11.66131053 14.60678833 -12.69099157 13.19979839 -14 10 C-13.92371866 6.2622144 -13.47264189 4.56412097 -11.0625 1.6875 C-7.16042424 -1.50510744 -4.88963936 -1.18025778 0 0 Z M-6 3 C-5.01 4.32 -4.02 5.64 -3 7 C-3 5.68 -3 4.36 -3 3 C-3.99 3 -4.98 3 -6 3 Z M-7 11 C-7 11.66 -7 12.32 -7 13 C-5.68 12.67 -4.36 12.34 -3 12 C-4.32 11.67 -5.64 11.34 -7 11 Z " fill="#F8FDF1" transform="translate(516,293)"/>
<path d="M0 0 C2.38125912 2.38125912 2.34521641 3.10707538 2.4375 6.375 C2.34675899 9.89121404 2.19253464 10.75495592 -0.0625 13.625 C-3.89534494 15.41909763 -5.97847846 15.21404424 -10 14 C-12.14245504 11.58973808 -12.0088507 10.2124167 -11.875 7 C-9.95422085 0.41447149 -6.59604045 -0.73289338 0 0 Z M-5 4 C-5.66 4.66 -6.32 5.32 -7 6 C-5.35 6 -3.7 6 -2 6 C-2.33 5.34 -2.66 4.68 -3 4 C-3.66 4 -4.32 4 -5 4 Z " fill="#F9FDEE" transform="translate(196,327)"/>
<path d="M0 0 C0.99 0.33 1.98 0.66 3 1 C2.44238812 5.96082294 0.16807902 9.57323415 -2.375 13.75 C-2.77460938 14.43449219 -3.17421875 15.11898438 -3.5859375 15.82421875 C-6.6267612 20.87558707 -6.6267612 20.87558707 -10 22 C-10.66 21.01 -11.32 20.02 -12 19 C-11.66226562 18.48953125 -11.32453125 17.9790625 -10.9765625 17.453125 C-9.62444712 14.05661117 -10.0398231 11.36991048 -10.375 7.75 C-10.48585938 6.48671875 -10.59671875 5.2234375 -10.7109375 3.921875 C-10.85402344 2.47554688 -10.85402344 2.47554688 -11 1 C-9.35 1 -7.7 1 -6 1 C-5.67 2.98 -5.34 4.96 -5 7 C-4.319375 5.5459375 -4.319375 5.5459375 -3.625 4.0625 C-2 1 -2 1 0 0 Z " fill="#F9FEEF" transform="translate(380,326)"/>
<path d="M0 0 C0.8092352 2.83197445 1.11369405 5.30489745 1.06933594 8.24609375 C1.05892273 9.07375244 1.04850952 9.90141113 1.03778076 10.75415039 C1.02015686 11.63965576 1.00253296 12.52516113 0.984375 13.4375 C0.96787903 14.3545874 0.95138306 15.2716748 0.93438721 16.21655273 C0.89694083 18.1532183 0.85640127 20.08982619 0.81298828 22.02636719 C0.75023586 24.98886518 0.70880539 27.95119201 0.66796875 30.9140625 C0.6289198 32.79690275 0.58859792 34.67971711 0.546875 36.5625 C0.53734802 37.44800537 0.52782104 38.33351074 0.51800537 39.24584961 C0.3479203 45.3605789 0.3479203 45.3605789 -1.40917969 48.58984375 C-3 50 -3 50 -5 50 C-5 49.34 -5 48.68 -5 48 C-4.01 47.505 -4.01 47.505 -3 47 C-2.83279639 40.89460368 -2.67219567 34.78908383 -2.51782227 28.68334961 C-2.46431893 26.60452552 -2.40898342 24.52574778 -2.35180664 22.44702148 C-2.27012741 19.46608477 -2.19495162 16.48504569 -2.12109375 13.50390625 C-2.09405869 12.56849503 -2.06702362 11.6330838 -2.03916931 10.66932678 C-2.01907303 9.80850998 -1.99897675 8.94769318 -1.97827148 8.06079102 C-1.95828598 7.29912125 -1.93830048 6.53745148 -1.91770935 5.75270081 C-1.80426891 3.97134241 -1.80426891 3.97134241 -3 3 C-6.36629251 2.85363946 -8.78419562 2.92806521 -12 4 C-12.73323796 6.01508358 -12.73323796 6.01508358 -13 8 C-13.66 8 -14.32 8 -15 8 C-14.7395304 4.78754157 -14.42509628 3.3852435 -12 1.1875 C-7.93801182 -0.42037032 -4.31343181 -0.25373128 0 0 Z " fill="#F6FEE4" transform="translate(407,257)"/>
<path d="M0 0 C2.73224637 2.60904162 3.24620336 4.7698229 3.43359375 8.40625 C3.45081043 10.10407988 3.4515848 11.80214125 3.4375 13.5 C3.45748047 14.35464844 3.47746094 15.20929688 3.49804688 16.08984375 C3.49740234 16.91613281 3.49675781 17.74242187 3.49609375 18.59375 C3.49794678 19.34333984 3.4997998 20.09292969 3.50170898 20.86523438 C3 23 3 23 -1 27 C3.29 27 7.58 27 12 27 C12.33 28.32 12.66 29.64 13 31 C12 32 12 32 10.15234375 32.09765625 C8.1015625 32.06510417 6.05078125 32.03255208 4 32 C4.33 33.32 4.66 34.64 5 36 C2.525 36.495 2.525 36.495 0 37 C1.485 36.505 1.485 36.505 3 36 C2.835 35.38125 2.67 34.7625 2.5 34.125 C2 32 2 32 2 30 C0.68 29.34 -0.64 28.68 -2 28 C-2.25 20.375 -2.25 20.375 0 17 C0.27356843 15.06862318 0.27356843 15.06862318 0.1953125 12.98828125 C0.18564453 11.85229492 0.18564453 11.85229492 0.17578125 10.69335938 C0.15064453 9.51483398 0.15064453 9.51483398 0.125 8.3125 C0.11597656 7.51521484 0.10695313 6.71792969 0.09765625 5.89648438 C0.07411585 3.930861 0.03824547 1.96539225 0 0 Z " fill="#F6FDE6" transform="translate(290,164)"/>
<path d="M0 0 C0.33 0 0.66 0 1 0 C1.33 14.19 1.66 28.38 2 43 C6.95 43 11.9 43 17 43 C17 41.68 17 40.36 17 39 C17.66 39 18.32 39 19 39 C19.33 38.01 19.66 37.02 20 36 C22.14809171 39.22213757 22.29386153 40.27775401 22 44 C19.69990227 46.30009773 14.15209334 45.18537365 11.0625 45.1875 C10.12986328 45.19974609 9.19722656 45.21199219 8.23632812 45.22460938 C7.34494141 45.22654297 6.45355469 45.22847656 5.53515625 45.23046875 C4.714104 45.23457764 3.89305176 45.23868652 3.04711914 45.24291992 C1 45 1 45 -1 43 C-1.24291992 39.90234375 -1.24291992 39.90234375 -1.23046875 35.9375 C-1.23001053 35.23157715 -1.22955231 34.5256543 -1.2290802 33.79833984 C-1.22605496 32.29864836 -1.21816055 30.79896009 -1.20581055 29.29931641 C-1.18779199 27.03666649 -1.18529937 24.77443225 -1.18554688 22.51171875 C-1.16643698 14.95297107 -0.93144898 7.51120457 0 0 Z " fill="#F9FEE0" transform="translate(302,202)"/>
<path d="M0 0 C3.33583874 3.03258067 4.82797367 5.46368315 5.3347168 9.98925781 C5.37250244 11.13233398 5.41028809 12.27541016 5.44921875 13.453125 C5.49240234 14.71253906 5.53558594 15.97195313 5.58007812 17.26953125 C5.61552734 18.58308594 5.65097656 19.89664062 5.6875 21.25 C5.73455078 22.54808594 5.78160156 23.84617187 5.83007812 25.18359375 C6.23629549 38.24914234 6.23629549 38.24914234 5 44 C1.4040102 47.19643538 -0.15232978 48 -5 48 C-4.67 47.01 -4.34 46.02 -4 45 C-2.68 45.33 -1.36 45.66 0 46 C0.33 45.01 0.66 44.02 1 43 C1.99 42.505 1.99 42.505 3 42 C3.07479497 37.46512356 3.12890262 32.93061518 3.16479492 28.39526367 C3.17977543 26.85613745 3.2001671 25.31705312 3.22631836 23.77807617 C3.36563699 15.36159168 3.41278896 7.87359974 0 0 Z " fill="#F4FEE2" transform="translate(496,261)"/>
<path d="M0 0 C0.66 0.33 1.32 0.66 2 1 C2.59355614 3.64860427 2.74209269 6.29197322 3 9 C-1.6081187 9.07436755 -6.21588514 9.12870394 -10.82446289 9.16479492 C-12.39093107 9.17984622 -13.95735736 9.20029207 -15.52368164 9.22631836 C-17.78021606 9.26286433 -20.03619153 9.27976261 -22.29296875 9.29296875 C-22.98899704 9.30845261 -23.68502533 9.32393646 -24.40214539 9.33988953 C-28.79122188 9.3413957 -31.45844685 8.59993783 -35 6 C-34.34 5.67 -33.68 5.34 -33 5 C-32.34 5.33 -31.68 5.66 -31 6 C-28.82175039 6.08559118 -26.64084745 6.10713412 -24.4609375 6.09765625 C-23.15898437 6.09443359 -21.85703125 6.09121094 -20.515625 6.08789062 C-19.13541601 6.07953466 -17.75520768 6.07106971 -16.375 6.0625 C-14.98698074 6.05748501 -13.59895978 6.0529221 -12.2109375 6.04882812 C-8.80724868 6.03700976 -5.40364561 6.02053434 -2 6 C-2 5.01 -2 4.02 -2 3 C-1.34 3 -0.68 3 0 3 C0 2.01 0 1.02 0 0 Z " fill="#F7FEE6" transform="translate(273,238)"/>
<path d="M0 0 C1.32 0.66 2.64 1.32 4 2 C3.34 5.96 2.68 9.92 2 14 C3.32 14.33 4.64 14.66 6 15 C6 15.99 6 16.98 6 18 C2.64998162 19.11667279 0.40745188 18.76286236 -3 18 C-2.57045059 11.74892565 -1.98598493 5.95795479 0 0 Z " fill="#F8FEE7" transform="translate(178,323)"/>
<path d="M0 0 C2.03123075 2.03123075 1.25669618 6.17768866 1.31640625 8.97265625 C1.33718735 9.77029892 1.35796844 10.56794159 1.37937927 11.38975525 C1.44496158 13.94724611 1.50379967 16.5048428 1.5625 19.0625 C1.60567699 20.79232882 1.64929101 22.52214679 1.69335938 24.25195312 C1.80065172 28.5011926 1.90189426 32.7505389 2 37 C4.97 37.33 7.94 37.66 11 38 C11 38.66 11 39.32 11 40 C6.36004635 40.3237177 3.59114835 40.06815459 0 37 C-0.45571003 34.14715721 -0.58612807 31.89483029 -0.48828125 29.05078125 C-0.47766914 27.89185616 -0.47766914 27.89185616 -0.46684265 26.70951843 C-0.43886255 24.24285858 -0.37612407 21.77847296 -0.3125 19.3125 C-0.2874215 17.64000676 -0.26460754 15.96747791 -0.24414062 14.29492188 C-0.18902491 10.19573891 -0.10273296 6.09825493 0 2 C-1.2478125 2.13277344 -2.495625 2.26554687 -3.78125 2.40234375 C-4.48314453 2.47702881 -5.18503906 2.55171387 -5.90820312 2.62866211 C-8.92607394 3.16439758 -11.36283667 4.48363109 -14 6 C-13.08486681 3.71216703 -12.34515354 2.26550272 -10.375 0.75 C-6.82373337 -0.37145262 -3.71989413 -0.18294561 0 0 Z " fill="#F7FEE4" transform="translate(375,257)"/>
<path d="M0 0 C1.9375 1.6875 1.9375 1.6875 3 3 C-2.13280498 3.3755711 -5.35013025 2.07583471 -10 0 C-15.20783818 -1.48795377 -17.31347239 -0.48672894 -22 2 C-25.875 2.6875 -25.875 2.6875 -29 3 C-22.15350884 -5.45743026 -8.70963115 -5.00340513 0 0 Z " fill="#F7FDE8" transform="translate(260,260)"/>
<path d="M0 0 C0 0.99 0 1.98 0 3 C0.99 3 1.98 3 3 3 C3 5.64 3 8.28 3 11 C2.01 11.33 1.02 11.66 0 12 C0.33 10.02 0.66 8.04 1 6 C-0.65 6 -2.3 6 -4 6 C-4 7.98 -4 9.96 -4 12 C-4.99 11.67 -5.98 11.34 -7 11 C-7.48798077 4.65625 -7.48798077 4.65625 -5.1875 1.5625 C-3 0 -3 0 0 0 Z " fill="#FCFDFA" transform="translate(414,326)"/>
<path d="M0 0 C1.25 2.0625 1.25 2.0625 2 4 C1.01 3.67 0.02 3.34 -1 3 C-1 2.34 -1 1.68 -1 1 C-2.32 1.99 -3.64 2.98 -5 4 C-5 3.01 -5 2.02 -5 1 C-6.65 1.33 -8.3 1.66 -10 2 C-10.66 5.63 -11.32 9.26 -12 13 C-9.525 13.99 -9.525 13.99 -7 15 C-7 15.66 -7 16.32 -7 17 C-7.99 17.33 -8.98 17.66 -10 18 C-11.32 17.34 -12.64 16.68 -14 16 C-14 11.71 -14 7.42 -14 3 C-13.34 3 -12.68 3 -12 3 C-12 2.01 -12 1.02 -12 0 C-2.76923077 -1.38461538 -2.76923077 -1.38461538 0 0 Z " fill="#F7FEE6" transform="translate(213,324)"/>
<path d="M0 0 C3.69792315 4.93056419 3.51793463 7.52355428 3.5 13.4375 C3.52835937 14.28376953 3.55671875 15.13003906 3.5859375 16.00195312 C3.60503355 22.09836625 3.60503355 22.09836625 1.8515625 24.71142578 C0.46875 26.09765625 0.46875 26.09765625 -2 28 C-2 25.03 -2 22.06 -2 19 C-1.01 19 -0.02 19 1 19 C0.67 12.73 0.34 6.46 0 0 Z " fill="#F6FDE5" transform="translate(290,99)"/>
<path d="M0 0 C1.32 0.33 2.64 0.66 4 1 C3.01 1.66 2.02 2.32 1 3 C-0.12050151 6.36150452 -0.13296652 8.96286726 -0.125 12.5 C-0.12757813 13.6446875 -0.13015625 14.789375 -0.1328125 15.96875 C-0.13684408 19.04679859 -0.13684408 19.04679859 1 22 C3.98594424 23.49297212 6.70853624 23.11755228 10 23 C13.01327566 21.49336217 13.61056618 18.96833589 15 16 C15.66 16.33 16.32 16.66 17 17 C17 17.99 17 18.98 17 20 C16.34 20 15.68 20 15 20 C14.896875 20.639375 14.79375 21.27875 14.6875 21.9375 C14.460625 22.618125 14.23375 23.29875 14 24 C11.22947819 24.92350727 9.43311242 25.16329585 6.5625 25.1875 C5.80066406 25.20167969 5.03882813 25.21585937 4.25390625 25.23046875 C1.76652685 24.97612666 0.15191894 24.24017196 -2 23 C-2.05413245 20.10391407 -2.09373641 17.20884805 -2.125 14.3125 C-2.14175781 13.49587891 -2.15851563 12.67925781 -2.17578125 11.83789062 C-2.2114802 7.42907071 -2.07580814 4.01268424 0 0 Z " fill="#F7FEE4" transform="translate(291,271)"/>
<path d="M0 0 C0.33 0 0.66 0 1 0 C1.25 2.3125 1.25 2.3125 1 5 C0.360625 5.4434375 -0.27875 5.886875 -0.9375 6.34375 C-3.59089057 8.47450304 -3.7339722 9.8763216 -4.25 13.1875 C-4.39953125 14.08855469 -4.5490625 14.98960937 -4.703125 15.91796875 C-4.80109375 16.60503906 -4.8990625 17.29210937 -5 18 C-5.66 18 -6.32 18 -7 18 C-7.0825 18.763125 -7.165 19.52625 -7.25 20.3125 C-8.14615794 23.52373261 -9.21611025 24.29374499 -12 26 C-11.67 24.68 -11.34 23.36 -11 22 C-10.34 22 -9.68 22 -9 22 C-9 21.34 -9 20.68 -9 20 C-9.66 19.67 -10.32 19.34 -11 19 C-10.34 18.67 -9.68 18.34 -9 18 C-7.07538491 15.11307736 -6.70148535 13.95780238 -6.1875 10.6875 C-5.21496539 5.88757111 -3.44077371 3.44077371 0 0 Z " fill="#F6FEE8" transform="translate(125,279)"/>
<path d="M0 0 C11.26423194 0.97949843 20.87759265 6.64320936 30 13 C30.33 13.66 30.66 14.32 31 15 C30.01 15.33 29.02 15.66 28 16 C28 15.34 28 14.68 28 14 C27.34 14 26.68 14 26 14 C26 13.34 26 12.68 26 12 C25.278125 11.731875 24.55625 11.46375 23.8125 11.1875 C21 10 21 10 18.5 8.4375 C15.94325637 6.96737241 13.89973855 6.41424836 11 6 C11 5.34 11 4.68 11 4 C9.1128125 3.8453125 9.1128125 3.8453125 7.1875 3.6875 C4.39500343 3.35141192 3.25566879 3.19974124 1 1.4375 C0.67 0.963125 0.34 0.48875 0 0 Z " fill="#F7FEEA" transform="translate(310,77)"/>
<path d="M0 0 C3.9975 3.5875 3.9975 3.5875 5.4375 5.1875 C5.1075 5.8475 4.7775 6.5075 4.4375 7.1875 C3.715625 6.40375 2.99375 5.62 2.25 4.8125 C-2.4476121 0.79734971 -8.63790551 0.77644337 -14.5625 0.1875 C-14.8925 0.8475 -15.2225 1.5075 -15.5625 2.1875 C-17.71884036 2.1875 -19.48696352 1.7409764 -21.5625 1.1875 C-15.08177096 -3.13298603 -6.92233759 -3.52189106 0 0 Z " fill="#F6FEE3" transform="translate(210.5625,258.8125)"/>
<path d="M0 0 C0.66 0.33 1.32 0.66 2 1 C0.6875 3 0.6875 3 -1 5 C-1.99 5 -2.98 5 -4 5 C-4 5.66 -4 6.32 -4 7 C-4.66 7 -5.32 7 -6 7 C-6 7.99 -6 8.98 -6 10 C-7.64453125 11.5703125 -7.64453125 11.5703125 -9.8125 13.125 C-10.52019531 13.64320312 -11.22789062 14.16140625 -11.95703125 14.6953125 C-14 16 -14 16 -17 17 C-13.61990778 9.48503768 -6.5571142 4.64959007 0 0 Z " fill="#F8FEE8" transform="translate(235,90)"/>
<path d="M0 0 C3.52629144 1.17543048 3.5787288 1.65519018 5.3125 4.75 C9.88768462 11.99306721 16.64191161 17.36481755 23 23 C17.4776662 23 13.78267784 17.69327925 10 14 C2.03732083 5.82673758 2.03732083 5.82673758 0 0 Z " fill="#F6FEE6" transform="translate(211,216)"/>
<path d="M0 0 C0.33 0 0.66 0 1 0 C1.13277344 0.67546875 1.26554687 1.3509375 1.40234375 2.046875 C1.57894531 2.93890625 1.75554687 3.8309375 1.9375 4.75 C2.11152344 5.63171875 2.28554688 6.5134375 2.46484375 7.421875 C2.93739322 9.93075204 2.93739322 9.93075204 3.65625 12.03125 C4.11277128 14.64587189 3.47206995 16.27596973 2.5625 18.75 C2.27503906 19.54921875 1.98757813 20.3484375 1.69140625 21.171875 C1.46324219 21.77515625 1.23507812 22.3784375 1 23 C0.67 23 0.34 23 0 23 C-1.14500285 15.19636521 -0.79773542 7.83007996 0 0 Z " fill="#FAFDE8" transform="translate(459,215)"/>
<path d="M0 0 C3.06008353 1.40598433 3.80118966 3.11184649 5.3125 6.0625 C5.9725 6.7225 6.6325 7.3825 7.3125 8.0625 C4.06978494 7.5034112 2.38192576 6.6492822 0.3125 4.0625 C0.3125 3.4025 0.3125 2.7425 0.3125 2.0625 C-4.15696913 4.59922572 -6.84134998 6.79327497 -9.6875 11.0625 C-9.5625 7.8125 -9.5625 7.8125 -8.6875 4.0625 C-5.76052938 1.40161762 -3.99337835 0.09286926 0 0 Z " fill="#F7FEE6" transform="translate(421.6875,287.9375)"/>
<path d="M0 0 C0.66 0.33 1.32 0.66 2 1 C2 8.59 2 16.18 2 24 C1.34 24 0.68 24 0 24 C-1.21611807 19.25134847 -1.14816693 14.61505567 -1.125 9.75 C-1.12886719 8.92242187 -1.13273437 8.09484375 -1.13671875 7.2421875 C-1.12669335 1.12669335 -1.12669335 1.12669335 0 0 Z " fill="#F6FEE0" transform="translate(471,193)"/>
<path d="M0 0 C0.66 0 1.32 0 2 0 C2 0.66 2 1.32 2 2 C2.55171875 1.66226562 3.1034375 1.32453125 3.671875 0.9765625 C7.75992662 -0.73822425 11.68053804 0.43164974 16 1 C15.67 4.63 15.34 8.26 15 12 C14.67 12 14.34 12 14 12 C13.34 9.36 12.68 6.72 12 4 C7.46859347 3.06619039 7.46859347 3.06619039 3 4 C2.67 5.65 2.34 7.3 2 9 C1.67 9 1.34 9 1 9 C0.67 6.03 0.34 3.06 0 0 Z " fill="#F7FEE5" transform="translate(472,267)"/>
<path d="M0 0 C1.31484375 0.00386719 2.6296875 0.00773437 3.984375 0.01171875 C7.25 0.3125 7.25 0.3125 9.25 2.3125 C5.48699626 3.56683458 1.97789091 3.41945422 -1.9375 3.375 C-2.68708984 3.37048828 -3.43667969 3.36597656 -4.20898438 3.36132812 C-6.05602383 3.34956354 -7.90302213 3.33162865 -9.75 3.3125 C-10.08 3.9725 -10.41 4.6325 -10.75 5.3125 C-11.74 4.6525 -12.73 3.9925 -13.75 3.3125 C-8.99419307 0.51366331 -5.49227585 -0.07055295 0 0 Z " fill="#F6FEE7" transform="translate(297.75,256.6875)"/>
<path d="M0 0 C0.33 0 0.66 0 1 0 C1.08690253 4.43737712 1.14035926 8.87453634 1.1875 13.3125 C1.21263672 14.57513672 1.23777344 15.83777344 1.26367188 17.13867188 C1.27817383 18.95141602 1.27817383 18.95141602 1.29296875 20.80078125 C1.31653442 22.47394409 1.31653442 22.47394409 1.34057617 24.1809082 C1 27 1 27 -0.390625 28.86914062 C-3.35998829 30.95562284 -6.48636181 30.17280188 -10 30 C-10 29.67 -10 29.34 -10 29 C-8.02 29 -6.04 29 -4 29 C-3.67 28.01 -3.34 27.02 -3 26 C-2.01 26 -1.02 26 0 26 C0 17.42 0 8.84 0 0 Z " fill="#F1FFD6" transform="translate(472,280)"/>
<path d="M0 0 C0.99 0.495 0.99 0.495 2 1 C2.625 4.0625 2.625 4.0625 3 7 C4.52100023 5.47899977 5.72023232 3.72490426 7 2 C7.33 2.66 7.66 3.32 8 4 C8.66 3.67 9.32 3.34 10 3 C10 4.98 10 6.96 10 9 C7.00112135 9.96392528 4.91185125 10.35886391 2 9 C0.21715186 5.70173093 0 3.8225249 0 0 Z " fill="#F5FAE9" transform="translate(283,237)"/>
<path d="M0 0 C2.86724686 0.57344937 3.8614515 0.8614515 6 3 C6.125 6.125 6.125 6.125 6 9 C5.01 9.495 5.01 9.495 4 10 C3.60914534 12.09508223 3.60914534 12.09508223 3.5 14.5 C3.34375 16.96875 3.34375 16.96875 3 19 C2.34 19.33 1.68 19.66 1 20 C1.14194764 17.93722893 1.28872216 15.87478969 1.4375 13.8125 C1.51871094 12.66394531 1.59992188 11.51539063 1.68359375 10.33203125 C1.95403812 7.48401829 2.37521747 4.78789518 3 2 C2.01 1.67 1.02 1.34 0 1 C0 0.67 0 0.34 0 0 Z " fill="#F9FEE8" transform="translate(334,175)"/>
<path d="M0 0 C1.93166016 0.01740234 1.93166016 0.01740234 3.90234375 0.03515625 C5.19269531 0.04417969 6.48304688 0.05320312 7.8125 0.0625 C8.81152344 0.07410156 9.81054688 0.08570313 10.83984375 0.09765625 C10.83984375 0.75765625 10.83984375 1.41765625 10.83984375 2.09765625 C6.21984375 2.09765625 1.59984375 2.09765625 -3.16015625 2.09765625 C-2.32760712 4.33105521 -2.32760712 4.33105521 0.125 4.94921875 C1.04152344 5.20445312 1.95804687 5.4596875 2.90234375 5.72265625 C4.28099609 6.11324219 4.28099609 6.11324219 5.6875 6.51171875 C6.39777344 6.70507812 7.10804688 6.8984375 7.83984375 7.09765625 C7.83984375 7.42765625 7.83984375 7.75765625 7.83984375 8.09765625 C3.01624186 8.29060033 -0.65662363 7.85513239 -5.16015625 6.09765625 C-4.08838165 0.12634059 -4.08838165 0.12634059 0 0 Z " fill="#F6FEEA" transform="translate(431.16015625,268.90234375)"/>
<path d="M0 0 C3.63 0 7.26 0 11 0 C10.34 0.66 9.68 1.32 9 2 C9.99 2.66 10.98 3.32 12 4 C9.36 4 6.72 4 4 4 C4 4.99 4 5.98 4 7 C3.01 7 2.02 7 1 7 C0.67 5.35 0.34 3.7 0 2 C0.66 2 1.32 2 2 2 C1.34 1.34 0.68 0.68 0 0 Z " fill="#F9FEEF" transform="translate(321,208)"/>
<path d="M0 0 C0.33 0 0.66 0 1 0 C1 8.58 1 17.16 1 26 C4.465 25.505 4.465 25.505 8 25 C6.68 26.32 5.36 27.64 4 29 C2.68 28.34 1.36 27.68 0 27 C0 18.09 0 9.18 0 0 Z " fill="#F8FFE0" transform="translate(332,218)"/>
<path d="M0 0 C17.27911373 -0.56618455 17.27911373 -0.56618455 24 3 C24.33 3.66 24.66 4.32 25 5 C24.03964844 4.69320313 23.07929688 4.38640625 22.08984375 4.0703125 C17.63211169 2.79667477 13.16489716 2.32745161 8.5625 1.875 C7.73556641 1.78863281 6.90863281 1.70226562 6.05664062 1.61328125 C4.03833222 1.40328384 2.01923867 1.20085549 0 1 C0 0.67 0 0.34 0 0 Z " fill="#F8FEE1" transform="translate(426,257)"/>
<path d="M0 0 C1.30453125 -0.02578125 2.6090625 -0.0515625 3.953125 -0.078125 C7.93091119 0.2656343 10.33935866 1.23750977 13.75 3.25 C12.76 3.745 12.76 3.745 11.75 4.25 C11.09 3.92 10.43 3.59 9.75 3.25 C6.11857028 3.22416666 2.5007686 3.27861218 -1.12890625 3.37695312 C-3.16949275 3.40670439 -5.21096585 3.33495976 -7.25 3.25 C-7.91 2.59 -8.57 1.93 -9.25 1.25 C-6.21764223 -0.26617889 -3.37074987 0.03965588 0 0 Z " fill="#F5FEE3" transform="translate(97.25,256.75)"/>
<path d="M0 0 C0.66 0.99 1.32 1.98 2 3 C1.360625 3.37125 0.72125 3.7425 0.0625 4.125 C-2.63858072 6.58052793 -2.68407005 8.44578805 -3 12 C-3.12375 11.360625 -3.2475 10.72125 -3.375 10.0625 C-3.58125 9.381875 -3.7875 8.70125 -4 8 C-4.66 7.67 -5.32 7.34 -6 7 C-5.34 7 -4.68 7 -4 7 C-4 6.34 -4 5.68 -4 5 C-4.99 5.66 -5.98 6.32 -7 7 C-7.99 6.67 -8.98 6.34 -10 6 C-8.90554162 5.13342884 -7.79902219 4.28207276 -6.6875 3.4375 C-6.07261719 2.96183594 -5.45773438 2.48617187 -4.82421875 1.99609375 C-4.22222656 1.66738281 -3.62023437 1.33867187 -3 1 C-2.01 1.33 -1.02 1.66 0 2 C0 1.34 0 0.68 0 0 Z " fill="#F4FDE8" transform="translate(245,154)"/>
<path d="M0 0 C0.33 0 0.66 0 1 0 C1.01458252 0.57443848 1.02916504 1.14887695 1.04418945 1.74072266 C1.11913725 4.36945696 1.21563994 6.99698552 1.3125 9.625 C1.33505859 10.52863281 1.35761719 11.43226563 1.38085938 12.36328125 C1.59366449 17.66406327 2.20936904 21.3489484 5 26 C5.6875 28.375 5.6875 28.375 6 30 C0.11631203 24.41803962 0.11631203 24.41803962 -0.11352539 19.63989258 C-0.10828857 18.73392334 -0.10305176 17.8279541 -0.09765625 16.89453125 C-0.09443359 15.91162109 -0.09121094 14.92871094 -0.08789062 13.91601562 C-0.07951172 12.89185547 -0.07113281 11.86769531 -0.0625 10.8125 C-0.05798828 9.77673828 -0.05347656 8.74097656 -0.04882812 7.67382812 C-0.0370401 5.11582734 -0.02058515 2.55794267 0 0 Z " fill="#F8FEE1" transform="translate(274,273)"/>
<path d="M0 0 C0.66 0.66 1.32 1.32 2 2 C2.99 2 3.98 2 5 2 C4.34 4.97 3.68 7.94 3 11 C1.68 11 0.36 11 -1 11 C-1.14285714 3.57142857 -1.14285714 3.57142857 0 0 Z " fill="#F6FEE5" transform="translate(300,330)"/>
<path d="M0 0 C0.66 0.99 1.32 1.98 2 3 C1.01 3.33 0.02 3.66 -1 4 C-0.67 4.99 -0.34 5.98 0 7 C2.50447516 8.21869929 2.50447516 8.21869929 5 9 C5 9.66 5 10.32 5 11 C5.99 11 6.98 11 8 11 C8 11.66 8 12.32 8 13 C8.99 13.33 9.98 13.66 11 14 C6.60405194 14 5.36556338 13.28351372 1.75 11 C0.85796875 10.443125 -0.0340625 9.88625 -0.953125 9.3125 C-1.62859375 8.879375 -2.3040625 8.44625 -3 8 C-2.45276317 4.62537285 -1.9451 2.91765 0 0 Z " fill="#F7FEE4" transform="translate(210,116)"/>
<path d="M0 0 C0.66 0 1.32 0 2 0 C2.33 1.32 2.66 2.64 3 4 C2.34 4 1.68 4 1 4 C0.67 6.97 0.34 9.94 0 13 C-0.66 12.67 -1.32 12.34 -2 12 C-3.17466975 8.11455391 -3.17293888 6.40603042 -1.5625 2.625 C-1.046875 1.75875 -0.53125 0.8925 0 0 Z " fill="#F1FCEB" transform="translate(505,294)"/>
<path d="M0 0 C0 0.66 0 1.32 0 2 C-2.93061274 4.68639502 -5.13848874 6.1725333 -9 7 C-9.33 7.66 -9.66 8.32 -10 9 C-11.32 9 -12.64 9 -14 9 C-12.68786941 5.06360824 -11.17198478 4.71346403 -7.5625 2.8125 C-6.07943359 2.01779297 -6.07943359 2.01779297 -4.56640625 1.20703125 C-2 0 -2 0 0 0 Z " fill="#F9FDEB" transform="translate(364,195)"/>
<path d="M0 0 C0.99 0 1.98 0 3 0 C4.484375 2.1171875 4.484375 2.1171875 6 5 C6.54140625 5.99257812 7.0828125 6.98515625 7.640625 8.0078125 C8.43726563 9.55082031 8.43726563 9.55082031 9.25 11.125 C9.79140625 12.15882813 10.3328125 13.19265625 10.890625 14.2578125 C12 17 12 17 11 20 C9.35347636 17.04205036 7.70789892 14.0835754 6.0625 11.125 C5.59392578 10.28324219 5.12535156 9.44148437 4.64257812 8.57421875 C3.9706543 7.36572266 3.9706543 7.36572266 3.28515625 6.1328125 C2.66459351 5.01737061 2.66459351 5.01737061 2.03149414 3.87939453 C1.32917066 2.59975283 0.6528003 1.3056006 0 0 Z " fill="#F6FEE2" transform="translate(250,160)"/>
<path d="M0 0 C0.33 0.99 0.66 1.98 1 3 C1.66 3 2.32 3 3 3 C3 4.98 3 6.96 3 9 C1.02 9.99 1.02 9.99 -1 11 C-2.23825459 7.28523623 -1.70587257 4.81171187 -1 1 C-0.67 0.67 -0.34 0.34 0 0 Z " fill="#F6FEE4" transform="translate(394,331)"/>
<path d="M0 0 C1.32 0.33 2.64 0.66 4 1 C3.34 1.66 2.68 2.32 2 3 C1.62792646 5.71615864 1.62792646 5.71615864 1.5859375 8.8828125 C1.54726562 10.04941406 1.50859375 11.21601563 1.46875 12.41796875 C1.4378125 13.64128906 1.406875 14.86460937 1.375 16.125 C1.33632812 17.35605469 1.29765625 18.58710938 1.2578125 19.85546875 C1.1633001 22.90349376 1.07774506 25.95150862 1 29 C0.67 29 0.34 29 0 29 C0 19.43 0 9.86 0 0 Z " fill="#FBFEDE" transform="translate(187,273)"/>
<path d="M0 0 C2.33046701 3.6413547 2.30891093 6.7524747 2 11 C1.01 12.485 1.01 12.485 0 14 C-2 12 -2 12 -2.01171875 9.94140625 C-1.90472656 9.15636719 -1.79773438 8.37132813 -1.6875 7.5625 C-1.58824219 6.78003906 -1.48898437 5.99757813 -1.38671875 5.19140625 C-1 3 -1 3 0 0 Z " fill="#F8FCEB" transform="translate(302,112)"/>
<path d="M0 0 C0.66 0 1.32 0 2 0 C1.67 1.32 1.34 2.64 1 4 C0.34 4 -0.32 4 -1 4 C-1.33 5.65 -1.66 7.3 -2 9 C-5.96 9 -9.92 9 -14 9 C-14 8.34 -14 7.68 -14 7 C-13.06027344 7.01740234 -13.06027344 7.01740234 -12.1015625 7.03515625 C-10.87566406 7.04869141 -10.87566406 7.04869141 -9.625 7.0625 C-8.40683594 7.07990234 -8.40683594 7.07990234 -7.1640625 7.09765625 C-4.95062858 7.14466334 -4.95062858 7.14466334 -3 6 C-2.29788106 4.34795544 -1.63028587 2.68076231 -1 1 C-0.67 0.67 -0.34 0.34 0 0 Z " fill="#F5FEE7" transform="translate(106,287)"/>
<path d="M0 0 C0.96904356 2.69178766 0.95871669 4.27797427 0.53125 7.15625 C-0.01923875 11.13919804 -0.09805786 14.91946159 -0.0625 18.9375 C-0.05798828 19.62134766 -0.05347656 20.30519531 -0.04882812 21.00976562 C-0.0371956 22.67321604 -0.01926694 24.3366205 0 26 C-0.33 26 -0.66 26 -1 26 C-2.19128999 21.29202195 -2.18362934 16.6978463 -2.1875 11.875 C-2.20586914 10.65876953 -2.20586914 10.65876953 -2.22460938 9.41796875 C-2.22654297 8.63808594 -2.22847656 7.85820312 -2.23046875 7.0546875 C-2.23457764 6.34812012 -2.23868652 5.64155273 -2.24291992 4.91357422 C-2 3 -2 3 0 0 Z " fill="#F8FEE0" transform="translate(326,171)"/>
<path d="M0 0 C2.29688569 2.29688569 2.71851303 3.78928171 3.625 6.875 C3.88539063 7.73867187 4.14578125 8.60234375 4.4140625 9.4921875 C5 12 5 12 5 16 C4.34 16 3.68 16 3 16 C2.79503906 15.15695313 2.59007812 14.31390625 2.37890625 13.4453125 C2.10949219 12.34960938 1.84007812 11.25390625 1.5625 10.125 C1.29566406 9.03445312 1.02882813 7.94390625 0.75390625 6.8203125 C0.1213522 4.07515279 0.1213522 4.07515279 -1 2 C-0.67 1.34 -0.34 0.68 0 0 Z " fill="#F5FDE6" transform="translate(372,131)"/>
<path d="M0 0 C0.66 0.33 1.32 0.66 2 1 C1.67 1.99 1.34 2.98 1 4 C1.99 4 2.98 4 4 4 C4.33 3.34 4.66 2.68 5 2 C6.32 2.33 7.64 2.66 9 3 C8.67 3.66 8.34 4.32 8 5 C8.66 5.33 9.32 5.66 10 6 C2.49230769 6.36923077 2.49230769 6.36923077 0 4.5 C-0.33 4.005 -0.66 3.51 -1 3 C-0.67 2.01 -0.34 1.02 0 0 Z " fill="#F6FEE3" transform="translate(228,341)"/>
<path d="M0 0 C0.33 0 0.66 0 1 0 C1.375 3.25 1.375 3.25 1 7 C-1.5625 9.5625 -1.5625 9.5625 -5 11 C-8.875 10.25 -8.875 10.25 -12 9 C-12 8.67 -12 8.34 -12 8 C-11.06027344 7.90912109 -11.06027344 7.90912109 -10.1015625 7.81640625 C-8.87566406 7.69072266 -8.87566406 7.69072266 -7.625 7.5625 C-6.81289062 7.48128906 -6.00078125 7.40007812 -5.1640625 7.31640625 C-2.95727195 7.10909886 -2.95727195 7.10909886 -1 6 C-0.34227572 2.97065509 -0.34227572 2.97065509 0 0 Z " fill="#F5FEE5" transform="translate(150,289)"/>
<path d="M0 0 C0.33 0 0.66 0 1 0 C1.33 8.25 1.66 16.5 2 25 C1.01 25.33 0.02 25.66 -1 26 C-0.67 17.42 -0.34 8.84 0 0 Z " fill="#F7FEEF" transform="translate(471,236)"/>
<path d="M0 0 C2.96685036 4.45027554 6.45021018 10.23442319 5.5625 15.6875 C5.376875 16.450625 5.19125 17.21375 5 18 C3.03723564 15.05585347 2.28266038 12.94101364 1.375 9.5625 C0.98441406 8.14130859 0.98441406 8.14130859 0.5859375 6.69140625 C0 4 0 4 0 0 Z " fill="#F7FEE2" transform="translate(278,219)"/>
<path d="M0 0 C1.32 0.66 2.64 1.32 4 2 C2.02 2.99 0.04 3.98 -2 5 C-2 7.31 -2 9.62 -2 12 C-2.99 12.495 -2.99 12.495 -4 13 C-4.63019694 4.80743982 -4.63019694 4.80743982 -2 1.4375 C-1.34 0.963125 -0.68 0.48875 0 0 Z " fill="#F6FDE6" transform="translate(464,193)"/>
<path d="M0 0 C3.39417765 3.12621626 5.6062718 5.56541027 7 10 C4.5 8.625 4.5 8.625 2 7 C2 6.34 2 5.68 2 5 C1.01 5.33 0.02 5.66 -1 6 C-0.67 4.02 -0.34 2.04 0 0 Z " fill="#F8FEEE" transform="translate(243,172)"/>
<path d="M0 0 C0.33 0.99 0.66 1.98 1 3 C1.33 3.33 1.66 3.66 2 4 C2.33 4 2.66 4 3 4 C3 5.65 3 7.3 3 9 C1.35 9 -0.3 9 -2 9 C-1.125 1.125 -1.125 1.125 0 0 Z " fill="#F7FEE1" transform="translate(365,332)"/>
<path d="M0 0 C2.46717524 2.2639961 4.10134139 4.59060244 5.75 7.5 C6.42289062 8.66015625 6.42289062 8.66015625 7.109375 9.84375 C8 12 8 12 7 15 C6.401875 13.906875 5.80375 12.81375 5.1875 11.6875 C3.9824617 9.54759212 3.05955836 8.05530419 1.25 6.375 C0 5 0 5 -0.1875 2.3125 C-0.125625 1.549375 -0.06375 0.78625 0 0 Z " fill="#F6FEE5" transform="translate(364,116)"/>
<path d="M0 0 C-3.70198544 2.50428427 -6.62141858 3.31888733 -11 4 C-11.66 4.66 -12.32 5.32 -13 6 C-13.99 5.34 -14.98 4.68 -16 4 C-13.90049414 3.13444052 -11.7952093 2.28288723 -9.6875 1.4375 C-8.51574219 0.96183594 -7.34398437 0.48617187 -6.13671875 -0.00390625 C-3 -1 -3 -1 0 0 Z " fill="#F6FEE5" transform="translate(265,78)"/>
<path d="M0 0 C1.65 0 3.3 0 5 0 C5 1.98 5 3.96 5 6 C4.67 4.68 4.34 3.36 4 2 C3.34 2 2.68 2 2 2 C2.33 5.3 2.66 8.6 3 12 C0.8008587 7.60171741 0.48144941 4.81449408 0 0 Z " fill="#F7FEE7" transform="translate(369,327)"/>
<path d="M0 0 C3.35212973 3.08748791 5.85053527 5.51708756 7 10 C6.625 12.3125 6.625 12.3125 6 14 C5.566875 12.948125 5.13375 11.89625 4.6875 10.8125 C3.68434768 8.45270359 2.64056505 6.40094175 1.3125 4.1875 C0 2 0 2 0 0 Z " fill="#F5FEE4" transform="translate(263,263)"/>
<path d="M0 0 C0.33 0.99 0.66 1.98 1 3 C-2.3 3 -5.6 3 -9 3 C-9 3.66 -9 4.32 -9 5 C-9.99 4.67 -10.98 4.34 -12 4 C-7.81413519 0.81076967 -5.29441695 -0.50423019 0 0 Z " fill="#F3FEDD" transform="translate(337,257)"/>
<path d="M0 0 C1.32 0.33 2.64 0.66 4 1 C4.103125 1.598125 4.20625 2.19625 4.3125 2.8125 C5.08876455 5.28243264 6.07088921 6.32251235 8 8 C7.67 8.66 7.34 9.32 7 10 C4.09197539 7.78071806 2.04687238 6.07030857 0 3 C0 2.01 0 1.02 0 0 Z " fill="#F6FEE3" transform="translate(120,297)"/>
<path d="M0 0 C0.7425 0.61875 1.485 1.2375 2.25 1.875 C4.48801188 3.60437281 6.43739987 4.86106661 9 6 C6 7 6 7 4.2109375 6.29296875 C3.60507812 5.92816406 2.99921875 5.56335938 2.375 5.1875 C1.76398438 4.83042969 1.15296875 4.47335937 0.5234375 4.10546875 C-1 3 -1 3 -2 1 C-1.34 0.67 -0.68 0.34 0 0 Z " fill="#F4FEE6" transform="translate(418,280)"/>
<path d="M0 0 C0.66 0.66 1.32 1.32 2 2 C-1.75 5 -1.75 5 -4 5 C-4.33 7.31 -4.66 9.62 -5 12 C-5.33 12 -5.66 12 -6 12 C-6.35671933 8.16526716 -6.29771416 6.44657125 -4.125 3.1875 C-2 1 -2 1 0 0 Z " fill="#F7FEE8" transform="translate(128,260)"/>
<path d="M0 0 C-1.98 0.99 -1.98 0.99 -4 2 C-4 2.66 -4 3.32 -4 4 C-2.68 4.33 -1.36 4.66 0 5 C-2.31 5 -4.62 5 -7 5 C-7.33 4.34 -7.66 3.68 -8 3 C-5.53387212 -0.1151089 -3.89156016 -0.31553191 0 0 Z " fill="#F6FEE7" transform="translate(302,127)"/>
<path d="M0 0 C1.051875 0.61875 2.10375 1.2375 3.1875 1.875 C6.05015677 3.51579108 8.89207246 4.86984453 12 6 C8.23375329 7.25541557 6.62811066 6.37061958 3 5 C3 4.34 3 3.68 3 3 C2.01 2.67 1.02 2.34 0 2 C0 1.34 0 0.68 0 0 Z " fill="#F6FEE7" transform="translate(214,141)"/>
<path d="M0 0 C0 0.99 0 1.98 0 3 C-2.25 3.6875 -2.25 3.6875 -5 4 C-7.3125 2.5625 -7.3125 2.5625 -9 1 C-6.04335481 -0.4783226 -3.25770263 -0.06032783 0 0 Z " fill="#F4FEE3" transform="translate(325,327)"/>
<path d="M0 0 C0 4.01262338 -1.73091135 5.76826769 -4 9 C-4.33 9.66 -4.66 10.32 -5 11 C-5.66 11 -6.32 11 -7 11 C-5.72278474 6.00724943 -3.82669043 3.42388092 0 0 Z " fill="#F5FEE2" transform="translate(282,261)"/>
<path d="M0 0 C1.5625 1.25 1.5625 1.25 3 3 C2.6875 5.1875 2.6875 5.1875 2 7 C0.68 7 -0.64 7 -2 7 C-2 5.68 -2 4.36 -2 3 C-1.34 3 -0.68 3 0 3 C0 2.01 0 1.02 0 0 Z " fill="#F5F7EA" transform="translate(321,238)"/>
<path d="M0 0 C1.65 0 3.3 0 5 0 C5 0.99 5 1.98 5 3 C4.01 3.66 3.02 4.32 2 5 C2.33 6.65 2.66 8.3 3 10 C2.34 9.67 1.68 9.34 1 9 C0.5859375 6.93359375 0.5859375 6.93359375 0.375 4.4375 C0.30023438 3.61121094 0.22546875 2.78492188 0.1484375 1.93359375 C0.09945313 1.29550781 0.05046875 0.65742188 0 0 Z " fill="#F7FEDE" transform="translate(262,209)"/>
<path d="M0 0 C0.33 0.66 0.66 1.32 1 2 C1.66 2 2.32 2 3 2 C3.33 1.34 3.66 0.68 4 0 C4.93423645 3.01031744 5.04449911 3.86650268 4 7 C3.01 6.67 2.02 6.34 1 6 C0.67 4.02 0.34 2.04 0 0 Z " fill="#F7FEE6" transform="translate(264,334)"/>
<path d="M0 0 C0.99 0.33 1.98 0.66 3 1 C0.03 5.95 0.03 5.95 -3 11 C-3.33 10.34 -3.66 9.68 -4 9 C-3.22265625 6.8359375 -3.22265625 6.8359375 -2.0625 4.375 C-1.68222656 3.55773437 -1.30195313 2.74046875 -0.91015625 1.8984375 C-0.60980469 1.27195313 -0.30945313 0.64546875 0 0 Z " fill="#F5FEDE" transform="translate(367,207)"/>
<path d="M0 0 C3.317124 4.422832 3.30466674 5.71910976 3 11 C2.01 10.67 1.02 10.34 0 10 C0 6.7 0 3.4 0 0 Z " fill="#F7FEE4" transform="translate(258,192)"/>
<path d="M0 0 C0.66 0.33 1.32 0.66 2 1 C-2.43076923 6.78461538 -2.43076923 6.78461538 -5.3125 7.875 C-5.869375 7.91625 -6.42625 7.9575 -7 8 C-6.67 7.34 -6.34 6.68 -6 6 C-5.34 6 -4.68 6 -4 6 C-3.71125 5.38125 -3.4225 4.7625 -3.125 4.125 C-2 2 -2 2 0 0 Z " fill="#F4FEE0" transform="translate(455,299)"/>
<path d="M0 0 C3 2 3 2 3.8125 3.8125 C4.05991146 6.69896709 3.31210831 8.44484171 2 11 C1.01 11.495 1.01 11.495 0 12 C0.66 9.03 1.32 6.06 2 3 C1.34 3 0.68 3 0 3 C0 2.01 0 1.02 0 0 Z " fill="#F8FEE2" transform="translate(265,291)"/>
<path d="M0 0 C2.6875 -0.3125 2.6875 -0.3125 5 0 C5 1.32 5 2.64 5 4 C3.68 3.34 2.36 2.68 1 2 C0.34 3.32 -0.32 4.64 -1 6 C-1.66 5.67 -2.32 5.34 -3 5 C-1.8125 2.5 -1.8125 2.5 0 0 Z " fill="#F8FEDA" transform="translate(402,322)"/>
<path d="M0 0 C1.5625 1.6875 1.5625 1.6875 3 4 C2.6875 6.75 2.6875 6.75 2 9 C1.01 8.67 0.02 8.34 -1 8 C-0.67 5.36 -0.34 2.72 0 0 Z " fill="#FAFEDE" transform="translate(388,333)"/>
<path d="M0 0 C2.96175123 0.61277612 4.38058783 1.25372522 7 3 C6 4 6 4 2.9375 4.0625 C1.4834375 4.0315625 1.4834375 4.0315625 0 4 C0 2.68 0 1.36 0 0 Z " fill="#F7FEEC" transform="translate(204,327)"/>
<path d="M0 0 C0.99 0.33 1.98 0.66 3 1 C0.7448078 3.2551922 -1.0047587 3.97723468 -4 5 C-4.99 5 -5.98 5 -7 5 C-2.25 1.125 -2.25 1.125 0 0 Z " fill="#F5FEDC" transform="translate(423,258)"/>
<path d="M0 0 C0.99 0.33 1.98 0.66 3 1 C2.67 2.98 2.34 4.96 2 7 C1.34 6.67 0.68 6.34 0 6 C0 4.02 0 2.04 0 0 Z " fill="#F9FDF1" transform="translate(398,335)"/>
<path d="M0 0 C1.65 0 3.3 0 5 0 C4.67 1.65 4.34 3.3 4 5 C3.34 5 2.68 5 2 5 C2 4.34 2 3.68 2 3 C1.34 3 0.68 3 0 3 C0 2.01 0 1.02 0 0 Z " fill="#FAFEE8" transform="translate(410,333)"/>
<path d="M0 0 C0.33 1.98 0.66 3.96 1 6 C-1.5 4.625 -1.5 4.625 -4 3 C-4 2.34 -4 1.68 -4 1 C-2 0 -2 0 0 0 Z " fill="#FAFDFA" transform="translate(256,329)"/>
<path d="M0 0 C0.66 0 1.32 0 2 0 C2.33 0.99 2.66 1.98 3 3 C-0.21451269 4.60725635 -3.43612536 4.05748185 -7 4 C-7 3.67 -7 3.34 -7 3 C-5.02 3 -3.04 3 -1 3 C-0.67 2.01 -0.34 1.02 0 0 Z " fill="#F6FEE6" transform="translate(469,306)"/>
<path d="M0 0 C3.92300495 2.35380297 4.83857315 4.64464931 6 9 C3 8 3 8 1.3125 5.625 C0 3 0 3 0 0 Z " fill="#F4FEE7" transform="translate(361,296)"/>
<path d="M0 0 C-1.4540625 0.4021875 -1.4540625 0.4021875 -2.9375 0.8125 C-3.948125 1.204375 -4.95875 1.59625 -6 2 C-6.33 2.99 -6.66 3.98 -7 5 C-7.33 3.68 -7.66 2.36 -8 1 C-4.93251126 -0.86240388 -3.40254489 -1.2151946 0 0 Z " fill="#F7FEED" transform="translate(347,272)"/>
<path d="M0 0 C0 3.69418201 -1.28179295 5.77836178 -3 9 C-3.66 9 -4.32 9 -5 9 C-3.90931332 5.22454612 -3.0916909 2.52956528 0 0 Z " fill="#F7FEDF" transform="translate(230,263)"/>
<path d="M0 0 C0 0.66 0 1.32 0 2 C-3.61973402 3.31626692 -6.09567131 4 -10 4 C-6.74659338 1.32755885 -4.23938937 0 0 0 Z " fill="#FAFEE8" transform="translate(271,201)"/>
<path d="M0 0 C0.33 0 0.66 0 1 0 C1.33 2.64 1.66 5.28 2 8 C0.68 8.99 -0.64 9.98 -2 11 C-1.855625 10.29875 -1.71125 9.5975 -1.5625 8.875 C-0.98521625 5.92443859 -0.48304859 2.96729849 0 0 Z " fill="#F7FEE6" transform="translate(334,196)"/>
<path d="M0 0 C0.66 0.99 1.32 1.98 2 3 C1.34 4.32 0.68 5.64 0 7 C-0.99 5.35 -1.98 3.7 -3 2 C-2.01 1.34 -1.02 0.68 0 0 Z " fill="#F8FDE5" transform="translate(269,99)"/>
<path d="M0 0 C2.02054804 1.64169528 4.02043058 3.30911778 6 5 C6 5.33 6 5.66 6 6 C4.35 6 2.7 6 1 6 C0.67 4.02 0.34 2.04 0 0 Z " fill="#F4FEE1" transform="translate(346,95)"/>
<path d="M0 0 C0.99 0.495 0.99 0.495 2 1 C1.01 1.495 1.01 1.495 0 2 C0 1.34 0 0.68 0 0 Z " fill="#FFFFCD" transform="translate(386,328)"/>
</svg>
